<svg width="90" height="69" viewBox="0 0 90 69" fill="none" xmlns="http://www.w3.org/2000/svg">
<path d="M11.4866 68.877H79.3577C86.2913 68.877 89.9046 65.2149 89.9046 58.3789V11.3086C89.9046 4.42382 86.2913 0.761719 79.3577 0.761719H11.4866C4.55298 0.761719 0.939697 4.37502 0.939697 11.3086V58.3789C0.939697 65.3125 4.55298 68.877 11.4866 68.877ZM11.5843 65.5567C6.79908 65.5567 4.25998 63.0664 4.25998 58.1836V11.4551C4.25998 6.62112 6.79908 4.08202 11.5843 4.08202H79.26C83.8987 4.08202 86.5843 6.62112 86.5843 11.4551V58.1836C86.5843 63.0664 83.8987 65.5567 79.26 65.5567H11.5843ZM70.8616 49.1992C70.8616 47.6855 70.1292 46.6113 68.3714 46.6113H22.4729C20.7639 46.6113 19.9827 47.6855 19.9827 49.1992V50.3223C19.9827 51.7871 20.7639 52.8613 22.4729 52.8613H68.3714C70.1292 52.8613 70.8616 51.7871 70.8616 50.3223V49.1992Z" fill="black"/>
</svg>
