<svg xmlns="http://www.w3.org/2000/svg" viewBox="0 0 99 93">
<path d="M69.6402 8.49221C59.9723 -1.12699 39.0738 -2.34769 27.2086 9.51761C25.2066 11.5684 25.5973 13.8145 26.9645 15.1328C27.941 16.1582 29.5035 16.6465 30.9195 16.1582C39.2691 13.375 46.7398 12.9844 52.8922 17.2812L49.6695 25.9727C48.3023 29.5859 49.0836 32.0762 51.2809 34.3223L60.0699 43.209C61.7789 44.9668 63.8297 45.5527 66.5152 44.918L73.1559 43.502L75.8902 46.334L75.3531 51.4121C75.1578 52.9746 75.3531 54.0488 76.8668 55.4648L79.7477 58.248C81.5543 60.0059 83.8004 60.2012 85.5094 58.4922L97.57 46.5293C99.279 44.8203 99.035 42.5254 97.277 40.7188L94.445 37.8379C93.078 36.373 91.9547 36.0801 90.441 36.3242L85.3141 36.9102L82.482 34.2246L84.3863 27.1445C84.9723 24.9961 84.1422 22.8965 81.7496 20.5527L69.6402 8.49221ZM4.01523 73.3848C0.0601897 76.8516 -0.0374706 80.5625 3.52703 84.127L9.63053 90.1816C13.1461 93.7461 16.9547 93.5996 20.4215 89.7422L56.6031 48.8242L44.9332 37.1543L4.01523 73.3848Z" fill="black"/>
</svg>
