<svg width="90" height="69" viewBox="0 0 90 69" fill="none" xmlns="http://www.w3.org/2000/svg">
<path d="M11.4866 68.877H79.3577C86.2913 68.877 89.9046 65.2149 89.9046 58.3789V11.3086C89.9046 4.42382 86.2913 0.761719 79.3577 0.761719H11.4866C4.55298 0.761719 0.939697 4.37502 0.939697 11.3086V58.3789C0.939697 65.3125 4.55298 68.877 11.4866 68.877ZM11.5843 65.5567C6.79908 65.5567 4.25998 63.0664 4.25998 58.1836V11.4551C4.25998 6.62112 6.79908 4.08202 11.5843 4.08202H58.8987V65.5567H11.5843ZM79.26 4.08202C83.8987 4.08202 86.5843 6.62112 86.5843 11.4551V58.1836C86.5843 63.0664 83.8987 65.5567 79.26 65.5567H62.1214V4.08202H79.26ZM69.4456 18.3887H79.3089C80.0901 18.3887 80.6761 17.7539 80.6761 17.0215C80.6761 16.2891 80.0901 15.7031 79.3089 15.7031H69.4456C68.6643 15.7031 68.0296 16.2891 68.0296 17.0215C68.0296 17.7539 68.6643 18.3887 69.4456 18.3887ZM69.4456 28.7402H79.3089C80.0901 28.7402 80.6761 28.1055 80.6761 27.373C80.6761 26.6406 80.0901 26.0059 79.3089 26.0059H69.4456C68.6643 26.0059 68.0296 26.6406 68.0296 27.373C68.0296 28.1055 68.6643 28.7402 69.4456 28.7402ZM69.4456 39.043H79.3089C80.0901 39.043 80.6761 38.4082 80.6761 37.6758C80.6761 36.9434 80.0901 36.3574 79.3089 36.3574H69.4456C68.6643 36.3574 68.0296 36.9434 68.0296 37.6758C68.0296 38.4082 68.6643 39.043 69.4456 39.043Z" fill="black"/>
</svg>
