<svg width="17" height="65" viewBox="0 0 17 65" fill="none" xmlns="http://www.w3.org/2000/svg">
<path d="M4.1252 63.7031L15.551 35.4805C15.8928 34.6504 16.2346 33.5762 16.2346 32.7461C16.2346 31.916 15.8928 30.8418 15.551 30.0117L4.1252 1.78909C3.7835 0.958985 3.0999 0.617188 2.5139 0.617188C1.4397 0.617188 0.609619 1.39838 0.609619 2.52148C0.609619 3.05858 0.902599 3.79099 1.0491 4.27929L12.5725 32.7461L1.0491 61.2129C0.902599 61.7012 0.609619 62.4336 0.609619 62.9707C0.609619 64.0937 1.4397 64.875 2.5139 64.875C3.0999 64.875 3.7835 64.5332 4.1252 63.7031Z" fill="black"/>
</svg>
