<?xml version="1.0" encoding="UTF-8"?>
<!--Generator: Apple Native CoreSVG 149-->
<!DOCTYPE svg
PUBLIC "-//W3C//DTD SVG 1.1//EN"
       "http://www.w3.org/Graphics/SVG/1.1/DTD/svg11.dtd">
<svg version="1.1" xmlns="http://www.w3.org/2000/svg" xmlns:xlink="http://www.w3.org/1999/xlink" width="3300" height="2200">
 <!--glyph: "uni100246.medium", point size: 100.0, font version: "17.0d9e1", template writer version: "59"-->
 <g id="Notes">
  <rect height="2200" id="artboard" style="fill:white;opacity:1" width="3300" x="0" y="0"/>
  <line style="fill:none;stroke:black;opacity:1;stroke-width:0.5;" x1="263" x2="3036" y1="292" y2="292"/>
  <text style="stroke:none;fill:black;font-family:sans-serif;font-size:13;font-weight:bold;" transform="matrix(1 0 0 1 263 322)">Weight/Scale Variations</text>
  <text style="stroke:none;fill:black;font-family:sans-serif;font-size:13;text-anchor:middle;" transform="matrix(1 0 0 1 559.711 322)">Ultralight</text>
  <text style="stroke:none;fill:black;font-family:sans-serif;font-size:13;text-anchor:middle;" transform="matrix(1 0 0 1 856.422 322)">Thin</text>
  <text style="stroke:none;fill:black;font-family:sans-serif;font-size:13;text-anchor:middle;" transform="matrix(1 0 0 1 1153.13 322)">Light</text>
  <text style="stroke:none;fill:black;font-family:sans-serif;font-size:13;text-anchor:middle;" transform="matrix(1 0 0 1 1449.84 322)">Regular</text>
  <text style="stroke:none;fill:black;font-family:sans-serif;font-size:13;text-anchor:middle;" transform="matrix(1 0 0 1 1746.56 322)">Medium</text>
  <text style="stroke:none;fill:black;font-family:sans-serif;font-size:13;text-anchor:middle;" transform="matrix(1 0 0 1 2043.27 322)">Semibold</text>
  <text style="stroke:none;fill:black;font-family:sans-serif;font-size:13;text-anchor:middle;" transform="matrix(1 0 0 1 2339.98 322)">Bold</text>
  <text style="stroke:none;fill:black;font-family:sans-serif;font-size:13;text-anchor:middle;" transform="matrix(1 0 0 1 2636.69 322)">Heavy</text>
  <text style="stroke:none;fill:black;font-family:sans-serif;font-size:13;text-anchor:middle;" transform="matrix(1 0 0 1 2933.4 322)">Black</text>
  <line style="fill:none;stroke:black;opacity:1;stroke-width:0.5;" x1="263" x2="3036" y1="1903" y2="1903"/>
  <g transform="matrix(1 0 0 1 263 1933)">
   <path d="M9.24805 0.830078Q10.8691 0.830078 12.2949 0.214844Q13.7207-0.400391 14.8096-1.49414Q15.8984-2.58789 16.5186-4.01367Q17.1387-5.43945 17.1387-7.05078Q17.1387-8.66211 16.5186-10.0879Q15.8984-11.5137 14.8047-12.6074Q13.7109-13.7012 12.2852-14.3164Q10.8594-14.9316 9.23828-14.9316Q7.62695-14.9316 6.20117-14.3164Q4.77539-13.7012 3.69141-12.6074Q2.60742-11.5137 1.9873-10.0879Q1.36719-8.66211 1.36719-7.05078Q1.36719-5.43945 1.9873-4.01367Q2.60742-2.58789 3.69629-1.49414Q4.78516-0.400391 6.21094 0.214844Q7.63672 0.830078 9.24805 0.830078ZM9.24805-0.654297Q7.91992-0.654297 6.7627-1.14746Q5.60547-1.64062 4.73145-2.51953Q3.85742-3.39844 3.36426-4.56055Q2.87109-5.72266 2.87109-7.05078Q2.87109-8.37891 3.35938-9.54102Q3.84766-10.7031 4.72168-11.582Q5.5957-12.4609 6.75293-12.9541Q7.91016-13.4473 9.23828-13.4473Q10.5762-13.4473 11.7334-12.9541Q12.8906-12.4609 13.7695-11.582Q14.6484-10.7031 15.1465-9.54102Q15.6445-8.37891 15.6445-7.05078Q15.6445-5.72266 15.1514-4.56055Q14.6582-3.39844 13.7842-2.51953Q12.9102-1.64062 11.748-1.14746Q10.5859-0.654297 9.24805-0.654297ZM5.83984-7.04102Q5.83984-6.71875 6.04492-6.51855Q6.25-6.31836 6.5918-6.31836L8.50586-6.31836L8.50586-4.39453Q8.50586-4.0625 8.70605-3.85742Q8.90625-3.65234 9.22852-3.65234Q9.56055-3.65234 9.76562-3.85742Q9.9707-4.0625 9.9707-4.39453L9.9707-6.31836L11.8945-6.31836Q12.2266-6.31836 12.4316-6.51855Q12.6367-6.71875 12.6367-7.04102Q12.6367-7.37305 12.4316-7.57812Q12.2266-7.7832 11.8945-7.7832L9.9707-7.7832L9.9707-9.69727Q9.9707-10.0391 9.76562-10.2441Q9.56055-10.4492 9.22852-10.4492Q8.90625-10.4492 8.70605-10.2441Q8.50586-10.0391 8.50586-9.69727L8.50586-7.7832L6.5918-7.7832Q6.25-7.7832 6.04492-7.57812Q5.83984-7.37305 5.83984-7.04102Z"/>
  </g>
  <g transform="matrix(1 0 0 1 281.867 1933)">
   <path d="M11.709 2.91016Q13.75 2.91016 15.5518 2.12891Q17.3535 1.34766 18.7305-0.0292969Q20.1074-1.40625 20.8887-3.20801Q21.6699-5.00977 21.6699-7.05078Q21.6699-9.0918 20.8887-10.8936Q20.1074-12.6953 18.7305-14.0723Q17.3535-15.4492 15.5469-16.2305Q13.7402-17.0117 11.6992-17.0117Q9.6582-17.0117 7.85645-16.2305Q6.05469-15.4492 4.68262-14.0723Q3.31055-12.6953 2.5293-10.8936Q1.74805-9.0918 1.74805-7.05078Q1.74805-5.00977 2.5293-3.20801Q3.31055-1.40625 4.6875-0.0292969Q6.06445 1.34766 7.86621 2.12891Q9.66797 2.91016 11.709 2.91016ZM11.709 1.25Q9.98047 1.25 8.47656 0.605469Q6.97266-0.0390625 5.83496-1.17676Q4.69727-2.31445 4.05762-3.81836Q3.41797-5.32227 3.41797-7.05078Q3.41797-8.7793 4.05762-10.2832Q4.69727-11.7871 5.83008-12.9297Q6.96289-14.0723 8.4668-14.7119Q9.9707-15.3516 11.6992-15.3516Q13.4277-15.3516 14.9316-14.7119Q16.4355-14.0723 17.5781-12.9297Q18.7207-11.7871 19.3652-10.2832Q20.0098-8.7793 20.0098-7.05078Q20.0098-5.32227 19.3701-3.81836Q18.7305-2.31445 17.5928-1.17676Q16.4551-0.0390625 14.9463 0.605469Q13.4375 1.25 11.709 1.25ZM7.39258-7.04102Q7.39258-6.68945 7.62695-6.46484Q7.86133-6.24023 8.23242-6.24023L10.8789-6.24023L10.8789-3.57422Q10.8789-3.21289 11.1035-2.9834Q11.3281-2.75391 11.6797-2.75391Q12.0508-2.75391 12.2852-2.9834Q12.5195-3.21289 12.5195-3.57422L12.5195-6.24023L15.1758-6.24023Q15.5371-6.24023 15.7715-6.46484Q16.0059-6.68945 16.0059-7.04102Q16.0059-7.41211 15.7715-7.6416Q15.5371-7.87109 15.1758-7.87109L12.5195-7.87109L12.5195-10.5176Q12.5195-10.8984 12.2852-11.1279Q12.0508-11.3574 11.6797-11.3574Q11.3281-11.3574 11.1035-11.1279Q10.8789-10.8984 10.8789-10.5176L10.8789-7.87109L8.23242-7.87109Q7.85156-7.87109 7.62207-7.6416Q7.39258-7.41211 7.39258-7.04102Z"/>
  </g>
  <g transform="matrix(1 0 0 1 305.646 1933)">
   <path d="M14.9707 5.66406Q17.0605 5.66406 18.96 5.01465Q20.8594 4.36523 22.4512 3.19336Q24.043 2.02148 25.2197 0.429688Q26.3965-1.16211 27.0459-3.06641Q27.6953-4.9707 27.6953-7.05078Q27.6953-9.14062 27.0459-11.04Q26.3965-12.9395 25.2197-14.5312Q24.043-16.123 22.4512-17.2998Q20.8594-18.4766 18.9551-19.126Q17.0508-19.7754 14.9609-19.7754Q12.8711-19.7754 10.9717-19.126Q9.07227-18.4766 7.48535-17.2998Q5.89844-16.123 4.72168-14.5312Q3.54492-12.9395 2.90039-11.04Q2.25586-9.14062 2.25586-7.05078Q2.25586-4.9707 2.90527-3.06641Q3.55469-1.16211 4.72656 0.429688Q5.89844 2.02148 7.49023 3.19336Q9.08203 4.36523 10.9814 5.01465Q12.8809 5.66406 14.9707 5.66406ZM14.9707 3.84766Q13.1641 3.84766 11.5283 3.2959Q9.89258 2.74414 8.53516 1.74805Q7.17773 0.751953 6.17676-0.610352Q5.17578-1.97266 4.62891-3.6084Q4.08203-5.24414 4.08203-7.05078Q4.08203-8.86719 4.62891-10.5029Q5.17578-12.1387 6.17188-13.501Q7.16797-14.8633 8.52539-15.8594Q9.88281-16.8555 11.5186-17.4023Q13.1543-17.9492 14.9609-17.9492Q16.7773-17.9492 18.4131-17.4023Q20.0488-16.8555 21.4111-15.8594Q22.7734-14.8633 23.7695-13.501Q24.7656-12.1387 25.3174-10.5029Q25.8691-8.86719 25.8691-7.05078Q25.8789-5.24414 25.332-3.6084Q24.7852-1.97266 23.7842-0.610352Q22.7832 0.751953 21.4209 1.74805Q20.0586 2.74414 18.4229 3.2959Q16.7871 3.84766 14.9707 3.84766ZM9.45312-7.04102Q9.45312-6.66016 9.71191-6.41113Q9.9707-6.16211 10.3711-6.16211L14.0625-6.16211L14.0625-2.46094Q14.0625-2.06055 14.3115-1.80664Q14.5605-1.55273 14.9414-1.55273Q15.3516-1.55273 15.6055-1.80664Q15.8594-2.06055 15.8594-2.46094L15.8594-6.16211L19.5605-6.16211Q19.9609-6.16211 20.2148-6.41113Q20.4688-6.66016 20.4688-7.04102Q20.4688-7.45117 20.2148-7.70508Q19.9609-7.95898 19.5605-7.95898L15.8594-7.95898L15.8594-11.6504Q15.8594-12.0605 15.6055-12.3145Q15.3516-12.5684 14.9414-12.5684Q14.5605-12.5684 14.3115-12.3096Q14.0625-12.0508 14.0625-11.6504L14.0625-7.95898L10.3711-7.95898Q9.96094-7.95898 9.70703-7.70508Q9.45312-7.45117 9.45312-7.04102Z"/>
  </g>
  <text style="stroke:none;fill:black;font-family:sans-serif;font-size:13;font-weight:bold;" transform="matrix(1 0 0 1 263 1953)">Design Variations</text>
  <text style="stroke:none;fill:black;font-family:sans-serif;font-size:13;" transform="matrix(1 0 0 1 263 1971)">Symbols are supported in up to nine weights and three scales.</text>
  <text style="stroke:none;fill:black;font-family:sans-serif;font-size:13;" transform="matrix(1 0 0 1 263 1989)">For optimal layout with text and other symbols, vertically align</text>
  <text style="stroke:none;fill:black;font-family:sans-serif;font-size:13;" transform="matrix(1 0 0 1 263 2007)">symbols with the adjacent text.</text>
  <line style="fill:none;stroke:#00AEEF;stroke-width:0.5;opacity:1.0;" x1="776" x2="776" y1="1919" y2="1933"/>
  <g transform="matrix(1 0 0 1 776 1933)">
   <path d="M3.31055 0.15625Q3.70117 0.15625 3.91602-0.00976562Q4.13086-0.175781 4.26758-0.585938L5.52734-4.0332L11.2891-4.0332L12.5488-0.585938Q12.6855-0.175781 12.9004-0.00976562Q13.1152 0.15625 13.4961 0.15625Q13.8867 0.15625 14.1162-0.0585938Q14.3457-0.273438 14.3457-0.644531Q14.3457-0.869141 14.2383-1.17188L9.6582-13.3691Q9.48242-13.8184 9.17969-14.043Q8.87695-14.2676 8.4082-14.2676Q7.5-14.2676 7.17773-13.3789L2.59766-1.16211Q2.49023-0.859375 2.49023-0.634766Q2.49023-0.263672 2.70996-0.0537109Q2.92969 0.15625 3.31055 0.15625ZM6.00586-5.51758L8.37891-12.0898L8.42773-12.0898L10.8008-5.51758Z"/>
  </g>
  <line style="fill:none;stroke:#00AEEF;stroke-width:0.5;opacity:1.0;" x1="793.197" x2="793.197" y1="1919" y2="1933"/>
  <text style="stroke:none;fill:black;font-family:sans-serif;font-size:13;font-weight:bold;" transform="matrix(1 0 0 1 776 1953)">Margins</text>
  <text style="stroke:none;fill:black;font-family:sans-serif;font-size:13;" transform="matrix(1 0 0 1 776 1971)">Leading and trailing margins on the left and right side of each symbol</text>
  <text style="stroke:none;fill:black;font-family:sans-serif;font-size:13;" transform="matrix(1 0 0 1 776 1989)">can be adjusted by modifying the x-location of the margin guidelines.</text>
  <text style="stroke:none;fill:black;font-family:sans-serif;font-size:13;" transform="matrix(1 0 0 1 776 2007)">Modifications are automatically applied proportionally to all</text>
  <text style="stroke:none;fill:black;font-family:sans-serif;font-size:13;" transform="matrix(1 0 0 1 776 2025)">scales and weights.</text>
  <g transform="matrix(1 0 0 1 1289 1933)">
   <path d="M2.8418 1.86523L4.54102 3.57422Q5.18555 4.22852 5.90332 4.17969Q6.62109 4.13086 7.31445 3.35938L18.0078-8.42773L17.041-9.4043L6.42578 2.27539Q6.16211 2.57812 5.89355 2.61719Q5.625 2.65625 5.27344 2.30469L4.10156 1.14258Q3.75 0.791016 3.79395 0.522461Q3.83789 0.253906 4.14062-0.0195312L15.6152-10.8203L14.6387-11.7871L3.04688-0.898438Q2.30469-0.214844 2.25098 0.498047Q2.19727 1.21094 2.8418 1.86523ZM9.25781-16.3281Q8.94531-16.0254 8.90625-15.6348Q8.86719-15.2441 9.04297-14.9512Q9.21875-14.6777 9.55566-14.541Q9.89258-14.4043 10.3809-14.5215Q11.4746-14.7754 12.5977-14.7314Q13.7207-14.6875 14.7949-13.9844L14.209-12.5293Q13.9551-11.9043 14.0674-11.4404Q14.1797-10.9766 14.5801-10.5664L16.875-8.25195Q17.2363-7.88086 17.5781-7.82227Q17.9199-7.76367 18.3398-7.8418L19.4043-8.03711L20.0684-7.36328L20.0293-6.80664Q20-6.43555 20.1221-6.12305Q20.2441-5.81055 20.6055-5.44922L21.3672-4.70703Q21.7285-4.3457 22.1533-4.33105Q22.5781-4.31641 22.9297-4.66797L25.8398-7.58789Q26.1914-7.93945 26.1816-8.35449Q26.1719-8.76953 25.8105-9.13086L25.0391-9.89258Q24.6875-10.2539 24.3799-10.3857Q24.0723-10.5176 23.7109-10.4883L23.1348-10.4395L22.4902-11.0742L22.7344-12.1973Q22.832-12.6172 22.6953-12.9834Q22.5586-13.3496 22.1191-13.7891L19.9219-15.9766Q18.6719-17.2168 17.2607-17.8369Q15.8496-18.457 14.4189-18.4814Q12.9883-18.5059 11.665-17.959Q10.3418-17.4121 9.25781-16.3281ZM10.752-15.957Q11.6602-16.6211 12.7002-16.9043Q13.7402-17.1875 14.8047-17.085Q15.8691-16.9824 16.8701-16.5137Q17.8711-16.0449 18.7012-15.2051L21.1328-12.793Q21.3086-12.6172 21.3525-12.4512Q21.3965-12.2852 21.3379-12.0312L21.0156-10.5469L22.5195-9.0625L23.5059-9.12109Q23.6914-9.13086 23.7891-9.09668Q23.8867-9.0625 24.0332-8.91602L24.6094-8.33984L22.168-5.89844L21.5918-6.47461Q21.4453-6.62109 21.4062-6.71875Q21.3672-6.81641 21.377-7.01172L21.4453-7.98828L19.9512-9.47266L18.4277-9.21875Q18.1836-9.16992 18.042-9.2041Q17.9004-9.23828 17.7148-9.41406L15.7129-11.416Q15.5176-11.5918 15.4932-11.7529Q15.4688-11.9141 15.5859-12.1875L16.4648-14.2773Q15.293-15.3711 13.8281-15.791Q12.3633-16.2109 10.8398-15.7617Q10.7227-15.7324 10.6885-15.8057Q10.6543-15.8789 10.752-15.957Z"/>
  </g>
  <text style="stroke:none;fill:black;font-family:sans-serif;font-size:13;font-weight:bold;" transform="matrix(1 0 0 1 1289 1953)">Exporting</text>
  <text style="stroke:none;fill:black;font-family:sans-serif;font-size:13;" transform="matrix(1 0 0 1 1289 1971)">Symbols should be outlined when exporting to ensure the</text>
  <text style="stroke:none;fill:black;font-family:sans-serif;font-size:13;" transform="matrix(1 0 0 1 1289 1989)">design is preserved when submitting to Xcode.</text>
  <text id="template-version" style="stroke:none;fill:black;font-family:sans-serif;font-size:13;text-anchor:end;" transform="matrix(1 0 0 1 3036 1933)">Template v.3.0</text>
  <text style="stroke:none;fill:black;font-family:sans-serif;font-size:13;text-anchor:end;" transform="matrix(1 0 0 1 3036 1951)">Requires Xcode 13 or greater</text>
  <text id="descriptive-name" style="stroke:none;fill:black;font-family:sans-serif;font-size:13;text-anchor:end;" transform="matrix(1 0 0 1 3036 1969)">Generated from doc.plaintext</text>
  <text style="stroke:none;fill:black;font-family:sans-serif;font-size:13;text-anchor:end;" transform="matrix(1 0 0 1 3036 1987)">Typeset at 100 points</text>
  <text style="stroke:none;fill:black;font-family:sans-serif;font-size:13;" transform="matrix(1 0 0 1 263 726)">Small</text>
  <text style="stroke:none;fill:black;font-family:sans-serif;font-size:13;" transform="matrix(1 0 0 1 263 1156)">Medium</text>
  <text style="stroke:none;fill:black;font-family:sans-serif;font-size:13;" transform="matrix(1 0 0 1 263 1586)">Large</text>
 </g>
 <g id="Guides">
  <g id="H-reference" style="fill:#27AAE1;stroke:none;" transform="matrix(1 0 0 1 339 696)">
   <path d="M0.993347 0L3.6377 0L29.3282-67.1326L30.0301-67.1326L30.0301-70.459L28.1227-70.459ZM11.6882-24.4797L46.9818-24.4797L46.2311-26.7288L12.4382-26.7288ZM55.1193 0L57.7637 0L30.6381-70.459L29.4327-70.459L29.4327-67.1326Z"/>
  </g>
  <line id="Baseline-S" style="fill:none;stroke:#27AAE1;opacity:1;stroke-width:0.5;" x1="263" x2="3036" y1="696" y2="696"/>
  <line id="Capline-S" style="fill:none;stroke:#27AAE1;opacity:1;stroke-width:0.5;" x1="263" x2="3036" y1="625.541" y2="625.541"/>
  <g id="H-reference" style="fill:#27AAE1;stroke:none;" transform="matrix(1 0 0 1 339 1126)">
   <path d="M0.993347 0L3.6377 0L29.3282-67.1326L30.0301-67.1326L30.0301-70.459L28.1227-70.459ZM11.6882-24.4797L46.9818-24.4797L46.2311-26.7288L12.4382-26.7288ZM55.1193 0L57.7637 0L30.6381-70.459L29.4327-70.459L29.4327-67.1326Z"/>
  </g>
  <line id="Baseline-M" style="fill:none;stroke:#27AAE1;opacity:1;stroke-width:0.5;" x1="263" x2="3036" y1="1126" y2="1126"/>
  <line id="Capline-M" style="fill:none;stroke:#27AAE1;opacity:1;stroke-width:0.5;" x1="263" x2="3036" y1="1055.54" y2="1055.54"/>
  <g id="H-reference" style="fill:#27AAE1;stroke:none;" transform="matrix(1 0 0 1 339 1556)">
   <path d="M0.993347 0L3.6377 0L29.3282-67.1326L30.0301-67.1326L30.0301-70.459L28.1227-70.459ZM11.6882-24.4797L46.9818-24.4797L46.2311-26.7288L12.4382-26.7288ZM55.1193 0L57.7637 0L30.6381-70.459L29.4327-70.459L29.4327-67.1326Z"/>
  </g>
  <line id="Baseline-L" style="fill:none;stroke:#27AAE1;opacity:1;stroke-width:0.5;" x1="263" x2="3036" y1="1556" y2="1556"/>
  <line id="Capline-L" style="fill:none;stroke:#27AAE1;opacity:1;stroke-width:0.5;" x1="263" x2="3036" y1="1485.54" y2="1485.54"/>
  <line id="left-margin-Regular-M" style="fill:none;stroke:#00AEEF;stroke-width:0.5;opacity:1.0;" x1="1396.33" x2="1396.33" y1="1030.79" y2="1150.12"/>
  <line id="right-margin-Regular-M" style="fill:none;stroke:#00AEEF;stroke-width:0.5;opacity:1.0;" x1="1503.36" x2="1503.36" y1="1030.79" y2="1150.12"/>
 </g>
 <g id="Symbols">
  <g id="Black-L" transform="matrix(1 0 0 1 2859.65 1556)">
   <path d="M53.7109-60.8887L93.8965-60.8887Q95.8496-60.8887 97.1191-62.207Q98.3887-63.5254 98.3887-65.4785Q98.3887-67.334 97.1191-68.6035Q95.8496-69.873 93.8965-69.873L53.7109-69.873Q51.709-69.873 50.415-68.6035Q49.1211-67.334 49.1211-65.4785Q49.1211-63.5254 50.415-62.207Q51.709-60.8887 53.7109-60.8887ZM53.7109-40.8691L93.8965-40.8691Q95.8496-40.8691 97.1191-42.1875Q98.3887-43.5059 98.3887-45.459Q98.3887-47.3145 97.1191-48.6084Q95.8496-49.9023 93.8965-49.9023L53.7109-49.9023Q51.709-49.9023 50.415-48.6084Q49.1211-47.3145 49.1211-45.459Q49.1211-43.5059 50.415-42.1875Q51.709-40.8691 53.7109-40.8691ZM53.7109-20.8496L74.6582-20.8496Q76.6113-20.8496 77.9053-22.1436Q79.1992-23.4375 79.1992-25.293Q79.1992-27.1973 77.9053-28.54Q76.6113-29.8828 74.6582-29.8828L53.7109-29.8828Q51.709-29.8828 50.415-28.54Q49.1211-27.1973 49.1211-25.293Q49.1211-23.4375 50.415-22.1436Q51.709-20.8496 53.7109-20.8496ZM16.0645 11.3281Q16.0645 22.7539 22.2656 29.0039Q28.4668 35.2539 39.8926 35.2539L107.617 35.2539Q119.043 35.2539 125.244 29.0039Q131.445 22.7539 131.445 11.3281L131.445-81.7383Q131.445-93.1641 125.244-99.4141Q119.043-105.664 107.617-105.664L39.8926-105.664Q28.4668-105.664 22.2656-99.4141Q16.0645-93.1641 16.0645-81.7383ZM36.3281 8.59375L36.3281-79.0039Q36.3281-82.1777 37.8174-83.7891Q39.3066-85.4004 42.7246-85.4004L104.785-85.4004Q108.203-85.4004 109.717-83.7891Q111.23-82.1777 111.23-79.0039L111.23 8.59375Q111.23 11.7676 109.717 13.3789Q108.203 14.9902 104.785 14.9902L42.7246 14.9902Q39.3066 14.9902 37.8174 13.3789Q36.3281 11.7676 36.3281 8.59375Z"/>
  </g>
  <g id="Heavy-L" transform="matrix(1 0 0 1 2564.18 1556)">
   <path d="M51.4404-62.5137L93.6661-62.5137Q95.504-62.5137 96.7045-63.7573Q97.905-65.0009 97.905-66.8381Q97.905-68.5905 96.7045-69.7849Q95.504-70.9793 93.6661-70.9793L51.4404-70.9793Q49.5537-70.9793 48.3349-69.7849Q47.1161-68.5905 47.1161-66.8381Q47.1161-65.0009 48.3349-63.7573Q49.5537-62.5137 51.4404-62.5137ZM51.4404-42.0219L93.6661-42.0219Q95.504-42.0219 96.7045-43.2594Q97.905-44.4969 97.905-46.3348Q97.905-48.0865 96.7045-49.3Q95.504-50.5135 93.6661-50.5135L51.4404-50.5135Q49.5537-50.5135 48.3349-49.3Q47.1161-48.0865 47.1161-46.3348Q47.1161-44.4969 48.3349-43.2594Q49.5537-42.0219 51.4404-42.0219ZM51.4404-21.5179L72.9645-21.5179Q74.8016-21.5179 76.0208-22.7314Q77.24-23.9449 77.24-25.6966Q77.24-27.4971 76.0208-28.759Q74.8016-30.0209 72.9645-30.0209L51.4404-30.0209Q49.5537-30.0209 48.3349-28.759Q47.1161-27.4971 47.1161-25.6966Q47.1161-23.9449 48.3349-22.7314Q49.5537-21.5179 51.4404-21.5179ZM16.0645 11.7432Q16.0645 22.7081 21.9143 28.6064Q27.7641 34.5047 38.7054 34.5047L106.315 34.5047Q117.257 34.5047 123.106 28.6064Q128.956 22.7081 128.956 11.7432L128.956-82.1533Q128.956-93.1061 123.106-99.0105Q117.257-104.915 106.315-104.915L38.7054-104.915Q27.7641-104.915 21.9143-99.0105Q16.0645-93.1061 16.0645-82.1533ZM33.5854 9.6077L33.5854-80.0179Q33.5854-83.6533 35.3569-85.5236Q37.1284-87.394 40.9843-87.394L104.036-87.394Q107.892-87.394 109.682-85.5236Q111.472-83.6533 111.472-80.0179L111.472 9.6077Q111.472 13.2431 109.682 15.1134Q107.892 16.9838 104.036 16.9838L40.9843 16.9838Q37.1284 16.9838 35.3569 15.1134Q33.5854 13.2431 33.5854 9.6077Z"/>
  </g>
  <g id="Bold-L" transform="matrix(1 0 0 1 2268.86 1556)">
   <path d="M48.9014-64.3311L93.4082-64.3311Q95.1172-64.3311 96.2402-65.4907Q97.3633-66.6504 97.3633-68.3594Q97.3633-69.9951 96.2402-71.106Q95.1172-72.2168 93.4082-72.2168L48.9014-72.2168Q47.1436-72.2168 46.0083-71.106Q44.873-69.9951 44.873-68.3594Q44.873-66.6504 46.0083-65.4907Q47.1436-64.3311 48.9014-64.3311ZM48.9014-43.3105L93.4082-43.3105Q95.1172-43.3105 96.2402-44.458Q97.3633-45.6055 97.3633-47.3145Q97.3633-48.9502 96.2402-50.0732Q95.1172-51.1963 93.4082-51.1963L48.9014-51.1963Q47.1436-51.1963 46.0083-50.0732Q44.873-48.9502 44.873-47.3145Q44.873-45.6055 46.0083-44.458Q47.1436-43.3105 48.9014-43.3105ZM48.9014-22.2656L71.0693-22.2656Q72.7783-22.2656 73.9136-23.3887Q75.0488-24.5117 75.0488-26.1475Q75.0488-27.832 73.9136-29.0039Q72.7783-30.1758 71.0693-30.1758L48.9014-30.1758Q47.1436-30.1758 46.0083-29.0039Q44.873-27.832 44.873-26.1475Q44.873-24.5117 46.0083-23.3887Q47.1436-22.2656 48.9014-22.2656ZM16.0645 12.207Q16.0645 22.6562 21.521 28.1616Q26.9775 33.667 37.3779 33.667L104.858 33.667Q115.259 33.667 120.715 28.1616Q126.172 22.6562 126.172 12.207L126.172-82.6172Q126.172-93.042 120.715-98.5596Q115.259-104.077 104.858-104.077L37.3779-104.077Q26.9775-104.077 21.521-98.5596Q16.0645-93.042 16.0645-82.6172ZM30.5176 10.7422L30.5176-81.1523Q30.5176-85.3027 32.605-87.4634Q34.6924-89.624 39.0381-89.624L103.198-89.624Q107.544-89.624 109.644-87.4634Q111.743-85.3027 111.743-81.1523L111.743 10.7422Q111.743 14.8926 109.644 17.0532Q107.544 19.2139 103.198 19.2139L39.0381 19.2139Q34.6924 19.2139 32.605 17.0532Q30.5176 14.8926 30.5176 10.7422Z"/>
  </g>
  <g id="Semibold-L" transform="matrix(1 0 0 1 1973.11 1556)">
   <path d="M47.1504-65.5838L93.2304-65.5838Q94.8509-65.5838 95.9206-66.6859Q96.9902-67.7879 96.9902-69.4084Q96.9902-70.9641 95.9206-72.0169Q94.8509-73.0698 93.2304-73.0698L47.1504-73.0698Q45.4819-73.0698 44.4042-72.0169Q43.3266-70.9641 43.3266-69.4084Q43.3266-67.7879 44.4042-66.6859Q45.4819-65.5838 47.1504-65.5838ZM47.1504-44.1994L93.2304-44.1994Q94.8509-44.1994 95.9206-45.2847Q96.9902-46.3699 96.9902-47.9897Q96.9902-49.5453 95.9206-50.6062Q94.8509-51.667 93.2304-51.667L47.1504-51.667Q45.4819-51.667 44.4042-50.6062Q43.3266-49.5453 43.3266-47.9897Q43.3266-46.3699 44.4042-45.2847Q45.4819-44.1994 47.1504-44.1994ZM47.1504-22.7814L69.7632-22.7814Q71.3829-22.7814 72.4606-23.8422Q73.5382-24.9031 73.5382-26.4587Q73.5382-28.0632 72.4606-29.1729Q71.3829-30.2826 69.7632-30.2826L47.1504-30.2826Q45.4819-30.2826 44.4042-29.1729Q43.3266-28.0632 43.3266-26.4587Q43.3266-24.9031 44.4042-23.8422Q45.4819-22.7814 47.1504-22.7814ZM16.0645 12.5267Q16.0645 22.6204 21.2498 27.8549Q26.4351 33.0894 36.4624 33.0894L103.854 33.0894Q113.882 33.0894 119.067 27.8549Q124.252 22.6204 124.252 12.5267L124.252-82.9369Q124.252-92.9977 119.067-98.2487Q113.882-103.5 103.854-103.5L36.4624-103.5Q26.4351-103.5 21.2498-98.2487Q16.0645-92.9977 16.0645-82.9369ZM28.4027 11.5242L28.4027-81.9344Q28.4027-86.4403 30.7076-88.8008Q33.0124-91.1613 37.6961-91.1613L102.621-91.1613Q107.304-91.1613 109.617-88.8008Q111.93-86.4403 111.93-81.9344L111.93 11.5242Q111.93 16.0301 109.617 18.3907Q107.304 20.7512 102.621 20.7512L37.6961 20.7512Q33.0124 20.7512 30.7076 18.3907Q28.4027 16.0301 28.4027 11.5242Z"/>
  </g>
  <g id="Medium-L" transform="matrix(1 0 0 1 1677.12 1556)">
   <path d="M45.8229-66.5344L93.0954-66.5344Q94.6487-66.5344 95.6779-67.5926Q96.7072-68.6508 96.7072-70.2034Q96.7072-71.698 95.6779-72.7074Q94.6487-73.7167 93.0954-73.7167L45.8229-73.7167Q44.2215-73.7167 43.1877-72.7074Q42.1539-71.698 42.1539-70.2034Q42.1539-68.6508 43.1877-67.5926Q44.2215-66.5344 45.8229-66.5344ZM45.8229-44.873L93.0954-44.873Q94.6487-44.873 95.6779-45.911Q96.7072-46.949 96.7072-48.5023Q96.7072-49.9969 95.6779-51.0105Q94.6487-52.0241 93.0954-52.0241L45.8229-52.0241Q44.2215-52.0241 43.1877-51.0105Q42.1539-49.9969 42.1539-48.5023Q42.1539-46.949 43.1877-45.911Q44.2215-44.873 45.8229-44.873ZM45.8229-23.172L68.7721-23.172Q70.3255-23.172 71.3589-24.1856Q72.3923-25.1991 72.3923-26.6945Q72.3923-28.2379 71.3589-29.3007Q70.3255-30.3635 68.7721-30.3635L45.8229-30.3635Q44.2215-30.3635 43.1877-29.3007Q42.1539-28.2379 42.1539-26.6945Q42.1539-25.1991 43.1877-24.1856Q44.2215-23.172 45.8229-23.172ZM16.0645 12.7693Q16.0645 22.5937 21.0445 27.6226Q26.0246 32.6515 35.7689 32.6515L103.093 32.6515Q112.837 32.6515 117.817 27.6226Q122.797 22.5937 122.797 12.7693L122.797-83.1795Q122.797-92.9642 117.817-98.0129Q112.837-103.062 103.093-103.062L35.7689-103.062Q26.0246-103.062 21.0445-98.0129Q16.0645-92.9642 16.0645-83.1795ZM26.799 12.117L26.799-82.5272Q26.799-87.3032 29.269-89.8151Q31.739-92.3271 36.6783-92.3271L102.183-92.3271Q107.122-92.3271 109.597-89.8151Q112.071-87.3032 112.071-82.5272L112.071 12.117Q112.071 16.893 109.597 19.405Q107.122 21.917 102.183 21.917L36.6783 21.917Q31.739 21.917 29.269 19.405Q26.799 16.893 26.799 12.117Z"/>
  </g>
  <g id="Regular-L" transform="matrix(1 0 0 1 1381.36 1556)">
   <path d="M44.0918-67.7734L92.9199-67.7734Q94.3848-67.7734 95.3613-68.7744Q96.3379-69.7754 96.3379-71.2402Q96.3379-72.6562 95.3613-73.6084Q94.3848-74.5605 92.9199-74.5605L44.0918-74.5605Q42.5781-74.5605 41.6016-73.6084Q40.625-72.6562 40.625-71.2402Q40.625-69.7754 41.6016-68.7744Q42.5781-67.7734 44.0918-67.7734ZM44.0918-45.752L92.9199-45.752Q94.3848-45.752 95.3613-46.7285Q96.3379-47.7051 96.3379-49.1699Q96.3379-50.5859 95.3613-51.5381Q94.3848-52.4902 92.9199-52.4902L44.0918-52.4902Q42.5781-52.4902 41.6016-51.5381Q40.625-50.5859 40.625-49.1699Q40.625-47.7051 41.6016-46.7285Q42.5781-45.752 44.0918-45.752ZM44.0918-23.6816L67.4805-23.6816Q68.9453-23.6816 69.9219-24.6338Q70.8984-25.5859 70.8984-27.002Q70.8984-28.4668 69.9219-29.4678Q68.9453-30.4688 67.4805-30.4688L44.0918-30.4688Q42.5781-30.4688 41.6016-29.4678Q40.625-28.4668 40.625-27.002Q40.625-25.5859 41.6016-24.6338Q42.5781-23.6816 44.0918-23.6816ZM16.0645 13.0859Q16.0645 22.5586 20.7764 27.3193Q25.4883 32.0801 34.8633 32.0801L102.1 32.0801Q111.475 32.0801 116.187 27.3193Q120.898 22.5586 120.898 13.0859L120.898-83.4961Q120.898-92.9199 116.187-97.7051Q111.475-102.49 102.1-102.49L34.8633-102.49Q25.4883-102.49 20.7764-97.7051Q16.0645-92.9199 16.0645-83.4961ZM24.707 12.8906L24.707-83.3008Q24.707-88.4277 27.3926-91.1377Q30.0781-93.8477 35.3516-93.8477L101.611-93.8477Q106.885-93.8477 109.57-91.1377Q112.256-88.4277 112.256-83.3008L112.256 12.8906Q112.256 18.0176 109.57 20.7275Q106.885 23.4375 101.611 23.4375L35.3516 23.4375Q30.0781 23.4375 27.3926 20.7275Q24.707 18.0176 24.707 12.8906Z"/>
  </g>
  <g id="Light-L" transform="matrix(1 0 0 1 1085.43 1556)">
   <path d="M42.5781-69.8166L92.8741-69.8166Q94.0521-69.8166 94.8467-70.6211Q95.6413-71.4256 95.6413-72.5876Q95.6413-73.716 94.8467-74.4938Q94.0521-75.2716 92.8741-75.2716L42.5781-75.2716Q41.3521-75.2716 40.5647-74.4938Q39.7774-73.716 39.7774-72.5876Q39.7774-71.4256 40.5647-70.6211Q41.3521-69.8166 42.5781-69.8166ZM42.5781-47.6746L92.8741-47.6746Q94.0521-47.6746 94.8467-48.4619Q95.6413-49.2493 95.6413-50.4112Q95.6413-51.5396 94.8467-52.3102Q94.0521-53.0807 92.8741-53.0807L42.5781-53.0807Q41.3521-53.0807 40.5647-52.3102Q39.7774-51.5396 39.7774-50.4112Q39.7774-49.2493 40.5647-48.4619Q41.3521-47.6746 42.5781-47.6746ZM42.5781-25.4829L67.0113-25.4829Q68.2037-25.4829 68.9987-26.2611Q69.7937-27.0393 69.7937-28.1677Q69.7937-29.3297 68.9987-30.1338Q68.2037-30.938 67.0113-30.938L42.5781-30.938Q41.3521-30.938 40.5647-30.1338Q39.7774-29.3297 39.7774-28.1677Q39.7774-27.0393 40.5647-26.2611Q41.3521-25.4829 42.5781-25.4829ZM16.0645 13.797Q16.0645 22.7097 20.5643 27.2358Q25.0641 31.7619 33.9096 31.7619L101.509 31.7619Q110.355 31.7619 114.847 27.2358Q119.34 22.7097 119.34 13.797L119.34-84.1316Q119.34-93.0107 114.847-97.5536Q110.355-102.097 101.509-102.097L33.9096-102.097Q25.0641-102.097 20.5643-97.5536Q16.0645-93.0107 16.0645-84.1316ZM22.6784 13.6169L22.6784-83.9516Q22.6784-89.6088 25.6062-92.5533Q28.5339-95.4979 34.2766-95.4979L101.142-95.4979Q106.87-95.4979 109.805-92.5533Q112.74-89.6088 112.74-83.9516L112.74 13.6169Q112.74 19.2589 109.805 22.2034Q106.87 25.148 101.142 25.148L34.2766 25.148Q28.5339 25.148 25.6062 22.2034Q22.6784 19.2589 22.6784 13.6169Z"/>
  </g>
  <g id="Thin-L" transform="matrix(1 0 0 1 789.751 1556)">
   <path d="M40.5762-72.5197L92.8146-72.5197Q93.6111-72.5197 94.1658-73.0637Q94.7205-73.6076 94.7205-74.369Q94.7205-75.1167 94.1658-75.6649Q93.6111-76.2131 92.8146-76.2131L40.5762-76.2131Q39.7308-76.2131 39.1937-75.6649Q38.6566-75.1167 38.6566-74.369Q38.6566-73.6076 39.1937-73.0637Q39.7308-72.5197 40.5762-72.5197ZM40.5762-50.2167L92.8146-50.2167Q93.6111-50.2167 94.1658-50.7538Q94.7205-51.2909 94.7205-52.0523Q94.7205-52.8008 94.1658-53.331Q93.6111-53.8612 92.8146-53.8612L40.5762-53.8612Q39.7308-53.8612 39.1937-53.331Q38.6566-52.8008 38.6566-52.0523Q38.6566-51.2909 39.1937-50.7538Q39.7308-50.2167 40.5762-50.2167ZM40.5762-27.8648L66.391-27.8648Q67.2226-27.8648 67.7773-28.413Q68.3319-28.9612 68.3319-29.7089Q68.3319-30.4703 67.7773-31.0143Q67.2226-31.5582 66.391-31.5582L40.5762-31.5582Q39.7308-31.5582 39.1937-31.0143Q38.6566-30.4703 38.6566-29.7089Q38.6566-28.9612 39.1937-28.413Q39.7308-27.8648 40.5762-27.8648ZM16.0645 14.7385Q16.0645 22.9103 20.2843 27.1259Q24.5041 31.3416 32.6485 31.3416L100.729 31.3416Q108.873 31.3416 113.075 27.1259Q117.278 22.9103 117.278 14.7385L117.278-84.9724Q117.278-93.1305 113.075-97.3534Q108.873-101.576 100.729-101.576L32.6485-101.576Q24.5041-101.576 20.2843-97.3534Q16.0645-93.1305 16.0645-84.9724ZM19.9966 14.5782L19.9966-84.8122Q19.9966-91.1697 23.2445-94.4248Q26.4923-97.6799 32.8552-97.6799L100.522-97.6799Q106.85-97.6799 110.115-94.4248Q113.381-91.1697 113.381-84.8122L113.381 14.5782Q113.381 20.9 110.115 24.155Q106.85 27.4101 100.522 27.4101L32.8552 27.4101Q26.4923 27.4101 23.2445 24.155Q19.9966 20.9 19.9966 14.5782Z"/>
  </g>
  <g id="Ultralight-L" transform="matrix(1 0 0 1 493.568 1556)">
   <path d="M39.5508-73.9037L92.7834-73.9037Q93.3861-73.9037 93.8175-74.3145Q94.249-74.7253 94.249-75.2815Q94.249-75.8347 93.8175-76.2646Q93.3861-76.6945 92.7834-76.6945L39.5508-76.6945Q38.9-76.6945 38.4911-76.2646Q38.0821-75.8347 38.0821-75.2815Q38.0821-74.7253 38.4911-74.3145Q38.9-73.9037 39.5508-73.9037ZM39.5508-51.519L92.7834-51.519Q93.3861-51.519 93.8175-51.9279Q94.249-52.3369 94.249-52.8938Q94.249-53.447 93.8175-53.854Q93.3861-54.261 92.7834-54.261L39.5508-54.261Q38.9-54.261 38.4911-53.854Q38.0821-53.447 38.0821-52.8938Q38.0821-52.3369 38.4911-51.9279Q38.9-51.519 39.5508-51.519ZM39.5508-29.0855L66.0728-29.0855Q66.7206-29.0855 67.152-29.5155Q67.5835-29.9454 67.5835-30.4985Q67.5835-31.0555 67.152-31.4659Q66.7206-31.8764 66.0728-31.8764L39.5508-31.8764Q38.9-31.8764 38.4911-31.4659Q38.0821-31.0555 38.0821-30.4985Q38.0821-29.9454 38.4911-29.5155Q38.9-29.0855 39.5508-29.0855ZM16.0645 15.2199Q16.0645 23.0125 20.1405 27.0695Q24.2165 31.1264 32.0023 31.1264L100.329 31.1264Q108.115 31.1264 112.168 27.0695Q116.221 23.0125 116.221 15.2199L116.221-85.4034Q116.221-93.1923 112.168-97.2511Q108.115-101.31 100.329-101.31L32.0023-101.31Q24.2165-101.31 20.1405-97.2511Q16.0645-93.1923 16.0645-85.4034ZM18.6218 15.0703L18.6218-85.2531Q18.6218-91.9701 22.0341-95.3838Q25.4463-98.7976 32.1274-98.7976L100.204-98.7976Q106.839-98.7976 110.274-95.3838Q113.709-91.9701 113.709-85.2531L113.709 15.0703Q113.709 21.7415 110.274 25.1553Q106.839 28.569 100.204 28.569L32.1274 28.569Q25.4463 28.569 22.0341 25.1553Q18.6218 21.7415 18.6218 15.0703Z"/>
  </g>
  <g id="Black-M" transform="matrix(1 0 0 1 2875.44 1126)">
   <path d="M43.0176-54.3945L72.9492-54.3945Q74.4629-54.3945 75.4639-55.4199Q76.4648-56.4453 76.4648-57.959Q76.4648-59.4238 75.4639-60.4004Q74.4629-61.377 72.9492-61.377L43.0176-61.377Q41.5039-61.377 40.5029-60.4004Q39.502-59.4238 39.502-57.959Q39.502-56.4453 40.5029-55.4199Q41.5039-54.3945 43.0176-54.3945ZM43.0176-39.2578L72.9492-39.2578Q74.4629-39.2578 75.4639-40.2832Q76.4648-41.3086 76.4648-42.8223Q76.4648-44.2871 75.4639-45.2637Q74.4629-46.2402 72.9492-46.2402L43.0176-46.2402Q41.5039-46.2402 40.5029-45.2637Q39.502-44.2871 39.502-42.8223Q39.502-41.3086 40.5029-40.2832Q41.5039-39.2578 43.0176-39.2578ZM43.0176-24.1699L59.1797-24.1699Q60.6934-24.1699 61.6699-25.1465Q62.6465-26.123 62.6465-27.5879Q62.6465-29.0527 61.6699-30.0781Q60.6934-31.1035 59.1797-31.1035L43.0176-31.1035Q41.5039-31.1035 40.5029-30.0781Q39.502-29.0527 39.502-27.5879Q39.502-26.123 40.5029-25.1465Q41.5039-24.1699 43.0176-24.1699ZM12.4512 0.732422Q12.4512 9.81445 17.4805 14.8682Q22.5098 19.9219 31.5918 19.9219L84.3262 19.9219Q93.4082 19.9219 98.4375 14.8682Q103.467 9.81445 103.467 0.732422L103.467-71.1426Q103.467-80.2246 98.4375-85.2783Q93.4082-90.332 84.3262-90.332L31.5918-90.332Q22.5098-90.332 17.4805-85.2783Q12.4512-80.2246 12.4512-71.1426ZM29.7852-1.9043L29.7852-68.5059Q29.7852-70.752 30.8105-71.875Q31.8359-72.998 34.2773-72.998L81.6895-72.998Q84.082-72.998 85.1074-71.875Q86.1328-70.752 86.1328-68.5059L86.1328-1.9043Q86.1328 0.341797 85.1074 1.46484Q84.082 2.58789 81.6895 2.58789L34.2773 2.58789Q31.8359 2.58789 30.8105 1.46484Q29.7852 0.341797 29.7852-1.9043Z"/>
  </g>
  <g id="Heavy-M" transform="matrix(1 0 0 1 2579.78 1126)">
   <path d="M41.1278-55.5588L72.7417-55.5588Q74.1982-55.5588 75.1644-56.5495Q76.1307-57.5401 76.1307-58.9958Q76.1307-60.4149 75.1644-61.3628Q74.1982-62.3108 72.7417-62.3108L41.1278-62.3108Q39.6599-62.3108 38.6936-61.3628Q37.7274-60.4149 37.7274-58.9958Q37.7274-57.5401 38.6936-56.5495Q39.6599-55.5588 41.1278-55.5588ZM41.1278-39.9727L72.7417-39.9727Q74.1982-39.9727 75.1644-40.9634Q76.1307-41.954 76.1307-43.4097Q76.1307-44.8288 75.1644-45.7764Q74.1982-46.7239 72.7417-46.7239L41.1278-46.7239Q39.6599-46.7239 38.6936-45.7764Q37.7274-44.8288 37.7274-43.4097Q37.7274-41.954 38.6936-40.9634Q39.6599-39.9727 41.1278-39.9727ZM41.1278-24.4232L57.6126-24.4232Q59.0797-24.4232 60.0277-25.3712Q60.9756-26.3191 60.9756-27.726Q60.9756-29.1565 60.0277-30.1472Q59.0797-31.1378 57.6126-31.1378L41.1278-31.1378Q39.6599-31.1378 38.6936-30.1472Q37.7274-29.1565 37.7274-27.726Q37.7274-26.3191 38.6936-25.3712Q39.6599-24.4232 41.1278-24.4232ZM12.4512 0.985718Q12.4512 9.73358 17.1867 14.4936Q21.9223 19.2535 30.6465 19.2535L83.1734 19.2535Q91.8983 19.2535 96.6339 14.4936Q101.369 9.73358 101.369 0.985718L101.369-71.4073Q101.369-80.1437 96.6339-84.9152Q91.8983-89.6866 83.1734-89.6866L30.6465-89.6866Q21.9223-89.6866 17.1867-84.9152Q12.4512-80.1437 12.4512-71.4073ZM27.5497-1.06277L27.5497-69.3588Q27.5497-71.9391 28.788-73.2639Q30.0262-74.5888 32.7904-74.5888L81.0669-74.5888Q83.7936-74.5888 85.0323-73.2639Q86.2709-71.9391 86.2709-69.3588L86.2709-1.06277Q86.2709 1.51749 85.0323 2.83623Q83.7936 4.15497 81.0669 4.15497L32.7904 4.15497Q30.0262 4.15497 28.788 2.83623Q27.5497 1.51749 27.5497-1.06277Z"/>
  </g>
  <g id="Bold-M" transform="matrix(1 0 0 1 2284.24 1126)">
   <path d="M39.0137-56.8604L72.5098-56.8604Q73.9014-56.8604 74.8291-57.8125Q75.7568-58.7646 75.7568-60.1562Q75.7568-61.5234 74.8291-62.439Q73.9014-63.3545 72.5098-63.3545L39.0137-63.3545Q37.5977-63.3545 36.6699-62.439Q35.7422-61.5234 35.7422-60.1562Q35.7422-58.7646 36.6699-57.8125Q37.5977-56.8604 39.0137-56.8604ZM39.0137-40.7715L72.5098-40.7715Q73.9014-40.7715 74.8291-41.7236Q75.7568-42.6758 75.7568-44.0674Q75.7568-45.4346 74.8291-46.3501Q73.9014-47.2656 72.5098-47.2656L39.0137-47.2656Q37.5977-47.2656 36.6699-46.3501Q35.7422-45.4346 35.7422-44.0674Q35.7422-42.6758 36.6699-41.7236Q37.5977-40.7715 39.0137-40.7715ZM39.0137-24.707L55.8594-24.707Q57.2754-24.707 58.1909-25.6226Q59.1064-26.5381 59.1064-27.8809Q59.1064-29.2725 58.1909-30.2246Q57.2754-31.1768 55.8594-31.1768L39.0137-31.1768Q37.5977-31.1768 36.6699-30.2246Q35.7422-29.2725 35.7422-27.8809Q35.7422-26.5381 36.6699-25.6226Q37.5977-24.707 39.0137-24.707ZM12.4512 1.26953Q12.4512 9.64355 16.8579 14.0747Q21.2646 18.5059 29.5898 18.5059L81.8848 18.5059Q90.21 18.5059 94.6167 14.0747Q99.0234 9.64355 99.0234 1.26953L99.0234-71.7041Q99.0234-80.0537 94.6167-84.5093Q90.21-88.9648 81.8848-88.9648L29.5898-88.9648Q21.2646-88.9648 16.8579-84.5093Q12.4512-80.0537 12.4512-71.7041ZM25.0488-0.12207L25.0488-70.3125Q25.0488-73.2666 26.5259-74.8169Q28.0029-76.3672 31.1279-76.3672L80.3711-76.3672Q83.4717-76.3672 84.9487-74.8169Q86.4258-73.2666 86.4258-70.3125L86.4258-0.12207Q86.4258 2.83203 84.9487 4.37012Q83.4717 5.9082 80.3711 5.9082L31.1279 5.9082Q28.0029 5.9082 26.5259 4.37012Q25.0488 2.83203 25.0488-0.12207Z"/>
  </g>
  <g id="Semibold-M" transform="matrix(1 0 0 1 1988.34 1126)">
   <path d="M37.5565-57.7576L72.3495-57.7576Q73.6969-57.7576 74.5979-58.6834Q75.499-59.6092 75.499-60.9558Q75.499-62.2879 74.5979-63.1813Q73.6969-64.0747 72.3495-64.0747L37.5565-64.0747Q36.1755-64.0747 35.2745-63.1813Q34.3735-62.2879 34.3735-60.9558Q34.3735-59.6092 35.2745-58.6834Q36.1755-57.7576 37.5565-57.7576ZM37.5565-41.3223L72.3495-41.3223Q73.6969-41.3223 74.5979-42.2478Q75.499-43.1732 75.499-44.5206Q75.499-45.8519 74.5979-46.7453Q73.6969-47.6387 72.3495-47.6387L37.5565-47.6387Q36.1755-47.6387 35.2745-46.7453Q34.3735-45.8519 34.3735-44.5206Q34.3735-43.1732 35.2745-42.2478Q36.1755-41.3223 37.5565-41.3223ZM37.5565-24.9023L54.6509-24.9023Q56.031-24.9023 56.9244-25.7957Q57.8178-26.6891 57.8178-27.9877Q57.8178-29.3526 56.9244-30.278Q56.031-31.2035 54.6509-31.2035L37.5565-31.2035Q36.1755-31.2035 35.2745-30.278Q34.3735-29.3526 34.3735-27.9877Q34.3735-26.6891 35.2745-25.7957Q36.1755-24.9023 37.5565-24.9023ZM12.4512 1.46484Q12.4512 9.58099 16.6313 13.7856Q20.8115 17.9901 28.8612 17.9901L80.9959 17.9901Q89.0457 17.9901 93.2259 13.7856Q97.406 9.58099 97.406 1.46484L97.406-71.9086Q97.406-79.9911 93.2259-84.2293Q89.0457-88.4674 80.9959-88.4674L28.8612-88.4674Q20.8115-88.4674 16.6313-84.2293Q12.4512-79.9911 12.4512-71.9086ZM23.3246 0.526428L23.3246-70.9702Q23.3246-74.1821 24.966-75.8877Q26.6075-77.5932 29.9812-77.5932L79.8912-77.5932Q83.2497-77.5932 84.8911-75.8877Q86.5326-74.1821 86.5326-70.9702L86.5326 0.526428Q86.5326 3.7384 84.8911 5.42755Q83.2497 7.1167 79.8912 7.1167L29.9812 7.1167Q26.6075 7.1167 24.966 5.42755Q23.3246 3.7384 23.3246 0.526428Z"/>
  </g>
  <g id="Medium-M" transform="matrix(1 0 0 1 1692.24 1126)">
   <path d="M36.451-58.4389L72.2282-58.4389Q73.542-58.4389 74.4228-59.3441Q75.3036-60.2493 75.3036-61.5623Q75.3036-62.867 74.4228-63.7436Q73.542-64.6202 72.2282-64.6202L36.451-64.6202Q35.0975-64.6202 34.2167-63.7436Q33.3359-62.867 33.3359-61.5623Q33.3359-60.2493 34.2167-59.3441Q35.0975-58.4389 36.451-58.4389ZM36.451-41.7404L72.2282-41.7404Q73.542-41.7404 74.4228-42.6456Q75.3036-43.5509 75.3036-44.8647Q75.3036-46.1693 74.4228-47.0455Q73.542-47.9218 72.2282-47.9218L36.451-47.9218Q35.0975-47.9218 34.2167-47.0455Q33.3359-46.1693 33.3359-44.8647Q33.3359-43.5509 34.2167-42.6456Q35.0975-41.7404 36.451-41.7404ZM36.451-25.0511L53.7346-25.0511Q55.088-25.0511 55.9643-25.9274Q56.8405-26.8036 56.8405-28.0685Q56.8405-29.4128 55.9643-30.3181Q55.088-31.2233 53.7346-31.2233L36.451-31.2233Q35.0975-31.2233 34.2167-30.3181Q33.3359-29.4128 33.3359-28.0685Q33.3359-26.8036 34.2167-25.9274Q35.0975-25.0511 36.451-25.0511ZM12.4512 1.61362Q12.4512 9.53445 16.4593 13.567Q20.4674 17.5995 28.3089 17.5995L80.3223 17.5995Q88.163 17.5995 92.1715 13.567Q96.18 9.53445 96.18 1.61362L96.18-72.0634Q96.18-79.9446 92.1715-84.0172Q88.163-88.0898 80.3223-88.0898L28.3089-88.0898Q20.4674-88.0898 16.4593-84.0172Q12.4512-79.9446 12.4512-72.0634ZM22.0177 1.01852L22.0177-71.4691Q22.0177-74.8756 23.7839-76.6994Q25.5501-78.5233 29.1122-78.5233L79.5273-78.5233Q83.0811-78.5233 84.8473-76.6994Q86.6135-74.8756 86.6135-71.4691L86.6135 1.01852Q86.6135 4.42581 84.8473 6.2294Q83.0811 8.03299 79.5273 8.03299L29.1122 8.03299Q25.5501 8.03299 23.7839 6.2294Q22.0177 4.42581 22.0177 1.01852Z"/>
  </g>
  <g id="Regular-M" transform="matrix(1 0 0 1 1396.33 1126)">
   <path d="M35.0098-59.3262L72.0703-59.3262Q73.3398-59.3262 74.1943-60.2051Q75.0488-61.084 75.0488-62.3535Q75.0488-63.623 74.1943-64.4775Q73.3398-65.332 72.0703-65.332L35.0098-65.332Q33.6914-65.332 32.8369-64.4775Q31.9824-63.623 31.9824-62.3535Q31.9824-61.084 32.8369-60.2051Q33.6914-59.3262 35.0098-59.3262ZM35.0098-42.2852L72.0703-42.2852Q73.3398-42.2852 74.1943-43.1641Q75.0488-44.043 75.0488-45.3125Q75.0488-46.582 74.1943-47.4365Q73.3398-48.291 72.0703-48.291L35.0098-48.291Q33.6914-48.291 32.8369-47.4365Q31.9824-46.582 31.9824-45.3125Q31.9824-44.043 32.8369-43.1641Q33.6914-42.2852 35.0098-42.2852ZM35.0098-25.2441L52.5391-25.2441Q53.8574-25.2441 54.7119-26.0986Q55.5664-26.9531 55.5664-28.1738Q55.5664-29.4922 54.7119-30.3711Q53.8574-31.25 52.5391-31.25L35.0098-31.25Q33.6914-31.25 32.8369-30.3711Q31.9824-29.4922 31.9824-28.1738Q31.9824-26.9531 32.8369-26.0986Q33.6914-25.2441 35.0098-25.2441ZM12.4512 1.80664Q12.4512 9.47266 16.2354 13.2812Q20.0195 17.0898 27.5879 17.0898L79.4434 17.0898Q87.0117 17.0898 90.7959 13.2812Q94.5801 9.47266 94.5801 1.80664L94.5801-72.2656Q94.5801-79.8828 90.7959-83.7402Q87.0117-87.5977 79.4434-87.5977L27.5879-87.5977Q20.0195-87.5977 16.2354-83.7402Q12.4512-79.8828 12.4512-72.2656ZM20.3125 1.66016L20.3125-72.1191Q20.3125-75.7812 22.2412-77.7588Q24.1699-79.7363 27.9785-79.7363L79.0527-79.7363Q82.8613-79.7363 84.79-77.7588Q86.7188-75.7812 86.7188-72.1191L86.7188 1.66016Q86.7188 5.32227 84.79 7.27539Q82.8613 9.22852 79.0527 9.22852L27.9785 9.22852Q24.1699 9.22852 22.2412 7.27539Q20.3125 5.32227 20.3125 1.66016Z"/>
  </g>
  <g id="Light-M" transform="matrix(1 0 0 1 1100.31 1126)">
   <path d="M33.6624-61.1427L72.01-61.1427Q73.037-61.1427 73.7328-61.8473Q74.4286-62.5519 74.4286-63.5643Q74.4286-64.5767 73.7328-65.2645Q73.037-65.9523 72.01-65.9523L33.6624-65.9523Q32.6019-65.9523 31.9061-65.2645Q31.2103-64.5767 31.2103-63.5643Q31.2103-62.5519 31.9061-61.8473Q32.6019-61.1427 33.6624-61.1427ZM33.6624-44.0109L72.01-44.0109Q73.037-44.0109 73.7328-44.7155Q74.4286-45.4201 74.4286-46.4325Q74.4286-47.4449 73.7328-48.1327Q73.037-48.8205 72.01-48.8205L33.6624-48.8205Q32.6019-48.8205 31.9061-48.1327Q31.2103-47.4449 31.2103-46.4325Q31.2103-45.4201 31.9061-44.7155Q32.6019-44.0109 33.6624-44.0109ZM33.6624-26.8639L52.1301-26.8639Q53.1914-26.8639 53.8868-27.5517Q54.5822-28.2394 54.5822-29.2183Q54.5822-30.2643 53.8868-30.9692Q53.1914-31.6742 52.1301-31.6742L33.6624-31.6742Q32.6019-31.6742 31.9061-30.9692Q31.2103-30.2643 31.2103-29.2183Q31.2103-28.2394 31.9061-27.5517Q32.6019-26.8639 33.6624-26.8639ZM12.4512 2.44217Q12.4512 9.60922 16.0385 13.2133Q19.6259 16.8175 26.725 16.8175L78.9139 16.8175Q86.013 16.8175 89.6004 13.2133Q93.1877 9.60922 93.1877 2.44217L93.1877-72.8409Q93.1877-79.9736 89.6004-83.6117Q86.013-87.2498 78.9139-87.2498L26.725-87.2498Q19.6259-87.2498 16.0385-83.6117Q12.4512-79.9736 12.4512-72.8409ZM18.4959 2.31094L18.4959-72.7097Q18.4959-76.841 20.6444-79.0226Q22.7928-81.2042 27.0248-81.2042L78.614-81.2042Q82.8461-81.2042 84.9945-79.0226Q87.1429-76.841 87.1429-72.7097L87.1429 2.31094Q87.1429 6.44226 84.9945 8.60748Q82.8461 10.7727 78.614 10.7727L27.0248 10.7727Q22.7928 10.7727 20.6444 8.60748Q18.4959 6.44226 18.4959 2.31094Z"/>
  </g>
  <g id="Thin-M" transform="matrix(1 0 0 1 804.524 1126)">
   <path d="M31.881-63.5445L71.9299-63.5445Q72.6364-63.5445 73.122-64.0194Q73.6076-64.4943 73.6076-65.1657Q73.6076-65.8379 73.122-66.3055Q72.6364-66.7732 71.9299-66.7732L31.881-66.7732Q31.16-66.7732 30.6747-66.3055Q30.1895-65.8379 30.1895-65.1657Q30.1895-64.4943 30.6747-64.0194Q31.16-63.5445 31.881-63.5445ZM31.881-46.2929L71.9299-46.2929Q72.6364-46.2929 73.122-46.7674Q73.6076-47.242 73.6076-47.9141Q73.6076-48.5855 73.122-49.0536Q72.6364-49.5216 71.9299-49.5216L31.881-49.5216Q31.16-49.5216 30.6747-49.0536Q30.1895-48.5855 30.1895-47.9141Q30.1895-47.242 30.6747-46.7674Q31.16-46.2929 31.881-46.2929ZM31.881-29.0054L51.59-29.0054Q52.3109-29.0054 52.7962-29.4735Q53.2814-29.9416 53.2814-30.5992Q53.2814-31.2851 52.7962-31.7596Q52.3109-32.2342 51.59-32.2342L31.881-32.2342Q31.16-32.2342 30.6747-31.7596Q30.1895-31.2851 30.1895-30.5992Q30.1895-29.9416 30.6747-29.4735Q31.16-29.0054 31.881-29.0054ZM12.4512 3.28293Q12.4512 9.78928 15.7784 13.1233Q19.1055 16.4574 25.5844 16.4574L78.2127 16.4574Q84.6916 16.4574 88.0188 13.1233Q91.346 9.78928 91.346 3.28293L91.346-73.6015Q91.346-80.0934 88.0188-83.4412Q84.6916-86.7889 78.2127-86.7889L25.5844-86.7889Q19.1055-86.7889 15.7784-83.4412Q12.4512-80.0934 12.4512-73.6015ZM16.0942 3.17154L16.0942-73.4901Q16.0942-78.2417 18.5326-80.6942Q20.9709-83.1467 25.7637-83.1467L78.0334-83.1467Q82.8262-83.1467 85.2646-80.6942Q87.7029-78.2417 87.7029-73.4901L87.7029 3.17154Q87.7029 7.92389 85.2646 10.3691Q82.8262 12.8143 78.0334 12.8143L25.7637 12.8143Q20.9709 12.8143 18.5326 10.3691Q16.0942 7.92389 16.0942 3.17154Z"/>
  </g>
  <g id="Ultralight-M" transform="matrix(1 0 0 1 508.284 1126)">
   <path d="M30.9685-64.7751L71.8887-64.7751Q72.4319-64.7751 72.8096-65.1318Q73.1873-65.4884 73.1873-65.9866Q73.1873-66.4841 72.8096-66.8388Q72.4319-67.1936 71.8887-67.1936L30.9685-67.1936Q30.4222-67.1936 30.0446-66.8388Q29.6669-66.4841 29.6669-65.9866Q29.6669-65.4884 30.0446-65.1318Q30.4222-64.7751 30.9685-64.7751ZM30.9685-47.4617L71.8887-47.4617Q72.4319-47.4617 72.8096-47.8184Q73.1873-48.175 73.1873-48.6725Q73.1873-49.1707 72.8096-49.5255Q72.4319-49.8802 71.8887-49.8802L30.9685-49.8802Q30.4222-49.8802 30.0446-49.5255Q29.6669-49.1707 29.6669-48.6725Q29.6669-48.175 30.0446-47.8184Q30.4222-47.4617 30.9685-47.4617ZM30.9685-30.1033L51.313-30.1033Q51.8593-30.1033 52.2369-30.4581Q52.6146-30.8128 52.6146-31.3072Q52.6146-31.8077 52.2369-32.1648Q51.8593-32.5218 51.313-32.5218L30.9685-32.5218Q30.4222-32.5218 30.0446-32.1648Q29.6669-31.8077 29.6669-31.3072Q29.6669-30.8128 30.0446-30.4581Q30.4222-30.1033 30.9685-30.1033ZM12.4512 3.71399Q12.4512 9.88159 15.6448 13.0772Q18.8385 16.2727 24.9992 16.2727L77.8542 16.2727Q84.0149 16.2727 87.2086 13.0772Q90.4022 9.88159 90.4022 3.71399L90.4022-73.9914Q90.4022-80.1552 87.2086-83.3542Q84.0149-86.5532 77.8542-86.5532L24.9992-86.5532Q18.8385-86.5532 15.6448-83.3542Q12.4512-80.1552 12.4512-73.9914ZM14.8636 3.61252L14.8636-73.8899Q14.8636-78.9597 17.4507-81.5502Q20.0378-84.1408 25.1175-84.1408L77.7359-84.1408Q82.8156-84.1408 85.4031-81.5502Q87.9906-78.9597 87.9906-73.8899L87.9906 3.61252Q87.9906 8.68225 85.4031 11.2713Q82.8156 13.8603 77.7359 13.8603L25.1175 13.8603Q20.0378 13.8603 17.4507 11.2713Q14.8636 8.68225 14.8636 3.61252Z"/>
  </g>
  <g id="Black-S" transform="matrix(1 0 0 1 2887.7 696)">
   <path d="M34.2285-50L57.2266-50Q58.3984-50 59.1797-50.8057Q59.9609-51.6113 59.9609-52.7832Q59.9609-53.9062 59.1797-54.6875Q58.3984-55.4688 57.2266-55.4688L34.2285-55.4688Q33.0078-55.4688 32.2266-54.6875Q31.4453-53.9062 31.4453-52.7832Q31.4453-51.6113 32.2266-50.8057Q33.0078-50 34.2285-50ZM34.2285-38.2812L57.2266-38.2812Q58.3984-38.2812 59.1797-39.0869Q59.9609-39.8926 59.9609-41.0645Q59.9609-42.1875 59.1797-42.9688Q58.3984-43.75 57.2266-43.75L34.2285-43.75Q33.0078-43.75 32.2266-42.9688Q31.4453-42.1875 31.4453-41.0645Q31.4453-39.8926 32.2266-39.0869Q33.0078-38.2812 34.2285-38.2812ZM34.2285-26.5625L46.8262-26.5625Q47.998-26.5625 48.7793-27.3438Q49.5605-28.125 49.5605-29.248Q49.5605-30.4199 48.7793-31.2256Q47.998-32.0312 46.8262-32.0312L34.2285-32.0312Q33.0078-32.0312 32.2266-31.2256Q31.4453-30.4199 31.4453-29.248Q31.4453-28.125 32.2266-27.3438Q33.0078-26.5625 34.2285-26.5625ZM9.76562-7.08008Q9.76562 0.0976562 13.7939 4.12598Q17.8223 8.1543 25 8.1543L66.4062 8.1543Q73.584 8.1543 77.6123 4.12598Q81.6406 0.0976562 81.6406-7.08008L81.6406-63.3301Q81.6406-70.5078 77.6123-74.5361Q73.584-78.5645 66.4062-78.5645L25-78.5645Q17.8223-78.5645 13.7939-74.5361Q9.76562-70.5078 9.76562-63.3301ZM23.9258-9.32617L23.9258-61.084Q23.9258-62.793 24.6826-63.5986Q25.4395-64.4043 27.2461-64.4043L64.1602-64.4043Q66.0156-64.4043 66.748-63.5986Q67.4805-62.793 67.4805-61.084L67.4805-9.32617Q67.4805-7.66602 66.748-6.83594Q66.0156-6.00586 64.1602-6.00586L27.2461-6.00586Q25.4395-6.00586 24.6826-6.83594Q23.9258-7.66602 23.9258-9.32617Z"/>
  </g>
  <g id="Heavy-S" transform="matrix(1 0 0 1 2591.79 696)">
   <path d="M32.7881-50.7607L57.0534-50.7607Q58.2138-50.7607 58.9893-51.5606Q59.7649-52.3605 59.7649-53.521Q59.7649-54.6326 58.9893-55.4081Q58.2138-56.1836 57.0534-56.1836L32.7881-56.1836Q31.5788-56.1836 30.8033-55.4081Q30.0278-54.6326 30.0278-53.521Q30.0278-52.3605 30.8033-51.5606Q31.5788-50.7607 32.7881-50.7607ZM32.7881-38.6612L57.0534-38.6612Q58.2138-38.6612 58.9893-39.4611Q59.7649-40.2611 59.7649-41.433Q59.7649-42.5446 58.9893-43.3201Q58.2138-44.0956 57.0534-44.0956L32.7881-44.0956Q31.5788-44.0956 30.8033-43.3201Q30.0278-42.5446 30.0278-41.433Q30.0278-40.2611 30.8033-39.4611Q31.5788-38.6612 32.7881-38.6612ZM32.7881-26.5739L45.5467-26.5739Q46.7072-26.5739 47.4827-27.3495Q48.2582-28.125 48.2582-29.2366Q48.2582-30.397 47.4827-31.197Q46.7072-31.9969 45.5467-31.9969L32.7881-31.9969Q31.5788-31.9969 30.8033-31.197Q30.0278-30.397 30.0278-29.2366Q30.0278-28.125 30.8033-27.3495Q31.5788-26.5739 32.7881-26.5739ZM9.76562-6.95343Q9.76562 0.00534058 13.5635 3.8147Q17.3615 7.62405 24.2973 7.62405L65.4846 7.62405Q72.4197 7.62405 76.2234 3.8147Q80.027 0.00534058 80.027-6.95343L80.027-63.4796Q80.027-70.4269 76.2234-74.242Q72.4197-78.0571 65.4846-78.0571L24.2973-78.0571Q17.3615-78.0571 13.5635-74.242Q9.76562-70.4269 9.76562-63.4796ZM22.2435-8.69217L22.2435-61.7409Q22.2435-63.6688 23.1556-64.6244Q24.0677-65.58 26.1055-65.58L63.6879-65.58Q65.7509-65.58 66.6447-64.6244Q67.5385-63.6688 67.5385-61.7409L67.5385-8.69217Q67.5385-6.80161 66.6447-5.82733Q65.7509-4.85306 63.6879-4.85306L26.1055-4.85306Q24.0677-4.85306 23.1556-5.82733Q22.2435-6.80161 22.2435-8.69217Z"/>
  </g>
  <g id="Bold-S" transform="matrix(1 0 0 1 2295.98 696)">
   <path d="M31.1768-51.6113L56.8604-51.6113Q58.0078-51.6113 58.7769-52.4048Q59.5459-53.1982 59.5459-54.3457Q59.5459-55.4443 58.7769-56.2134Q58.0078-56.9824 56.8604-56.9824L31.1768-56.9824Q29.9805-56.9824 29.2114-56.2134Q28.4424-55.4443 28.4424-54.3457Q28.4424-53.1982 29.2114-52.4048Q29.9805-51.6113 31.1768-51.6113ZM31.1768-39.0869L56.8604-39.0869Q58.0078-39.0869 58.7769-39.8804Q59.5459-40.6738 59.5459-41.8457Q59.5459-42.9443 58.7769-43.7134Q58.0078-44.4824 56.8604-44.4824L31.1768-44.4824Q29.9805-44.4824 29.2114-43.7134Q28.4424-42.9443 28.4424-41.8457Q28.4424-40.6738 29.2114-39.8804Q29.9805-39.0869 31.1768-39.0869ZM31.1768-26.5869L44.1162-26.5869Q45.2637-26.5869 46.0327-27.356Q46.8018-28.125 46.8018-29.2236Q46.8018-30.3711 46.0327-31.1646Q45.2637-31.958 44.1162-31.958L31.1768-31.958Q29.9805-31.958 29.2114-31.1646Q28.4424-30.3711 28.4424-29.2236Q28.4424-28.125 29.2114-27.356Q29.9805-26.5869 31.1768-26.5869ZM9.76562-6.81152Q9.76562-0.0976562 13.3057 3.4668Q16.8457 7.03125 23.5107 7.03125L64.4531 7.03125Q71.1182 7.03125 74.6704 3.4668Q78.2227-0.0976562 78.2227-6.81152L78.2227-63.6475Q78.2227-70.3369 74.6704-73.9136Q71.1182-77.4902 64.4531-77.4902L23.5107-77.4902Q16.8457-77.4902 13.3057-73.9136Q9.76562-70.3369 9.76562-63.6475ZM20.3613-7.9834L20.3613-62.4756Q20.3613-64.6484 21.4478-65.7715Q22.5342-66.8945 24.8291-66.8945L63.1592-66.8945Q65.4541-66.8945 66.5283-65.7715Q67.6025-64.6484 67.6025-62.4756L67.6025-7.9834Q67.6025-5.83496 66.5283-4.69971Q65.4541-3.56445 63.1592-3.56445L24.8291-3.56445Q22.5342-3.56445 21.4478-4.69971Q20.3613-5.83496 20.3613-7.9834Z"/>
  </g>
  <g id="Semibold-S" transform="matrix(1 0 0 1 1999.89 696)">
   <path d="M30.0659-52.198L56.7268-52.198Q57.8659-52.198 58.6304-52.9869Q59.3948-53.7758 59.3948-54.9149Q59.3948-56.0043 58.6304-56.7688Q57.8659-57.5333 56.7268-57.5333L30.0659-57.5333Q28.8788-57.5333 28.1139-56.7688Q27.3491-56.0043 27.3491-54.9149Q27.3491-53.7758 28.1139-52.9869Q28.8788-52.198 30.0659-52.198ZM30.0659-39.3799L56.7268-39.3799Q57.8659-39.3799 58.6304-40.1691Q59.3948-40.9584 59.3948-42.1303Q59.3948-43.2198 58.6304-43.9842Q57.8659-44.7487 56.7268-44.7487L30.0659-44.7487Q28.8788-44.7487 28.1139-43.9842Q27.3491-43.2198 27.3491-42.1303Q27.3491-40.9584 28.1139-40.1691Q28.8788-39.3799 30.0659-39.3799ZM30.0659-26.5961L43.1297-26.5961Q44.268-26.5961 45.0329-27.3605Q45.7977-28.125 45.7977-29.2145Q45.7977-30.3535 45.0329-31.1424Q44.268-31.9313 43.1297-31.9313L30.0659-31.9313Q28.8788-31.9313 28.1139-31.1424Q27.3491-30.3535 27.3491-29.2145Q27.3491-28.125 28.1139-27.3605Q28.8788-26.5961 30.0659-26.5961ZM9.76562-6.71387Q9.76562-0.16861 13.1279 3.22685Q16.4902 6.62231 22.9683 6.62231L63.7421 6.62231Q70.2209 6.62231 73.5996 3.22685Q76.9783-0.16861 76.9783-6.71387L76.9783-63.7627Q76.9783-70.2744 73.5996-73.6866Q70.2209-77.0988 63.7421-77.0988L22.9683-77.0988Q16.4902-77.0988 13.1279-73.6866Q9.76562-70.2744 9.76562-63.7627ZM19.0636-7.49435L19.0636-62.9822Q19.0636-65.3236 20.2702-66.5623Q21.4767-67.8009 23.9494-67.8009L62.7945-67.8009Q65.2496-67.8009 66.4482-66.5623Q67.6468-65.3236 67.6468-62.9822L67.6468-7.49435Q67.6468-5.16815 66.4482-3.92189Q65.2496-2.67563 62.7945-2.67563L23.9494-2.67563Q21.4767-2.67563 20.2702-3.92189Q19.0636-5.16815 19.0636-7.49435Z"/>
  </g>
  <g id="Medium-S" transform="matrix(1 0 0 1 1703.66 696)">
   <path d="M29.2236-52.6428L56.6261-52.6428Q57.7576-52.6428 58.519-53.4283Q59.2804-54.2137 59.2804-55.3459Q59.2804-56.4285 58.519-57.1899Q57.7576-57.9514 56.6261-57.9514L29.2236-57.9514Q28.0426-57.9514 27.2816-57.1899Q26.5205-56.4285 26.5205-55.3459Q26.5205-54.2137 27.2816-53.4283Q28.0426-52.6428 29.2236-52.6428ZM29.2236-39.6027L56.6261-39.6027Q57.7576-39.6027 58.519-40.3881Q59.2804-41.1736 59.2804-42.3454Q59.2804-43.4288 58.519-44.1898Q57.7576-44.9509 56.6261-44.9509L29.2236-44.9509Q28.0426-44.9509 27.2816-44.1898Q26.5205-43.4288 26.5205-42.3454Q26.5205-41.1736 27.2816-40.3881Q28.0426-39.6027 29.2236-39.6027ZM29.2236-26.6022L42.382-26.6022Q43.5135-26.6022 44.2749-27.3636Q45.0363-28.125 45.0363-29.2084Q45.0363-30.3398 44.2749-31.1256Q43.5135-31.9115 42.382-31.9115L29.2236-31.9115Q28.0426-31.9115 27.2816-31.1256Q26.5205-30.3398 26.5205-29.2084Q26.5205-28.125 27.2816-27.3636Q28.0426-26.6022 29.2236-26.6022ZM9.76562-6.63986Q9.76562-0.222778 12.9932 3.04489Q16.2209 6.31256 22.5578 6.31256L63.2034 6.31256Q69.5396 6.31256 72.7875 3.04489Q76.0353-0.222778 76.0353-6.63986L76.0353-63.8504Q76.0353-70.2278 72.7875-73.5153Q69.5396-76.8028 63.2034-76.8028L22.5578-76.8028Q16.2209-76.8028 12.9932-73.5153Q9.76562-70.2278 9.76562-63.8504ZM18.0801-7.12433L18.0801-63.3659Q18.0801-65.8363 19.3775-67.1623Q20.6749-68.4883 23.2819-68.4883L62.5183-68.4883Q65.0948-68.4883 66.3876-67.1623Q67.6804-65.8363 67.6804-63.3659L67.6804-7.12433Q67.6804-4.66309 66.3876-3.33252Q65.0948-2.00195 62.5183-2.00195L23.2819-2.00195Q20.6749-2.00195 19.3775-3.33252Q18.0801-4.66309 18.0801-7.12433Z"/>
  </g>
  <g id="Regular-S" transform="matrix(1 0 0 1 1407.56 696)">
   <path d="M28.125-53.2227L56.4941-53.2227Q57.6172-53.2227 58.374-54.0039Q59.1309-54.7852 59.1309-55.9082Q59.1309-56.9824 58.374-57.7393Q57.6172-58.4961 56.4941-58.4961L28.125-58.4961Q26.9531-58.4961 26.1963-57.7393Q25.4395-56.9824 25.4395-55.9082Q25.4395-54.7852 26.1963-54.0039Q26.9531-53.2227 28.125-53.2227ZM28.125-39.8926L56.4941-39.8926Q57.6172-39.8926 58.374-40.6738Q59.1309-41.4551 59.1309-42.627Q59.1309-43.7012 58.374-44.458Q57.6172-45.2148 56.4941-45.2148L28.125-45.2148Q26.9531-45.2148 26.1963-44.458Q25.4395-43.7012 25.4395-42.627Q25.4395-41.4551 26.1963-40.6738Q26.9531-39.8926 28.125-39.8926ZM28.125-26.6113L41.4062-26.6113Q42.5293-26.6113 43.2861-27.3682Q44.043-28.125 44.043-29.1992Q44.043-30.3223 43.2861-31.1035Q42.5293-31.8848 41.4062-31.8848L28.125-31.8848Q26.9531-31.8848 26.1963-31.1035Q25.4395-30.3223 25.4395-29.1992Q25.4395-28.125 26.1963-27.3682Q26.9531-26.6113 28.125-26.6113ZM9.76562-6.54297Q9.76562-0.292969 12.8174 2.80762Q15.8691 5.9082 22.0215 5.9082L62.5 5.9082Q68.6523 5.9082 71.7285 2.80762Q74.8047-0.292969 74.8047-6.54297L74.8047-63.9648Q74.8047-70.166 71.7285-73.291Q68.6523-76.416 62.5-76.416L22.0215-76.416Q15.8691-76.416 12.8174-73.291Q9.76562-70.166 9.76562-63.9648ZM16.7969-6.64062L16.7969-63.8672Q16.7969-66.5039 18.2129-67.9443Q19.6289-69.3848 22.4121-69.3848L62.1582-69.3848Q64.8926-69.3848 66.3086-67.9443Q67.7246-66.5039 67.7246-63.8672L67.7246-6.64062Q67.7246-4.00391 66.3086-2.56348Q64.8926-1.12305 62.1582-1.12305L22.4121-1.12305Q19.6289-1.12305 18.2129-2.56348Q16.7969-4.00391 16.7969-6.64062Z"/>
  </g>
  <g id="Light-S" transform="matrix(1 0 0 1 1111.47 696)">
   <path d="M26.9142-54.8271L56.4484-54.8271Q57.3601-54.8271 57.9655-55.4569Q58.5709-56.0867 58.5709-56.9832Q58.5709-57.83 57.9655-58.4431Q57.3601-59.0561 56.4484-59.0561L26.9142-59.0561Q25.9842-59.0561 25.3712-58.4431Q24.7581-57.83 24.7581-56.9832Q24.7581-56.0867 25.3712-55.4569Q25.9842-54.8271 26.9142-54.8271ZM26.9142-41.4215L56.4484-41.4215Q57.3601-41.4215 57.9655-42.0437Q58.5709-42.6659 58.5709-43.5959Q58.5709-44.458 57.9655-45.071Q57.3601-45.6841 56.4484-45.6841L26.9142-45.6841Q25.9842-45.6841 25.3712-45.071Q24.7581-44.458 24.7581-43.5959Q24.7581-42.6659 25.3712-42.0437Q25.9842-41.4215 26.9142-41.4215ZM26.9142-28.0495L41.0278-28.0495Q41.9388-28.0495 42.5518-28.6549Q43.1648-29.2603 43.1648-30.1224Q43.1648-31.0188 42.5518-31.6486Q41.9388-32.2784 41.0278-32.2784L26.9142-32.2784Q25.9842-32.2784 25.3712-31.6486Q24.7581-31.0188 24.7581-30.1224Q24.7581-29.2603 25.3712-28.6549Q25.9842-28.0495 26.9142-28.0495ZM9.76562-5.96771Q9.76562-0.171661 12.6511 2.74734Q15.5365 5.66635 21.2646 5.66635L62.0308 5.66635Q67.7742 5.66635 70.6688 2.74734Q73.5634-0.171661 73.5634-5.96771L73.5634-64.4798Q73.5634-70.2415 70.6688-73.1773Q67.7742-76.1131 62.0308-76.1131L21.2646-76.1131Q15.5365-76.1131 12.6511-73.1773Q9.76562-70.2415 9.76562-64.4798ZM15.1924-6.06537L15.1924-64.3822Q15.1924-67.4271 16.7976-69.0567Q18.4029-70.6863 21.5645-70.6863L61.7645-70.6863Q64.8926-70.6863 66.5054-69.0567Q68.1183-67.4271 68.1183-64.3822L68.1183-6.06537Q68.1183-3.01971 66.5054-1.39008Q64.8926 0.239563 61.7645 0.239563L21.5645 0.239563Q18.4029 0.239563 16.7976-1.39008Q15.1924-3.01971 15.1924-6.06537Z"/>
  </g>
  <g id="Thin-S" transform="matrix(1 0 0 1 815.578 696)">
   <path d="M25.3128-56.9489L56.3889-56.9489Q57.0198-56.9489 57.4249-57.3788Q57.83-57.8087 57.83-58.4045Q57.83-58.9508 57.4249-59.3739Q57.0198-59.7969 56.3889-59.7969L25.3128-59.7969Q24.7032-59.7969 24.2802-59.3739Q23.8571-58.9508 23.8571-58.4045Q23.8571-57.8087 24.2802-57.3788Q24.7032-56.9489 25.3128-56.9489ZM25.3128-43.4433L56.3889-43.4433Q57.0198-43.4433 57.4249-43.8553Q57.83-44.2673 57.83-44.8769Q57.83-45.459 57.4249-45.8817Q57.0198-46.3043 56.3889-46.3043L25.3128-46.3043Q24.7032-46.3043 24.2802-45.8817Q23.8571-45.459 23.8571-44.8769Q23.8571-44.2673 24.2802-43.8553Q24.7032-43.4433 25.3128-43.4433ZM25.3128-29.9507L40.5273-29.9507Q41.1583-29.9507 41.581-30.3562Q42.0036-30.7617 42.0036-31.3438Q42.0036-31.9397 41.581-32.3692Q41.1583-32.7988 40.5273-32.7988L25.3128-32.7988Q24.7032-32.7988 24.2802-32.3692Q23.8571-31.9397 23.8571-31.3438Q23.8571-30.7617 24.2802-30.3562Q24.7032-29.9507 25.3128-29.9507ZM9.76562-5.20706Q9.76562-0.0114441 12.4306 2.66724Q15.0955 5.34592 20.2637 5.34592L61.4105 5.34592Q66.613 5.34592 69.2677 2.66724Q71.9223-0.0114441 71.9223-5.20706L71.9223-65.1604Q71.9223-70.3415 69.2677-73.027Q66.613-75.7126 61.4105-75.7126L20.2637-75.7126Q15.0955-75.7126 12.4306-73.027Q9.76562-70.3415 9.76562-65.1604ZM13.0707-5.30472L13.0707-65.0627Q13.0707-68.6485 14.9261-70.5284Q16.7816-72.4083 20.4437-72.4083L61.2442-72.4083Q64.8926-72.4083 66.7656-70.5284Q68.6386-68.6485 68.6386-65.0627L68.6386-5.30472Q68.6386-1.7189 66.7656 0.16098Q64.8926 2.04086 61.2442 2.04086L20.4437 2.04086Q16.7816 2.04086 14.9261 0.16098Q13.0707-1.7189 13.0707-5.30472Z"/>
  </g>
  <g id="Ultralight-S" transform="matrix(1 0 0 1 519.288 696)">
   <path d="M24.4919-58.036L56.3576-58.036Q56.8451-58.036 57.148-58.3633Q57.4509-58.6906 57.4509-59.1324Q57.4509-59.5253 57.148-59.8507Q56.8451-60.1761 56.3576-60.1761L24.4919-60.1761Q24.0471-60.1761 23.7217-59.8507Q23.3963-59.5253 23.3963-59.1324Q23.3963-58.6906 23.7217-58.3633Q24.0471-58.036 24.4919-58.036ZM24.4919-44.4786L56.3576-44.4786Q56.8451-44.4786 57.148-44.7834Q57.4509-45.0882 57.4509-45.533Q57.4509-45.9717 57.148-46.2971Q56.8451-46.6225 56.3576-46.6225L24.4919-46.6225Q24.0471-46.6225 23.7217-46.2971Q23.3963-45.9717 23.3963-45.533Q23.3963-45.0882 23.7217-44.7834Q24.0471-44.4786 24.4919-44.4786ZM24.4919-30.925L40.271-30.925Q40.7585-30.925 41.0839-31.2279Q41.4093-31.5308 41.4093-31.9695Q41.4093-32.4112 41.0839-32.7385Q40.7585-33.0658 40.271-33.0658L24.4919-33.0658Q24.0471-33.0658 23.7217-32.7385Q23.3963-32.4112 23.3963-31.9695Q23.3963-31.5308 23.7217-31.2279Q24.0471-30.925 24.4919-30.925ZM9.76562-4.8172Q9.76562 0.0701904 12.318 2.62604Q14.8705 5.18188 19.751 5.18188L61.0924 5.18188Q66.0187 5.18188 68.5497 2.62604Q71.0808 0.0701904 71.0808-4.8172L71.0808-65.509Q71.0808-70.3934 68.5497-72.9507Q66.0187-75.5081 61.0924-75.5081L19.751-75.5081Q14.8705-75.5081 12.318-72.9507Q9.76562-70.3934 9.76562-65.509ZM11.9835-4.91486L11.9835-65.4114Q11.9835-69.2741 13.9671-71.2822Q15.9508-73.2903 19.8692-73.2903L60.9772-73.2903Q64.8926-73.2903 66.8991-71.2822Q68.9056-69.2741 68.9056-65.4114L68.9056-4.91486Q68.9056-1.05209 66.8991 0.955963Q64.8926 2.96402 60.9772 2.96402L19.8692 2.96402Q15.9508 2.96402 13.9671 0.955963Q11.9835-1.05209 11.9835-4.91486Z"/>
  </g>
 </g>
</svg>
