<svg width="17" height="17" viewBox="0 0 17 17" fill="none" xmlns="http://www.w3.org/2000/svg">
<path d="M12.9 13.4455C12.9 13.1772 12.7111 12.9835 12.4467 12.9835H8.51799C8.61621 12.9686 8.71443 12.9239 8.79754 12.8344L12.7564 8.92986C12.8547 8.82554 12.9 8.72122 12.9 8.602C12.9 8.34865 12.7111 8.15491 12.4542 8.15491C12.3258 8.15491 12.2049 8.19216 12.1218 8.27414L10.5503 9.80915L8.87309 11.6124L8.91086 10.3605V2.45454C8.91086 2.19373 8.72198 2 8.45 2C8.17801 2 7.98914 2.19373 7.98914 2.45454V10.3605L8.0269 11.6124L6.34966 9.80915L4.77818 8.27414C4.69507 8.19216 4.56663 8.15491 4.44576 8.15491C4.18888 8.15491 4 8.34865 4 8.602C4 8.72122 4.04533 8.82554 4.14356 8.92986L8.10246 12.8344C8.18556 12.9164 8.27622 12.9686 8.38199 12.9835H4.46086C4.18888 12.9835 4 13.1772 4 13.4455C4 13.7063 4.18888 13.9 4.46086 13.9H12.4467C12.7111 13.9 12.9 13.7063 12.9 13.4455Z" fill="black"/>
</svg>
