<svg width="17" height="17" viewBox="0 0 17 17" fill="none" xmlns="http://www.w3.org/2000/svg">
<path d="M13 13.5416C13 13.2711 12.809 13.0758 12.5416 13.0758H8.56875C8.66808 13.0607 8.7674 13.0157 8.85144 12.9255L12.8548 8.9881C12.9542 8.8829 13 8.7777 13 8.65748C13 8.402 12.809 8.20664 12.5492 8.20664C12.4193 8.20664 12.2971 8.2442 12.2131 8.32687L10.6239 9.87477L8.92785 11.6932L8.96604 10.4308V2.45836C8.96604 2.19536 8.77504 2 8.5 2C8.22496 2 8.03396 2.19536 8.03396 2.45836V10.4308L8.07215 11.6932L6.37606 9.87477L4.78692 8.32687C4.70288 8.2442 4.573 8.20664 4.45077 8.20664C4.191 8.20664 4 8.402 4 8.65748C4 8.7777 4.04584 8.8829 4.14517 8.9881L8.14855 12.9255C8.23259 13.0081 8.32427 13.0607 8.43123 13.0758H4.46604C4.191 13.0758 4 13.2711 4 13.5416C4 13.8046 4.191 14 4.46604 14H12.5416C12.809 14 13 13.8046 13 13.5416Z" fill="black"/>
</svg>
