<svg width="71" height="148" viewBox="0 0 71 148" fill="none" xmlns="http://www.w3.org/2000/svg">
<path d="M64.5196 110C64.5196 108.242 63.2989 106.973 61.5899 106.973H36.1992C36.834 106.875 37.4688 106.582 38.0059 105.996L63.5918 80.4101C64.2266 79.7265 64.5196 79.0429 64.5196 78.2617C64.5196 76.6015 63.2989 75.332 61.6387 75.332C60.8086 75.332 60.0274 75.5761 59.4903 76.1133L49.334 86.1719L38.4942 97.9883L38.7383 89.7851V37.9785C38.7383 36.2695 37.5176 35 35.7598 35C34.002 35 32.7813 36.2695 32.7813 37.9785V89.7851L33.0254 97.9883L22.1856 86.1719L12.0293 76.1133C11.4922 75.5761 10.6621 75.332 9.88088 75.332C8.22068 75.332 7 76.6015 7 78.2617C7 79.0429 7.29298 79.7265 7.92778 80.4101L33.5137 105.996C34.0508 106.533 34.6367 106.875 35.3203 106.973H9.97848C8.22068 106.973 7 108.242 7 110C7 111.709 8.22068 112.978 9.97848 112.978H61.5899C63.2989 112.978 64.5196 111.709 64.5196 110Z" fill="black"/>
</svg>
