<svg width="71" height="148" viewBox="0 0 71 148" fill="none" xmlns="http://www.w3.org/2000/svg">
<path d="M64.5196 69.7168C64.5196 68.9356 64.2266 68.252 63.5918 67.5684L38.0059 41.9824C37.4688 41.3965 36.8828 41.1035 36.1992 41.0059H61.5899C63.2989 41.0059 64.5196 39.7363 64.5196 37.9785C64.5196 36.2695 63.2989 35 61.5899 35H9.97848C8.22068 35 7 36.2695 7 37.9785C7 39.7363 8.22068 41.0059 9.97848 41.0059H35.3203C34.6856 41.1035 34.0508 41.3965 33.5137 41.9824L7.92778 67.5684C7.29298 68.252 7 68.9356 7 69.7168C7 71.377 8.22068 72.6465 9.88088 72.6465C10.6621 72.6465 11.4922 72.4023 12.0293 71.8652L22.1856 61.8066L33.0254 49.9902L32.7813 58.1934V110C32.7813 111.709 34.002 112.979 35.7598 112.979C37.5176 112.979 38.7383 111.709 38.7383 110V58.1934L38.4942 49.9902L49.334 61.8066L59.4903 71.8652C60.0274 72.4023 60.8086 72.6465 61.6387 72.6465C63.2989 72.6465 64.5196 71.377 64.5196 69.7168Z" fill="black"/>
</svg>
