<svg width="17" height="17" viewBox="0 0 17 17" fill="none" xmlns="http://www.w3.org/2000/svg">
<path d="M13 7.34252C13 7.2223 12.9542 7.1171 12.8548 7.0119L8.85144 3.07451C8.7674 2.98435 8.67571 2.93926 8.56875 2.92424H12.5416C12.809 2.92424 13 2.72886 13 2.45836C13 2.19536 12.809 2 12.5416 2H4.46604C4.191 2 4 2.19536 4 2.45836C4 2.72886 4.191 2.92424 4.46604 2.92424H8.43123C8.33192 2.93926 8.23259 2.98435 8.14855 3.07451L4.14517 7.0119C4.04584 7.1171 4 7.2223 4 7.34252C4 7.598 4.191 7.79336 4.45077 7.79336C4.573 7.79336 4.70288 7.75578 4.78692 7.67313L6.37606 6.12523L8.07215 4.30682L8.03396 5.5692V13.5416C8.03396 13.8046 8.22496 14 8.5 14C8.77504 14 8.96604 13.8046 8.96604 13.5416V5.5692L8.92785 4.30682L10.6239 6.12523L12.2131 7.67313C12.2971 7.75578 12.4193 7.79336 12.5492 7.79336C12.809 7.79336 13 7.598 13 7.34252Z" fill="black"/>
</svg>
