<svg width="71" height="148" viewBox="0 0 71 148" fill="none" xmlns="http://www.w3.org/2000/svg">
<path fill-rule="evenodd" clip-rule="evenodd" d="M39.923 80.2981L55.3915 96.8636C56.6605 98.2227 56.7291 100.206 55.46 101.565C54.1567 102.887 52.3389 102.777 51.1042 101.455L47.7087 97.8186L38.9284 87.3871L39.2714 103.989L39.2714 122.281C39.2714 123.163 38.9285 124.044 38.3111 124.705C36.9735 126.138 35.1214 125.991 33.7838 124.558C33.235 123.971 32.892 123.163 32.9263 122.318L32.9949 104.026L33.2693 87.4238L24.5919 97.8187L21.1963 101.455C19.9273 102.814 18.0752 102.814 16.8405 101.492C15.5714 100.133 15.64 98.1492 16.8747 96.8269L32.3089 80.2981C34.7098 77.727 37.5222 77.727 39.923 80.2981ZM52.579 39.3436C53.848 37.9846 55.6659 37.9479 56.9006 39.2702C58.1696 40.6292 58.1011 42.6127 56.8663 43.935L40.9177 61.0147C38.5169 63.5858 35.7387 63.6224 33.3379 61.0514L17.355 43.9349C16.0859 42.5759 16.0173 40.5924 17.2864 39.2334C18.5897 37.9111 20.4417 37.9846 21.6765 39.3069L25.5521 43.4574L34.2982 53.9256L33.9894 37.2867L33.9895 18.4072C33.9552 17.4889 34.3325 16.6442 34.9499 15.983C36.2875 14.5505 38.1053 14.6607 39.4429 16.0932C40.0259 16.7176 40.3347 17.489 40.3347 18.3705L40.266 37.25L39.9573 53.8889L48.7033 43.4941L52.579 39.3436ZM61 71.5122C61 70.6342 60.0025 70 58.6061 70H16.4338C14.9974 70 14 70.6342 14 71.5122C14 72.3659 14.9974 73 16.4338 73H37.5H58.6061C60.0025 73 61 72.3659 61 71.5122Z" fill="black"/>
</svg>
