<svg width="17" height="17" viewBox="0 0 17 17" fill="none" xmlns="http://www.w3.org/2000/svg">
<path fill-rule="evenodd" clip-rule="evenodd" d="M7.97926 9.97028L10.3537 12.4982C10.5485 12.7056 10.559 13.0082 10.3642 13.2156C10.1642 13.4174 9.88514 13.4006 9.69561 13.1988L9.17439 12.6439L7.82658 11.0521L7.87923 13.5856L7.87923 16.3769C7.87923 16.5114 7.82659 16.6459 7.73183 16.7468C7.5265 16.9654 7.2422 16.943 7.03687 16.7244C6.95262 16.6347 6.89997 16.5114 6.90525 16.3825L6.91577 13.5912L6.95789 11.0577L5.62588 12.6439L5.10466 13.1988C4.90986 13.4062 4.62555 13.4062 4.43602 13.2044C4.24121 12.997 4.25174 12.6944 4.44128 12.4926L6.81047 9.97028C7.17901 9.57792 7.61073 9.57794 7.97926 9.97028ZM9.922 3.72061C10.1168 3.51322 10.3958 3.50762 10.5854 3.70941C10.7802 3.91679 10.7696 4.21947 10.5801 4.42126L8.13195 7.02762C7.76341 7.41998 7.33695 7.42557 6.96842 7.03322L4.515 4.42125C4.32019 4.21386 4.30966 3.91119 4.50446 3.70379C4.70453 3.50202 4.98882 3.51322 5.17836 3.71502L5.77329 4.34838L7.11583 5.94583L7.06844 3.40673L7.06845 0.525714C7.06318 0.385583 7.1211 0.256674 7.21587 0.155783C7.4212 -0.0628158 7.70024 -0.0459988 7.90557 0.1726C7.99506 0.267877 8.04245 0.385593 8.04245 0.520111L8.03191 3.40113L7.98453 5.94023L9.32707 4.35398L9.922 3.72061ZM11.2146 8.62955C11.2146 8.49556 11.0615 8.39879 10.8472 8.39879H4.37359C4.15311 8.39879 4 8.49556 4 8.62955C4 8.75982 4.15311 8.85659 4.37359 8.85659H7.60732H10.8472C11.0615 8.85659 11.2146 8.75982 11.2146 8.62955Z" fill="black"/>
</svg>
