<?xml version="1.0" encoding="UTF-8"?>
<!--Generator: Apple Native CoreSVG 149-->
<!DOCTYPE svg
PUBLIC "-//W3C//DTD SVG 1.1//EN"
       "http://www.w3.org/Graphics/SVG/1.1/DTD/svg11.dtd">
<svg version="1.1" xmlns="http://www.w3.org/2000/svg" xmlns:xlink="http://www.w3.org/1999/xlink" width="3300" height="2200">
 <!--glyph: "uni1001FE.medium", point size: 100.0, font version: "17.0d9e1", template writer version: "59"-->
 <style>.hierarchical-0:secondary {fill:#4D4D4D}
.hierarchical-1:primary {fill:#212121}

.SFSymbolsPreview212121 {fill:#212121;opacity:1.0}
.SFSymbolsPreview4D4D4D {fill:#4D4D4D;opacity:1.0}
</style>
 <g id="Notes">
  <rect height="2200" id="artboard" style="fill:white;opacity:1" width="3300" x="0" y="0"/>
  <line style="fill:none;stroke:black;opacity:1;stroke-width:0.5;" x1="263" x2="3036" y1="292" y2="292"/>
  <text style="stroke:none;fill:black;font-family:sans-serif;font-size:13;font-weight:bold;" transform="matrix(1 0 0 1 263 322)">Weight/Scale Variations</text>
  <text style="stroke:none;fill:black;font-family:sans-serif;font-size:13;text-anchor:middle;" transform="matrix(1 0 0 1 559.711 322)">Ultralight</text>
  <text style="stroke:none;fill:black;font-family:sans-serif;font-size:13;text-anchor:middle;" transform="matrix(1 0 0 1 856.422 322)">Thin</text>
  <text style="stroke:none;fill:black;font-family:sans-serif;font-size:13;text-anchor:middle;" transform="matrix(1 0 0 1 1153.13 322)">Light</text>
  <text style="stroke:none;fill:black;font-family:sans-serif;font-size:13;text-anchor:middle;" transform="matrix(1 0 0 1 1449.84 322)">Regular</text>
  <text style="stroke:none;fill:black;font-family:sans-serif;font-size:13;text-anchor:middle;" transform="matrix(1 0 0 1 1746.56 322)">Medium</text>
  <text style="stroke:none;fill:black;font-family:sans-serif;font-size:13;text-anchor:middle;" transform="matrix(1 0 0 1 2043.27 322)">Semibold</text>
  <text style="stroke:none;fill:black;font-family:sans-serif;font-size:13;text-anchor:middle;" transform="matrix(1 0 0 1 2339.98 322)">Bold</text>
  <text style="stroke:none;fill:black;font-family:sans-serif;font-size:13;text-anchor:middle;" transform="matrix(1 0 0 1 2636.69 322)">Heavy</text>
  <text style="stroke:none;fill:black;font-family:sans-serif;font-size:13;text-anchor:middle;" transform="matrix(1 0 0 1 2933.4 322)">Black</text>
  <line style="fill:none;stroke:black;opacity:1;stroke-width:0.5;" x1="263" x2="3036" y1="1903" y2="1903"/>
  <g transform="matrix(1 0 0 1 263 1933)">
   <path d="M9.24805 0.830078Q10.8691 0.830078 12.2949 0.214844Q13.7207-0.400391 14.8096-1.49414Q15.8984-2.58789 16.5186-4.01367Q17.1387-5.43945 17.1387-7.05078Q17.1387-8.66211 16.5186-10.0879Q15.8984-11.5137 14.8047-12.6074Q13.7109-13.7012 12.2852-14.3164Q10.8594-14.9316 9.23828-14.9316Q7.62695-14.9316 6.20117-14.3164Q4.77539-13.7012 3.69141-12.6074Q2.60742-11.5137 1.9873-10.0879Q1.36719-8.66211 1.36719-7.05078Q1.36719-5.43945 1.9873-4.01367Q2.60742-2.58789 3.69629-1.49414Q4.78516-0.400391 6.21094 0.214844Q7.63672 0.830078 9.24805 0.830078ZM9.24805-0.654297Q7.91992-0.654297 6.7627-1.14746Q5.60547-1.64062 4.73145-2.51953Q3.85742-3.39844 3.36426-4.56055Q2.87109-5.72266 2.87109-7.05078Q2.87109-8.37891 3.35938-9.54102Q3.84766-10.7031 4.72168-11.582Q5.5957-12.4609 6.75293-12.9541Q7.91016-13.4473 9.23828-13.4473Q10.5762-13.4473 11.7334-12.9541Q12.8906-12.4609 13.7695-11.582Q14.6484-10.7031 15.1465-9.54102Q15.6445-8.37891 15.6445-7.05078Q15.6445-5.72266 15.1514-4.56055Q14.6582-3.39844 13.7842-2.51953Q12.9102-1.64062 11.748-1.14746Q10.5859-0.654297 9.24805-0.654297ZM5.83984-7.04102Q5.83984-6.71875 6.04492-6.51855Q6.25-6.31836 6.5918-6.31836L8.50586-6.31836L8.50586-4.39453Q8.50586-4.0625 8.70605-3.85742Q8.90625-3.65234 9.22852-3.65234Q9.56055-3.65234 9.76562-3.85742Q9.9707-4.0625 9.9707-4.39453L9.9707-6.31836L11.8945-6.31836Q12.2266-6.31836 12.4316-6.51855Q12.6367-6.71875 12.6367-7.04102Q12.6367-7.37305 12.4316-7.57812Q12.2266-7.7832 11.8945-7.7832L9.9707-7.7832L9.9707-9.69727Q9.9707-10.0391 9.76562-10.2441Q9.56055-10.4492 9.22852-10.4492Q8.90625-10.4492 8.70605-10.2441Q8.50586-10.0391 8.50586-9.69727L8.50586-7.7832L6.5918-7.7832Q6.25-7.7832 6.04492-7.57812Q5.83984-7.37305 5.83984-7.04102Z"/>
  </g>
  <g transform="matrix(1 0 0 1 281.867 1933)">
   <path d="M11.709 2.91016Q13.75 2.91016 15.5518 2.12891Q17.3535 1.34766 18.7305-0.0292969Q20.1074-1.40625 20.8887-3.20801Q21.6699-5.00977 21.6699-7.05078Q21.6699-9.0918 20.8887-10.8936Q20.1074-12.6953 18.7305-14.0723Q17.3535-15.4492 15.5469-16.2305Q13.7402-17.0117 11.6992-17.0117Q9.6582-17.0117 7.85645-16.2305Q6.05469-15.4492 4.68262-14.0723Q3.31055-12.6953 2.5293-10.8936Q1.74805-9.0918 1.74805-7.05078Q1.74805-5.00977 2.5293-3.20801Q3.31055-1.40625 4.6875-0.0292969Q6.06445 1.34766 7.86621 2.12891Q9.66797 2.91016 11.709 2.91016ZM11.709 1.25Q9.98047 1.25 8.47656 0.605469Q6.97266-0.0390625 5.83496-1.17676Q4.69727-2.31445 4.05762-3.81836Q3.41797-5.32227 3.41797-7.05078Q3.41797-8.7793 4.05762-10.2832Q4.69727-11.7871 5.83008-12.9297Q6.96289-14.0723 8.4668-14.7119Q9.9707-15.3516 11.6992-15.3516Q13.4277-15.3516 14.9316-14.7119Q16.4355-14.0723 17.5781-12.9297Q18.7207-11.7871 19.3652-10.2832Q20.0098-8.7793 20.0098-7.05078Q20.0098-5.32227 19.3701-3.81836Q18.7305-2.31445 17.5928-1.17676Q16.4551-0.0390625 14.9463 0.605469Q13.4375 1.25 11.709 1.25ZM7.39258-7.04102Q7.39258-6.68945 7.62695-6.46484Q7.86133-6.24023 8.23242-6.24023L10.8789-6.24023L10.8789-3.57422Q10.8789-3.21289 11.1035-2.9834Q11.3281-2.75391 11.6797-2.75391Q12.0508-2.75391 12.2852-2.9834Q12.5195-3.21289 12.5195-3.57422L12.5195-6.24023L15.1758-6.24023Q15.5371-6.24023 15.7715-6.46484Q16.0059-6.68945 16.0059-7.04102Q16.0059-7.41211 15.7715-7.6416Q15.5371-7.87109 15.1758-7.87109L12.5195-7.87109L12.5195-10.5176Q12.5195-10.8984 12.2852-11.1279Q12.0508-11.3574 11.6797-11.3574Q11.3281-11.3574 11.1035-11.1279Q10.8789-10.8984 10.8789-10.5176L10.8789-7.87109L8.23242-7.87109Q7.85156-7.87109 7.62207-7.6416Q7.39258-7.41211 7.39258-7.04102Z"/>
  </g>
  <g transform="matrix(1 0 0 1 305.646 1933)">
   <path d="M14.9707 5.66406Q17.0605 5.66406 18.96 5.01465Q20.8594 4.36523 22.4512 3.19336Q24.043 2.02148 25.2197 0.429688Q26.3965-1.16211 27.0459-3.06641Q27.6953-4.9707 27.6953-7.05078Q27.6953-9.14062 27.0459-11.04Q26.3965-12.9395 25.2197-14.5312Q24.043-16.123 22.4512-17.2998Q20.8594-18.4766 18.9551-19.126Q17.0508-19.7754 14.9609-19.7754Q12.8711-19.7754 10.9717-19.126Q9.07227-18.4766 7.48535-17.2998Q5.89844-16.123 4.72168-14.5312Q3.54492-12.9395 2.90039-11.04Q2.25586-9.14062 2.25586-7.05078Q2.25586-4.9707 2.90527-3.06641Q3.55469-1.16211 4.72656 0.429688Q5.89844 2.02148 7.49023 3.19336Q9.08203 4.36523 10.9814 5.01465Q12.8809 5.66406 14.9707 5.66406ZM14.9707 3.84766Q13.1641 3.84766 11.5283 3.2959Q9.89258 2.74414 8.53516 1.74805Q7.17773 0.751953 6.17676-0.610352Q5.17578-1.97266 4.62891-3.6084Q4.08203-5.24414 4.08203-7.05078Q4.08203-8.86719 4.62891-10.5029Q5.17578-12.1387 6.17188-13.501Q7.16797-14.8633 8.52539-15.8594Q9.88281-16.8555 11.5186-17.4023Q13.1543-17.9492 14.9609-17.9492Q16.7773-17.9492 18.4131-17.4023Q20.0488-16.8555 21.4111-15.8594Q22.7734-14.8633 23.7695-13.501Q24.7656-12.1387 25.3174-10.5029Q25.8691-8.86719 25.8691-7.05078Q25.8789-5.24414 25.332-3.6084Q24.7852-1.97266 23.7842-0.610352Q22.7832 0.751953 21.4209 1.74805Q20.0586 2.74414 18.4229 3.2959Q16.7871 3.84766 14.9707 3.84766ZM9.45312-7.04102Q9.45312-6.66016 9.71191-6.41113Q9.9707-6.16211 10.3711-6.16211L14.0625-6.16211L14.0625-2.46094Q14.0625-2.06055 14.3115-1.80664Q14.5605-1.55273 14.9414-1.55273Q15.3516-1.55273 15.6055-1.80664Q15.8594-2.06055 15.8594-2.46094L15.8594-6.16211L19.5605-6.16211Q19.9609-6.16211 20.2148-6.41113Q20.4688-6.66016 20.4688-7.04102Q20.4688-7.45117 20.2148-7.70508Q19.9609-7.95898 19.5605-7.95898L15.8594-7.95898L15.8594-11.6504Q15.8594-12.0605 15.6055-12.3145Q15.3516-12.5684 14.9414-12.5684Q14.5605-12.5684 14.3115-12.3096Q14.0625-12.0508 14.0625-11.6504L14.0625-7.95898L10.3711-7.95898Q9.96094-7.95898 9.70703-7.70508Q9.45312-7.45117 9.45312-7.04102Z"/>
  </g>
  <text style="stroke:none;fill:black;font-family:sans-serif;font-size:13;font-weight:bold;" transform="matrix(1 0 0 1 263 1953)">Design Variations</text>
  <text style="stroke:none;fill:black;font-family:sans-serif;font-size:13;" transform="matrix(1 0 0 1 263 1971)">Symbols are supported in up to nine weights and three scales.</text>
  <text style="stroke:none;fill:black;font-family:sans-serif;font-size:13;" transform="matrix(1 0 0 1 263 1989)">For optimal layout with text and other symbols, vertically align</text>
  <text style="stroke:none;fill:black;font-family:sans-serif;font-size:13;" transform="matrix(1 0 0 1 263 2007)">symbols with the adjacent text.</text>
  <line style="fill:none;stroke:#00AEEF;stroke-width:0.5;opacity:1.0;" x1="776" x2="776" y1="1919" y2="1933"/>
  <g transform="matrix(1 0 0 1 776 1933)">
   <path d="M3.31055 0.15625Q3.70117 0.15625 3.91602-0.00976562Q4.13086-0.175781 4.26758-0.585938L5.52734-4.0332L11.2891-4.0332L12.5488-0.585938Q12.6855-0.175781 12.9004-0.00976562Q13.1152 0.15625 13.4961 0.15625Q13.8867 0.15625 14.1162-0.0585938Q14.3457-0.273438 14.3457-0.644531Q14.3457-0.869141 14.2383-1.17188L9.6582-13.3691Q9.48242-13.8184 9.17969-14.043Q8.87695-14.2676 8.4082-14.2676Q7.5-14.2676 7.17773-13.3789L2.59766-1.16211Q2.49023-0.859375 2.49023-0.634766Q2.49023-0.263672 2.70996-0.0537109Q2.92969 0.15625 3.31055 0.15625ZM6.00586-5.51758L8.37891-12.0898L8.42773-12.0898L10.8008-5.51758Z"/>
  </g>
  <line style="fill:none;stroke:#00AEEF;stroke-width:0.5;opacity:1.0;" x1="793.197" x2="793.197" y1="1919" y2="1933"/>
  <text style="stroke:none;fill:black;font-family:sans-serif;font-size:13;font-weight:bold;" transform="matrix(1 0 0 1 776 1953)">Margins</text>
  <text style="stroke:none;fill:black;font-family:sans-serif;font-size:13;" transform="matrix(1 0 0 1 776 1971)">Leading and trailing margins on the left and right side of each symbol</text>
  <text style="stroke:none;fill:black;font-family:sans-serif;font-size:13;" transform="matrix(1 0 0 1 776 1989)">can be adjusted by modifying the x-location of the margin guidelines.</text>
  <text style="stroke:none;fill:black;font-family:sans-serif;font-size:13;" transform="matrix(1 0 0 1 776 2007)">Modifications are automatically applied proportionally to all</text>
  <text style="stroke:none;fill:black;font-family:sans-serif;font-size:13;" transform="matrix(1 0 0 1 776 2025)">scales and weights.</text>
  <g transform="matrix(1 0 0 1 1289 1933)">
   <path d="M2.8418 1.86523L4.54102 3.57422Q5.18555 4.22852 5.90332 4.17969Q6.62109 4.13086 7.31445 3.35938L18.0078-8.42773L17.041-9.4043L6.42578 2.27539Q6.16211 2.57812 5.89355 2.61719Q5.625 2.65625 5.27344 2.30469L4.10156 1.14258Q3.75 0.791016 3.79395 0.522461Q3.83789 0.253906 4.14062-0.0195312L15.6152-10.8203L14.6387-11.7871L3.04688-0.898438Q2.30469-0.214844 2.25098 0.498047Q2.19727 1.21094 2.8418 1.86523ZM9.25781-16.3281Q8.94531-16.0254 8.90625-15.6348Q8.86719-15.2441 9.04297-14.9512Q9.21875-14.6777 9.55566-14.541Q9.89258-14.4043 10.3809-14.5215Q11.4746-14.7754 12.5977-14.7314Q13.7207-14.6875 14.7949-13.9844L14.209-12.5293Q13.9551-11.9043 14.0674-11.4404Q14.1797-10.9766 14.5801-10.5664L16.875-8.25195Q17.2363-7.88086 17.5781-7.82227Q17.9199-7.76367 18.3398-7.8418L19.4043-8.03711L20.0684-7.36328L20.0293-6.80664Q20-6.43555 20.1221-6.12305Q20.2441-5.81055 20.6055-5.44922L21.3672-4.70703Q21.7285-4.3457 22.1533-4.33105Q22.5781-4.31641 22.9297-4.66797L25.8398-7.58789Q26.1914-7.93945 26.1816-8.35449Q26.1719-8.76953 25.8105-9.13086L25.0391-9.89258Q24.6875-10.2539 24.3799-10.3857Q24.0723-10.5176 23.7109-10.4883L23.1348-10.4395L22.4902-11.0742L22.7344-12.1973Q22.832-12.6172 22.6953-12.9834Q22.5586-13.3496 22.1191-13.7891L19.9219-15.9766Q18.6719-17.2168 17.2607-17.8369Q15.8496-18.457 14.4189-18.4814Q12.9883-18.5059 11.665-17.959Q10.3418-17.4121 9.25781-16.3281ZM10.752-15.957Q11.6602-16.6211 12.7002-16.9043Q13.7402-17.1875 14.8047-17.085Q15.8691-16.9824 16.8701-16.5137Q17.8711-16.0449 18.7012-15.2051L21.1328-12.793Q21.3086-12.6172 21.3525-12.4512Q21.3965-12.2852 21.3379-12.0312L21.0156-10.5469L22.5195-9.0625L23.5059-9.12109Q23.6914-9.13086 23.7891-9.09668Q23.8867-9.0625 24.0332-8.91602L24.6094-8.33984L22.168-5.89844L21.5918-6.47461Q21.4453-6.62109 21.4062-6.71875Q21.3672-6.81641 21.377-7.01172L21.4453-7.98828L19.9512-9.47266L18.4277-9.21875Q18.1836-9.16992 18.042-9.2041Q17.9004-9.23828 17.7148-9.41406L15.7129-11.416Q15.5176-11.5918 15.4932-11.7529Q15.4688-11.9141 15.5859-12.1875L16.4648-14.2773Q15.293-15.3711 13.8281-15.791Q12.3633-16.2109 10.8398-15.7617Q10.7227-15.7324 10.6885-15.8057Q10.6543-15.8789 10.752-15.957Z"/>
  </g>
  <text style="stroke:none;fill:black;font-family:sans-serif;font-size:13;font-weight:bold;" transform="matrix(1 0 0 1 1289 1953)">Exporting</text>
  <text style="stroke:none;fill:black;font-family:sans-serif;font-size:13;" transform="matrix(1 0 0 1 1289 1971)">Symbols should be outlined when exporting to ensure the</text>
  <text style="stroke:none;fill:black;font-family:sans-serif;font-size:13;" transform="matrix(1 0 0 1 1289 1989)">design is preserved when submitting to Xcode.</text>
  <text id="template-version" style="stroke:none;fill:black;font-family:sans-serif;font-size:13;text-anchor:end;" transform="matrix(1 0 0 1 3036 1933)">Template v.3.0</text>
  <text style="stroke:none;fill:black;font-family:sans-serif;font-size:13;text-anchor:end;" transform="matrix(1 0 0 1 3036 1951)">Requires Xcode 13 or greater</text>
  <text id="descriptive-name" style="stroke:none;fill:black;font-family:sans-serif;font-size:13;text-anchor:end;" transform="matrix(1 0 0 1 3036 1969)">Generated from exclamationmark.triangle</text>
  <text style="stroke:none;fill:black;font-family:sans-serif;font-size:13;text-anchor:end;" transform="matrix(1 0 0 1 3036 1987)">Typeset at 100 points</text>
  <text style="stroke:none;fill:black;font-family:sans-serif;font-size:13;" transform="matrix(1 0 0 1 263 726)">Small</text>
  <text style="stroke:none;fill:black;font-family:sans-serif;font-size:13;" transform="matrix(1 0 0 1 263 1156)">Medium</text>
  <text style="stroke:none;fill:black;font-family:sans-serif;font-size:13;" transform="matrix(1 0 0 1 263 1586)">Large</text>
 </g>
 <g id="Guides">
  <g id="H-reference" style="fill:#27AAE1;stroke:none;" transform="matrix(1 0 0 1 339 696)">
   <path d="M0.993347 0L3.6377 0L29.3282-67.1326L30.0301-67.1326L30.0301-70.459L28.1227-70.459ZM11.6882-24.4797L46.9818-24.4797L46.2311-26.7288L12.4382-26.7288ZM55.1193 0L57.7637 0L30.6381-70.459L29.4327-70.459L29.4327-67.1326Z"/>
  </g>
  <line id="Baseline-S" style="fill:none;stroke:#27AAE1;opacity:1;stroke-width:0.5;" x1="263" x2="3036" y1="696" y2="696"/>
  <line id="Capline-S" style="fill:none;stroke:#27AAE1;opacity:1;stroke-width:0.5;" x1="263" x2="3036" y1="625.541" y2="625.541"/>
  <g id="H-reference" style="fill:#27AAE1;stroke:none;" transform="matrix(1 0 0 1 339 1126)">
   <path d="M0.993347 0L3.6377 0L29.3282-67.1326L30.0301-67.1326L30.0301-70.459L28.1227-70.459ZM11.6882-24.4797L46.9818-24.4797L46.2311-26.7288L12.4382-26.7288ZM55.1193 0L57.7637 0L30.6381-70.459L29.4327-70.459L29.4327-67.1326Z"/>
  </g>
  <line id="Baseline-M" style="fill:none;stroke:#27AAE1;opacity:1;stroke-width:0.5;" x1="263" x2="3036" y1="1126" y2="1126"/>
  <line id="Capline-M" style="fill:none;stroke:#27AAE1;opacity:1;stroke-width:0.5;" x1="263" x2="3036" y1="1055.54" y2="1055.54"/>
  <g id="H-reference" style="fill:#27AAE1;stroke:none;" transform="matrix(1 0 0 1 339 1556)">
   <path d="M0.993347 0L3.6377 0L29.3282-67.1326L30.0301-67.1326L30.0301-70.459L28.1227-70.459ZM11.6882-24.4797L46.9818-24.4797L46.2311-26.7288L12.4382-26.7288ZM55.1193 0L57.7637 0L30.6381-70.459L29.4327-70.459L29.4327-67.1326Z"/>
  </g>
  <line id="Baseline-L" style="fill:none;stroke:#27AAE1;opacity:1;stroke-width:0.5;" x1="263" x2="3036" y1="1556" y2="1556"/>
  <line id="Capline-L" style="fill:none;stroke:#27AAE1;opacity:1;stroke-width:0.5;" x1="263" x2="3036" y1="1485.54" y2="1485.54"/>
  <line id="left-margin-Regular-M" style="fill:none;stroke:#00AEEF;stroke-width:0.5;opacity:1.0;" x1="1388.83" x2="1388.83" y1="1030.79" y2="1150.12"/>
  <line id="right-margin-Regular-M" style="fill:none;stroke:#00AEEF;stroke-width:0.5;opacity:1.0;" x1="1510.86" x2="1510.86" y1="1030.79" y2="1150.12"/>
 </g>
 <g id="Symbols">
  <g id="Black-L" transform="matrix(1 0 0 1 2851.95 1556)">
   <path class="hierarchical-0:secondary SFSymbolsPreview4D4D4D" d="M33.3496 28.2715L129.59 28.2715Q135.645 28.2715 140.234 25.4395Q144.824 22.6074 147.412 17.9199Q150 13.2324 150 7.76367Q150 5.22461 149.365 2.66113Q148.73 0.0976562 147.363-2.34375L99.1699-86.5234Q96.1426-91.6992 91.4062-94.2627Q86.6699-96.8262 81.4941-96.8262Q76.2695-96.8262 71.46-94.2139Q66.6504-91.6016 63.7695-86.5234L15.5762-2.29492Q12.8906 2.44141 12.8906 7.76367Q12.8906 13.2324 15.4785 17.9199Q18.0664 22.6074 22.6807 25.4395Q27.2949 28.2715 33.3496 28.2715ZM37.8906 9.32617Q36.1328 9.32617 35.0586 8.08105Q33.9844 6.83594 33.9844 5.22461Q33.9844 4.83398 34.082 4.24805Q34.1797 3.66211 34.4238 3.17383L78.125-73.877Q78.6133-74.7559 79.5654-75.1709Q80.5176-75.5859 81.4941-75.5859Q82.4219-75.5859 83.3496-75.1465Q84.2773-74.707 84.7656-73.8281L128.516 3.32031Q128.955 4.19922 128.955 5.22461Q128.955 6.29883 128.467 7.22656Q127.979 8.1543 127.1 8.74023Q126.221 9.32617 125.049 9.32617Z"/>
   <path class="hierarchical-1:primary SFSymbolsPreview212121" d="M81.4941-19.0918Q89.0137-19.0918 89.4043-26.7578L90.5273-48.3398Q90.7715-52.2949 88.208-54.7607Q85.6445-57.2266 81.4453-57.2266Q77.1973-57.2266 74.6582-54.7852Q72.1191-52.3438 72.3633-48.3887L73.4375-26.6113Q73.8281-19.0918 81.4941-19.0918ZM81.4941 3.32031Q85.5957 3.32031 88.2812 1.09863Q90.9668-1.12305 90.9668-4.98047Q90.9668-8.78906 88.2812-11.0352Q85.5957-13.2812 81.4941-13.2812Q77.4414-13.2812 74.707-11.0596Q71.9727-8.83789 71.9727-4.98047Q71.9727-1.12305 74.707 1.09863Q77.4414 3.32031 81.4941 3.32031Z"/>
  </g>
  <g id="Heavy-L" transform="matrix(1 0 0 1 2555.98 1556)">
   <path class="hierarchical-0:secondary SFSymbolsPreview4D4D4D" d="M32.4707 27.2461L129.004 27.2461Q134.814 27.2461 139.209 24.5605Q143.604 21.875 146.069 17.3828Q148.535 12.8906 148.535 7.61719Q148.535 5.22461 147.925 2.75879Q147.314 0.292969 145.996-2.05078L97.6562-86.4746Q94.7754-91.4062 90.2344-93.8721Q85.6934-96.3379 80.7617-96.3379Q75.7812-96.3379 71.167-93.8477Q66.5527-91.3574 63.8184-86.4746L15.4785-2.00195Q12.8906 2.53906 12.8906 7.61719Q12.8906 12.8906 15.3564 17.3828Q17.8223 21.875 22.2412 24.5605Q26.6602 27.2461 32.4707 27.2461ZM35.9375 10.791Q33.7402 10.791 32.3975 9.22852Q31.0547 7.66602 31.0547 5.66406Q31.0547 5.17578 31.1768 4.46777Q31.2988 3.75977 31.6406 3.125L76.5137-75.8789Q77.1484-77.002 78.3447-77.5391Q79.541-78.0762 80.7617-78.0762Q81.9336-78.0762 83.0811-77.5146Q84.2285-76.9531 84.9121-75.8301L129.785 3.27148Q130.42 4.39453 130.42 5.66406Q130.42 7.03125 129.785 8.17871Q129.15 9.32617 128.052 10.0586Q126.953 10.791 125.488 10.791Z"/>
   <path class="hierarchical-1:primary SFSymbolsPreview212121" d="M80.7617-18.8477Q87.4512-18.8477 87.793-25.7324L88.8184-50.1465Q89.0137-53.6621 86.7188-55.8838Q84.4238-58.1055 80.7129-58.1055Q76.9043-58.1055 74.6582-55.9082Q72.4121-53.7109 72.5586-50.1953L73.584-25.6348Q73.877-18.8477 80.7617-18.8477ZM80.7617 2.97852Q84.4727 2.97852 86.9629 0.854492Q89.4531-1.26953 89.4531-4.78516Q89.4531-8.30078 86.9629-10.4248Q84.4727-12.5488 80.7617-12.5488Q77.0508-12.5488 74.5361-10.4492Q72.0215-8.34961 72.0215-4.78516Q72.0215-1.26953 74.5361 0.854492Q77.0508 2.97852 80.7617 2.97852Z"/>
  </g>
  <g id="Bold-L" transform="matrix(1 0 0 1 2260.08 1556)">
   <path class="hierarchical-0:secondary SFSymbolsPreview4D4D4D" d="M31.4941 26.123L128.369 26.123Q133.936 26.123 138.11 23.584Q142.285 21.0449 144.604 16.7969Q146.924 12.5488 146.924 7.4707Q146.924 5.17578 146.313 2.85645Q145.703 0.537109 144.482-1.70898L95.9473-86.4746Q93.2617-91.1133 88.9648-93.4814Q84.668-95.8496 79.9316-95.8496Q75.1953-95.8496 70.8496-93.457Q66.5039-91.0645 63.8672-86.4746L15.332-1.66016Q12.8906 2.63672 12.8906 7.4707Q12.8906 12.5488 15.21 16.7969Q17.5293 21.0449 21.7285 23.584Q25.9277 26.123 31.4941 26.123ZM33.7891 12.4023Q31.1035 12.4023 29.4678 10.5225Q27.832 8.64258 27.832 6.20117Q27.832 5.56641 27.9785 4.73633Q28.125 3.90625 28.5156 3.125L74.7559-78.0762Q75.5371-79.541 76.9775-80.2246Q78.418-80.9082 79.9316-80.9082Q81.4453-80.9082 82.8369-80.2246Q84.2285-79.541 85.0586-78.0762L131.25 3.22266Q132.031 4.63867 132.031 6.20117Q132.031 7.86133 131.274 9.25293Q130.518 10.6445 129.15 11.5234Q127.783 12.4023 126.025 12.4023Z"/>
   <path class="hierarchical-1:primary SFSymbolsPreview212121" d="M79.9316-18.6035Q85.7422-18.6035 85.9863-24.6582L86.9629-52.2461Q87.1094-55.2734 85.1074-57.2021Q83.1055-59.1309 79.8828-59.1309Q76.6602-59.1309 74.6826-57.2266Q72.7051-55.3223 72.8516-52.2949L73.7793-24.6094Q73.9746-18.6035 79.9316-18.6035ZM79.9316 2.53906Q83.252 2.53906 85.5225 0.537109Q87.793-1.46484 87.793-4.63867Q87.793-7.8125 85.5225-9.79004Q83.252-11.7676 79.9316-11.7676Q76.6602-11.7676 74.3652-9.79004Q72.0703-7.8125 72.0703-4.63867Q72.0703-1.46484 74.3652 0.537109Q76.6602 2.53906 79.9316 2.53906Z"/>
  </g>
  <g id="Semibold-L" transform="matrix(1 0 0 1 1963.94 1556)">
   <path class="hierarchical-0:secondary SFSymbolsPreview4D4D4D" d="M30.8105 25.293L127.881 25.293Q133.301 25.293 137.305 22.876Q141.309 20.459 143.53 16.3574Q145.752 12.2559 145.752 7.37305Q145.752 5.17578 145.166 2.92969Q144.58 0.683594 143.408-1.46484L94.7754-86.4258Q92.2363-90.918 88.0615-93.1885Q83.8867-95.459 79.3457-95.459Q74.8047-95.459 70.6055-93.1641Q66.4062-90.8691 63.916-86.4258L15.2344-1.41602Q12.8906 2.68555 12.8906 7.37305Q12.8906 12.2559 15.1123 16.3574Q17.334 20.459 21.3623 22.876Q25.3906 25.293 30.8105 25.293ZM32.2754 13.5254Q29.2969 13.5254 27.417 11.4014Q25.5371 9.27734 25.5371 6.54297Q25.5371 5.81055 25.708 4.88281Q25.8789 3.95508 26.3184 3.07617L73.4863-79.5898Q74.4141-81.2988 76.0254-82.0801Q77.6367-82.8613 79.3457-82.8613Q81.0547-82.8613 82.6172-82.0557Q84.1797-81.25 85.1562-79.5898L132.227 3.17383Q133.105 4.78516 133.105 6.54297Q133.105 8.39844 132.251 9.98535Q131.396 11.5723 129.883 12.5488Q128.369 13.5254 126.367 13.5254Z"/>
   <path class="hierarchical-1:primary SFSymbolsPreview212121" d="M79.3457-18.457Q84.5215-18.457 84.7168-23.9258L85.5957-53.6621Q85.6934-56.3477 83.9111-58.1055Q82.1289-59.8633 79.2969-59.8633Q76.416-59.8633 74.6582-58.1299Q72.9004-56.3965 72.9492-53.7109L73.8281-23.877Q74.0234-18.457 79.3457-18.457ZM79.3457 2.19727Q82.3242 2.19727 84.4482 0.292969Q86.5723-1.61133 86.5723-4.54102Q86.5723-7.4707 84.4727-9.375Q82.373-11.2793 79.3457-11.2793Q76.3184-11.2793 74.1943-9.35059Q72.0703-7.42188 72.0703-4.54102Q72.0703-1.61133 74.2188 0.292969Q76.3672 2.19727 79.3457 2.19727Z"/>
  </g>
  <g id="Medium-L" transform="matrix(1 0 0 1 1667.65 1556)">
   <path class="hierarchical-0:secondary SFSymbolsPreview4D4D4D" d="M30.3223 24.707L127.539 24.707Q132.812 24.707 136.719 22.3633Q140.625 20.0195 142.773 16.04Q144.922 12.0605 144.922 7.27539Q144.922 5.12695 144.336 2.9541Q143.75 0.78125 142.578-1.31836L93.8965-86.4258Q91.4062-90.7227 87.3779-92.9443Q83.3496-95.166 78.9551-95.166Q74.5117-95.166 70.4346-92.9443Q66.3574-90.7227 63.916-86.4258L15.1855-1.2207Q12.8906 2.7832 12.8906 7.27539Q12.8906 12.0605 15.0391 16.04Q17.1875 20.0195 21.0938 22.3633Q25 24.707 30.3223 24.707ZM31.1523 14.3555Q27.8809 14.3555 25.8789 12.085Q23.877 9.81445 23.877 6.83594Q23.877 6.00586 24.0479 5.00488Q24.2188 4.00391 24.707 3.07617L72.5586-80.7617Q73.584-82.6172 75.3174-83.4717Q77.0508-84.3262 78.9551-84.3262Q80.7617-84.3262 82.4707-83.4717Q84.1797-82.6172 85.2051-80.7617L133.008 3.125Q133.984 4.88281 133.984 6.83594Q133.984 8.83789 133.032 10.5469Q132.08 12.2559 130.42 13.3057Q128.76 14.3555 126.611 14.3555Z"/>
   <path class="hierarchical-1:primary SFSymbolsPreview212121" d="M78.9062-18.3594Q83.6426-18.3594 83.7891-23.3887L84.6191-54.7363Q84.7168-57.1777 83.0566-58.7891Q81.3965-60.4004 78.8574-60.4004Q76.2695-60.4004 74.6582-58.8135Q73.0469-57.2266 73.0957-54.7852L73.9258-23.3398Q74.0234-18.3594 78.9062-18.3594ZM78.9062 2.00195Q81.6895 2.00195 83.6914 0.146484Q85.6934-1.70898 85.6934-4.44336Q85.6934-7.17773 83.7158-9.00879Q81.7383-10.8398 78.9062-10.8398Q76.0742-10.8398 74.0967-9.00879Q72.1191-7.17773 72.1191-4.44336Q72.1191-1.75781 74.1211 0.12207Q76.123 2.00195 78.9062 2.00195Z"/>
  </g>
  <g id="Regular-L" transform="matrix(1 0 0 1 1371.5 1556)">
   <path class="hierarchical-0:secondary SFSymbolsPreview4D4D4D" d="M29.6387 23.9258L127.1 23.9258Q132.178 23.9258 135.938 21.6797Q139.697 19.4336 141.748 15.625Q143.799 11.8164 143.799 7.17773Q143.799 5.12695 143.237 3.02734Q142.676 0.927734 141.553-1.07422L92.7246-86.377Q90.3809-90.5273 86.499-92.6758Q82.6172-94.8242 78.3691-94.8242Q74.1211-94.8242 70.2148-92.6758Q66.3086-90.5273 63.9648-86.377L15.0879-0.976562Q12.8906 2.83203 12.8906 7.17773Q12.8906 11.8164 14.9414 15.625Q16.9922 19.4336 20.752 21.6797Q24.5117 23.9258 29.6387 23.9258ZM29.6875 15.4785Q26.0742 15.4785 23.8525 12.9639Q21.6309 10.4492 21.6309 7.17773Q21.6309 6.25 21.8262 5.17578Q22.0215 4.10156 22.5586 3.02734L71.3379-82.2754Q72.4609-84.3262 74.3896-85.2783Q76.3184-86.2305 78.3691-86.2305Q80.4199-86.2305 82.2754-85.2783Q84.1309-84.3262 85.3027-82.2754L133.984 3.07617Q135.059 5.0293 135.059 7.17773Q135.059 9.375 134.033 11.2549Q133.008 13.1348 131.177 14.3066Q129.346 15.4785 126.953 15.4785Z"/>
   <path class="hierarchical-1:primary SFSymbolsPreview212121" d="M78.3203-18.1641Q82.4219-18.1641 82.5195-22.6074L83.3008-56.1523Q83.3496-58.252 81.9092-59.668Q80.4688-61.084 78.2715-61.084Q76.0254-61.084 74.6338-59.6924Q73.2422-58.3008 73.2422-56.2012L74.0234-22.6074Q74.0723-18.1641 78.3203-18.1641ZM78.3203 1.70898Q80.8105 1.70898 82.666-0.0488281Q84.5215-1.80664 84.5215-4.29688Q84.5215-6.83594 82.6904-8.56934Q80.8594-10.3027 78.3203-10.3027Q75.7812-10.3027 73.9502-8.54492Q72.1191-6.78711 72.1191-4.29688Q72.1191-1.85547 73.9746-0.0732422Q75.8301 1.70898 78.3203 1.70898Z"/>
  </g>
  <g id="Light-L" transform="matrix(1 0 0 1 1075.37 1556)">
   <path class="hierarchical-0:secondary SFSymbolsPreview4D4D4D" d="M28.7109 23.4863L126.855 23.4863Q131.592 23.4863 135.156 21.3135Q138.721 19.1406 140.674 15.5273Q142.627 11.9141 142.627 7.61719Q142.627 5.66406 142.114 3.66211Q141.602 1.66016 140.527-0.244141L91.3574-86.5234Q89.1602-90.4297 85.4736-92.4561Q81.7871-94.4824 77.7832-94.4824Q73.7793-94.4824 70.0684-92.4561Q66.3574-90.4297 64.1602-86.5234L14.9414-0.0976562Q12.8906 3.4668 12.8906 7.61719Q12.8906 11.9141 14.8682 15.5273Q16.8457 19.1406 20.4102 21.3135Q23.9746 23.4863 28.7109 23.4863ZM28.8086 16.9434Q24.707 16.9434 22.168 14.1113Q19.6289 11.2793 19.6289 7.61719Q19.6289 6.54297 19.873 5.34668Q20.1172 4.15039 20.7031 2.92969L69.8242-83.3496Q71.0938-85.6934 73.2666-86.7676Q75.4395-87.8418 77.7832-87.8418Q80.127-87.8418 82.2266-86.7676Q84.3262-85.6934 85.6445-83.3496L134.668 2.92969Q135.889 5.17578 135.889 7.61719Q135.889 10.1074 134.717 12.207Q133.545 14.3066 131.494 15.625Q129.443 16.9434 126.709 16.9434Z"/>
   <path class="hierarchical-1:primary SFSymbolsPreview212121" d="M77.7344-18.1152Q81.0059-18.1152 81.1035-21.8262L81.7383-55.7129Q81.7383-57.4219 80.6152-58.5693Q79.4922-59.7168 77.6855-59.7168Q75.8789-59.7168 74.7803-58.5938Q73.6816-57.4707 73.6816-55.7617L74.3164-21.8262Q74.3652-18.1152 77.7344-18.1152ZM77.7344 0.927734Q79.9316 0.927734 81.5186-0.634766Q83.1055-2.19727 83.1055-4.3457Q83.1055-6.54297 81.543-8.08105Q79.9805-9.61914 77.7344-9.61914Q75.5371-9.61914 73.9502-8.05664Q72.3633-6.49414 72.3633-4.3457Q72.3633-2.24609 73.9502-0.65918Q75.5371 0.927734 77.7344 0.927734Z"/>
  </g>
  <g id="Thin-L" transform="matrix(1 0 0 1 779.431 1556)">
   <path class="hierarchical-0:secondary SFSymbolsPreview4D4D4D" d="M27.5391 22.8516L126.514 22.8516Q130.859 22.8516 134.131 20.8008Q137.402 18.75 139.258 15.3809Q141.113 12.0117 141.113 8.1543Q141.113 6.29883 140.674 4.46777Q140.234 2.63672 139.209 0.878906L89.5996-86.6699Q87.5488-90.332 84.1309-92.1631Q80.7129-93.9941 77.0508-93.9941Q73.3887-93.9941 69.8975-92.1631Q66.4062-90.332 64.4043-86.6699L14.6973 1.02539Q12.8906 4.29688 12.8906 8.1543Q12.8906 12.0117 14.7461 15.3809Q16.6016 18.75 19.8975 20.8008Q23.1934 22.8516 27.5391 22.8516ZM27.6367 18.8965Q22.8516 18.8965 19.9463 15.6494Q17.041 12.4023 17.041 8.1543Q17.041 6.93359 17.3096 5.59082Q17.5781 4.24805 18.2617 2.73438L67.8711-84.8145Q69.3359-87.4512 71.8262-88.7451Q74.3164-90.0391 77.0508-90.0391Q79.7363-90.0391 82.1533-88.7695Q84.5703-87.5 86.1328-84.8145L135.547 2.73438Q137.012 5.32227 137.012 8.1543Q137.012 11.0352 135.669 13.4766Q134.326 15.918 131.934 17.4072Q129.541 18.8965 126.416 18.8965Z"/>
   <path class="hierarchical-1:primary SFSymbolsPreview212121" d="M77.002-18.1152Q79.1992-18.1152 79.248-20.8008L79.6875-55.1758Q79.6875-56.3477 78.9551-57.1289Q78.2227-57.9102 77.002-57.9102Q75.7812-57.9102 75.0488-57.1533Q74.3164-56.3965 74.3164-55.1758L74.8047-20.8008Q74.7559-18.1152 77.002-18.1152ZM77.002-0.146484Q78.8086-0.146484 80.0537-1.44043Q81.2988-2.73438 81.2988-4.39453Q81.2988-6.15234 80.0537-7.42188Q78.8086-8.69141 77.002-8.69141Q75.1953-8.69141 73.9502-7.42188Q72.7051-6.15234 72.7051-4.39453Q72.7051-2.73438 73.9746-1.44043Q75.2441-0.146484 77.002-0.146484Z"/>
  </g>
  <g id="Ultralight-L" transform="matrix(1 0 0 1 483.115 1556)">
   <path class="hierarchical-0:secondary SFSymbolsPreview4D4D4D" d="M26.9043 22.5586L126.367 22.5586Q130.469 22.5586 133.618 20.5322Q136.768 18.5059 138.525 15.3076Q140.283 12.1094 140.283 8.44727Q140.283 6.68945 139.893 4.93164Q139.502 3.17383 138.525 1.41602L88.6719-86.7676Q86.7676-90.2344 83.4717-92.0166Q80.1758-93.7988 76.6602-93.7988Q73.1445-93.7988 69.7998-92.0166Q66.4551-90.2344 64.502-86.7676L14.5996 1.61133Q12.8906 4.6875 12.8906 8.44727Q12.8906 12.1094 14.6973 15.3076Q16.5039 18.5059 19.6777 20.5322Q22.8516 22.5586 26.9043 22.5586ZM27.002 19.873Q21.9238 19.873 18.7988 16.4307Q15.6738 12.9883 15.6738 8.44727Q15.6738 7.17773 15.9912 5.7373Q16.3086 4.29688 17.041 2.68555L66.8457-85.5469Q68.4082-88.3789 71.0693-89.7461Q73.7305-91.1133 76.6602-91.1133Q79.541-91.1133 82.1289-89.7705Q84.7168-88.4277 86.3281-85.5469L135.986 2.63672Q137.549 5.41992 137.549 8.44727Q137.549 11.5234 136.108 14.1113Q134.668 16.6992 132.153 18.2861Q129.639 19.873 126.27 19.873Z"/>
   <path class="hierarchical-1:primary SFSymbolsPreview212121" d="M76.6113-18.1152Q78.2715-18.1152 78.2715-20.2637L78.6621-54.9316Q78.6133-55.8105 78.1006-56.3965Q77.5879-56.9824 76.6113-56.9824Q75.6836-56.9824 75.1465-56.3965Q74.6094-55.8105 74.6094-54.8828L75-20.2637Q74.9512-18.1152 76.6113-18.1152ZM76.6113-0.683594Q78.1738-0.683594 79.2725-1.85547Q80.3711-3.02734 80.3711-4.44336Q80.3711-5.95703 79.2969-7.10449Q78.2227-8.25195 76.6113-8.25195Q75.0488-8.25195 73.9502-7.12891Q72.8516-6.00586 72.8516-4.44336Q72.8516-3.02734 73.9502-1.85547Q75.0488-0.683594 76.6113-0.683594Z"/>
  </g>
  <g id="Black-M" transform="matrix(1 0 0 1 2869.87 1126)">
   <path class="hierarchical-0:secondary SFSymbolsPreview4D4D4D" d="M26.2695 14.6973L100.83 14.6973Q105.615 14.6973 109.277 12.4023Q112.939 10.1074 115.015 6.37207Q117.09 2.63672 117.09-1.66016Q117.09-3.71094 116.602-5.7373Q116.113-7.76367 114.99-9.7168L77.6367-75.0488Q75.2441-79.1992 71.4844-81.2256Q67.7246-83.252 63.5742-83.252Q59.375-83.252 55.542-81.1768Q51.709-79.1016 49.4141-75.0488L12.0605-9.66797Q9.96094-5.9082 9.96094-1.66016Q9.96094 2.63672 12.0361 6.37207Q14.1113 10.1074 17.7979 12.4023Q21.4844 14.6973 26.2695 14.6973ZM30.6641-1.46484Q29.541-1.46484 28.8574-2.24609Q28.1738-3.02734 28.1738-4.10156Q28.1738-4.39453 28.2227-4.78516Q28.2715-5.17578 28.418-5.46875L61.377-63.8184Q61.6699-64.4043 62.3047-64.6484Q62.9395-64.8926 63.5742-64.8926Q64.1602-64.8926 64.7705-64.624Q65.3809-64.3555 65.6738-63.7695L98.6816-5.32227Q98.9258-4.78516 98.9258-4.10156Q98.9258-3.02734 98.2422-2.24609Q97.5586-1.46484 96.4355-1.46484Z"/>
   <path class="hierarchical-1:primary SFSymbolsPreview212121" d="M63.6719-22.9004Q69.873-22.9004 70.2637-29.1992L71.0938-43.7012Q71.3379-46.9727 69.2383-48.999Q67.1387-51.0254 63.5742-51.0254Q60.0586-51.0254 57.959-48.999Q55.8594-46.9727 56.1035-43.7012L56.9336-29.1016Q57.3242-22.9004 63.6719-22.9004ZM63.6719-5.32227Q67.041-5.32227 69.1895-7.05566Q71.3379-8.78906 71.3379-11.9141Q71.3379-15.0391 69.1895-16.7969Q67.041-18.5547 63.6719-18.5547Q60.3027-18.5547 58.0811-16.8213Q55.8594-15.0879 55.8594-11.9141Q55.8594-8.78906 58.0811-7.05566Q60.3027-5.32227 63.6719-5.32227Z"/>
  </g>
  <g id="Heavy-M" transform="matrix(1 0 0 1 2573.76 1126)">
   <path class="hierarchical-0:secondary SFSymbolsPreview4D4D4D" d="M25.5859 13.8184L100.293 13.8184Q104.932 13.8184 108.447 11.6211Q111.963 9.42383 113.94 5.85938Q115.918 2.29492 115.918-1.85547Q115.918-3.85742 115.43-5.81055Q114.941-7.76367 113.867-9.61914L76.4648-75Q74.1699-78.9551 70.5566-80.9082Q66.9434-82.8613 62.9883-82.8613Q58.9844-82.8613 55.2979-80.8838Q51.6113-78.9062 49.4141-75L12.0117-9.57031Q9.96094-5.95703 9.96094-1.85547Q9.96094 2.29492 11.9385 5.85938Q13.916 9.42383 17.4316 11.6211Q20.9473 13.8184 25.5859 13.8184ZM28.9551-0.341797Q27.4902-0.341797 26.6113-1.36719Q25.7324-2.39258 25.7324-3.75977Q25.7324-4.15039 25.8057-4.61426Q25.8789-5.07812 26.0742-5.46875L60.1562-65.5273Q60.5469-66.3086 61.3525-66.6504Q62.1582-66.9922 62.9883-66.9922Q63.7695-66.9922 64.5264-66.626Q65.2832-66.2598 65.7227-65.4785L99.8047-5.37109Q100.146-4.63867 100.146-3.75977Q100.146-2.39258 99.2676-1.36719Q98.3887-0.341797 96.9238-0.341797Z"/>
   <path class="hierarchical-1:primary SFSymbolsPreview212121" d="M63.0371-22.7051Q68.6523-22.7051 68.9453-28.418L69.7754-45.6055Q69.9707-48.5352 68.042-50.3906Q66.1133-52.2461 62.9395-52.2461Q59.7656-52.2461 57.8857-50.3906Q56.0059-48.5352 56.2012-45.6055L56.9824-28.3691Q57.2754-22.7051 63.0371-22.7051ZM63.0371-5.56641Q66.1133-5.56641 68.1152-7.22656Q70.1172-8.88672 70.1172-11.7676Q70.1172-14.6973 68.1152-16.3818Q66.1133-18.0664 63.0371-18.0664Q59.9609-18.0664 57.8857-16.3818Q55.8105-14.6973 55.8105-11.7676Q55.8105-8.88672 57.8857-7.22656Q59.9609-5.56641 63.0371-5.56641Z"/>
  </g>
  <g id="Bold-M" transform="matrix(1 0 0 1 2277.71 1126)">
   <path class="hierarchical-0:secondary SFSymbolsPreview4D4D4D" d="M24.8535 12.793L99.707 12.793Q104.199 12.793 107.544 10.7422Q110.889 8.69141 112.744 5.29785Q114.6 1.9043 114.6-2.14844Q114.6-4.00391 114.111-5.85938Q113.623-7.71484 112.646-9.47266L75.1465-74.9512Q72.998-78.7109 69.5557-80.5908Q66.1133-82.4707 62.3047-82.4707Q58.4961-82.4707 55.0049-80.5664Q51.5137-78.6621 49.4141-74.9512L11.9141-9.42383Q9.96094-6.00586 9.96094-2.14844Q9.96094 1.9043 11.8164 5.29785Q13.6719 8.69141 17.041 10.7422Q20.4102 12.793 24.8535 12.793ZM27.0996 0.878906Q25.2441 0.878906 24.1455-0.415039Q23.0469-1.70898 23.0469-3.36914Q23.0469-3.85742 23.1445-4.41895Q23.2422-4.98047 23.4863-5.51758L58.7402-67.4805Q59.3262-68.457 60.3027-68.9209Q61.2793-69.3848 62.3047-69.3848Q63.3301-69.3848 64.2822-68.9209Q65.2344-68.457 65.7715-67.4316L101.074-5.41992Q101.562-4.44336 101.562-3.36914Q101.562-1.70898 100.439-0.415039Q99.3164 0.878906 97.4609 0.878906Z"/>
   <path class="hierarchical-1:primary SFSymbolsPreview212121" d="M62.4023-22.5098Q67.334-22.5098 67.5293-27.5879L68.3105-47.7051Q68.457-50.293 66.7725-51.9287Q65.0879-53.5645 62.3047-53.5645Q59.5703-53.5645 57.8857-51.9287Q56.2012-50.293 56.3477-47.7539L57.0801-27.5391Q57.3242-22.5098 62.4023-22.5098ZM62.4023-5.76172Q65.1367-5.76172 66.9922-7.37305Q68.8477-8.98438 68.8477-11.6211Q68.8477-14.2578 66.9922-15.8691Q65.1367-17.4805 62.4023-17.4805Q59.6191-17.4805 57.7393-15.8691Q55.8594-14.2578 55.8594-11.6211Q55.8594-8.98438 57.7393-7.37305Q59.6191-5.76172 62.4023-5.76172Z"/>
  </g>
  <g id="Semibold-M" transform="matrix(1 0 0 1 1981.46 1126)">
   <path class="hierarchical-0:secondary SFSymbolsPreview4D4D4D" d="M24.3164 12.1094L99.3164 12.1094Q103.662 12.1094 106.885 10.1318Q110.107 8.1543 111.89 4.90723Q113.672 1.66016 113.672-2.29492Q113.672-4.10156 113.184-5.9082Q112.695-7.71484 111.768-9.375L74.2188-74.9023Q72.168-78.5156 68.8232-80.3223Q65.4785-82.1289 61.8652-82.1289Q58.1543-82.1289 54.8096-80.2979Q51.4648-78.4668 49.4141-74.9023L11.8652-9.32617Q9.96094-6.00586 9.96094-2.29492Q9.96094 1.66016 11.7432 4.90723Q13.5254 8.1543 16.748 10.1318Q19.9707 12.1094 24.3164 12.1094ZM25.7812 1.70898Q23.6816 1.70898 22.4121 0.268555Q21.1426-1.17188 21.1426-3.07617Q21.1426-3.61328 21.2646-4.27246Q21.3867-4.93164 21.6797-5.51758L57.7637-68.7988Q58.4473-69.9219 59.5459-70.459Q60.6445-70.9961 61.8652-70.9961Q62.9883-70.9961 64.0625-70.459Q65.1367-69.9219 65.8203-68.75L101.904-5.41992Q102.539-4.29688 102.539-3.07617Q102.539-1.17188 101.221 0.268555Q99.9023 1.70898 97.8516 1.70898Z"/>
   <path class="hierarchical-1:primary SFSymbolsPreview212121" d="M61.8652-22.3633Q66.3086-22.3633 66.5039-27.002L67.2363-49.1699Q67.3828-51.5137 65.8203-53.0029Q64.2578-54.4922 61.8164-54.4922Q59.3262-54.4922 57.8125-53.0029Q56.2988-51.5137 56.3965-49.2188L57.0801-26.9531Q57.2754-22.3633 61.8652-22.3633ZM61.8652-5.95703Q64.3555-5.95703 66.1377-7.49512Q67.9199-9.0332 67.9199-11.5234Q67.9199-13.9648 66.1621-15.5273Q64.4043-17.0898 61.8652-17.0898Q59.3262-17.0898 57.5439-15.5273Q55.7617-13.9648 55.7617-11.5234Q55.7617-9.08203 57.5439-7.51953Q59.3262-5.95703 61.8652-5.95703Z"/>
  </g>
  <g id="Medium-M" transform="matrix(1 0 0 1 1685.09 1126)">
   <path class="hierarchical-0:secondary SFSymbolsPreview4D4D4D" d="M23.9258 11.5723L98.9746 11.5723Q103.271 11.5723 106.396 9.66797Q109.521 7.76367 111.255 4.58984Q112.988 1.41602 112.988-2.44141Q112.988-4.15039 112.5-5.9082Q112.012-7.66602 111.084-9.32617L73.5352-74.8535Q71.5332-78.3691 68.2861-80.1514Q65.0391-81.9336 61.4746-81.9336Q57.9102-81.9336 54.6387-80.127Q51.3672-78.3203 49.4141-74.8535L11.8164-9.27734Q9.96094-6.00586 9.96094-2.44141Q9.96094 1.41602 11.6699 4.58984Q13.3789 7.76367 16.5283 9.66797Q19.6777 11.5723 23.9258 11.5723ZM24.7559 2.39258Q22.5098 2.39258 21.1182 0.78125Q19.7266-0.830078 19.7266-2.88086Q19.7266-3.4668 19.8486-4.15039Q19.9707-4.83398 20.3125-5.51758L57.0312-69.7754Q57.7637-71.0449 58.96-71.6309Q60.1562-72.2168 61.4746-72.2168Q62.7441-72.2168 63.916-71.6309Q65.0879-71.0449 65.8203-69.7754L102.588-5.41992Q103.271-4.24805 103.271-2.88086Q103.271-0.830078 101.831 0.78125Q100.391 2.39258 98.0957 2.39258Z"/>
   <path class="hierarchical-1:primary SFSymbolsPreview212121" d="M61.4746-22.2168Q65.625-22.2168 65.7227-26.5137L66.4551-50.293Q66.5527-52.3926 65.1123-53.7842Q63.6719-55.1758 61.4258-55.1758Q59.1797-55.1758 57.7637-53.8086Q56.3477-52.4414 56.4453-50.3418L57.1289-26.5137Q57.2754-22.2168 61.4746-22.2168ZM61.4746-6.05469Q63.8184-6.05469 65.5029-7.56836Q67.1875-9.08203 67.1875-11.4258Q67.1875-13.7207 65.5273-15.2588Q63.8672-16.7969 61.4746-16.7969Q59.1309-16.7969 57.4463-15.2588Q55.7617-13.7207 55.7617-11.4258Q55.7617-9.13086 57.4463-7.59277Q59.1309-6.05469 61.4746-6.05469Z"/>
  </g>
  <g id="Regular-M" transform="matrix(1 0 0 1 1388.83 1126)">
   <path class="hierarchical-0:secondary SFSymbolsPreview4D4D4D" d="M23.4375 10.8887L98.584 10.8887Q102.734 10.8887 105.762 9.08203Q108.789 7.27539 110.425 4.22363Q112.061 1.17188 112.061-2.58789Q112.061-4.24805 111.597-5.95703Q111.133-7.66602 110.254-9.22852L72.6074-74.8047Q70.7031-78.1738 67.5781-79.9072Q64.4531-81.6406 61.0352-81.6406Q57.6172-81.6406 54.4678-79.9072Q51.3184-78.1738 49.4141-74.8047L11.7676-9.17969Q9.96094-6.05469 9.96094-2.58789Q9.96094 1.17188 11.5967 4.22363Q13.2324 7.27539 16.2598 9.08203Q19.2871 10.8887 23.4375 10.8887ZM23.4863 3.22266Q20.9473 3.22266 19.4092 1.44043Q17.8711-0.341797 17.8711-2.58789Q17.8711-3.27148 18.0176-4.02832Q18.1641-4.78516 18.5059-5.51758L56.1035-71.0938Q56.9336-72.5098 58.252-73.1689Q59.5703-73.8281 61.0352-73.8281Q62.4512-73.8281 63.7451-73.1689Q65.0391-72.5098 65.8691-71.0938L103.418-5.46875Q104.199-4.10156 104.199-2.58789Q104.199-0.341797 102.612 1.44043Q101.025 3.22266 98.4863 3.22266Z"/>
   <path class="hierarchical-1:primary SFSymbolsPreview212121" d="M61.0352-22.0703Q64.6973-22.0703 64.7461-25.9277L65.4785-51.709Q65.5273-53.5645 64.2334-54.8096Q62.9395-56.0547 60.9863-56.0547Q58.9844-56.0547 57.7393-54.834Q56.4941-53.6133 56.543-51.7578L57.1777-25.9277Q57.2754-22.0703 61.0352-22.0703ZM61.0352-6.20117Q63.1348-6.20117 64.7217-7.66602Q66.3086-9.13086 66.3086-11.2793Q66.3086-13.4277 64.7461-14.8926Q63.1836-16.3574 61.0352-16.3574Q58.8867-16.3574 57.3242-14.8682Q55.7617-13.3789 55.7617-11.2793Q55.7617-9.17969 57.3242-7.69043Q58.8867-6.20117 61.0352-6.20117Z"/>
  </g>
  <g id="Light-M" transform="matrix(1 0 0 1 1092.64 1126)">
   <path class="hierarchical-0:secondary SFSymbolsPreview4D4D4D" d="M22.6562 10.498L98.3887 10.498Q102.197 10.498 105.054 8.76465Q107.91 7.03125 109.473 4.15039Q111.035 1.26953 111.035-2.19727Q111.035-3.75977 110.62-5.37109Q110.205-6.98242 109.326-8.49609L71.3867-74.9023Q69.6289-78.0762 66.6748-79.6875Q63.7207-81.2988 60.498-81.2988Q57.3242-81.2988 54.3457-79.6875Q51.3672-78.0762 49.5605-74.9023L11.6211-8.39844Q9.96094-5.51758 9.96094-2.19727Q9.96094 1.26953 11.5234 4.15039Q13.0859 7.03125 15.9424 8.76465Q18.7988 10.498 22.6562 10.498ZM22.7051 4.54102Q19.7266 4.54102 17.9199 2.49023Q16.1133 0.439453 16.1133-2.19727Q16.1133-2.97852 16.2842-3.85742Q16.4551-4.73633 16.8457-5.61523L54.7363-72.0703Q55.7129-73.7305 57.251-74.5117Q58.7891-75.293 60.498-75.293Q62.207-75.293 63.7207-74.5117Q65.2344-73.7305 66.2109-72.0703L104.004-5.56641Q104.932-4.00391 104.932-2.19727Q104.932 0.439453 103.076 2.49023Q101.221 4.54102 98.291 4.54102Z"/>
   <path class="hierarchical-1:primary SFSymbolsPreview212121" d="M60.5469-22.0215Q63.4766-22.0215 63.4766-25.1953L64.0625-51.3184Q64.1113-52.832 63.1104-53.8086Q62.1094-54.7852 60.498-54.7852Q58.8867-54.7852 57.9102-53.8086Q56.9336-52.832 56.9824-51.3184L57.4707-25.1953Q57.5195-22.0215 60.5469-22.0215ZM60.5469-6.88477Q62.3535-6.88477 63.7207-8.17871Q65.0879-9.47266 65.0879-11.2793Q65.0879-13.1348 63.7451-14.4287Q62.4023-15.7227 60.5469-15.7227Q58.6914-15.7227 57.3486-14.4287Q56.0059-13.1348 56.0059-11.2793Q56.0059-9.47266 57.3486-8.17871Q58.6914-6.88477 60.5469-6.88477Z"/>
  </g>
  <g id="Thin-M" transform="matrix(1 0 0 1 796.624 1126)">
   <path class="hierarchical-0:secondary SFSymbolsPreview4D4D4D" d="M21.582 9.96094L98.0957 9.96094Q101.562 9.96094 104.15 8.3252Q106.738 6.68945 108.179 4.02832Q109.619 1.36719 109.619-1.70898Q109.619-3.17383 109.277-4.63867Q108.936-6.10352 108.154-7.51953L69.7754-75.0977Q68.1641-77.9785 65.4541-79.4434Q62.7441-80.9082 59.8633-80.9082Q56.9336-80.9082 54.1748-79.4434Q51.416-77.9785 49.8047-75.0977L11.4258-7.37305Q9.96094-4.78516 9.96094-1.70898Q9.96094 1.36719 11.4258 4.02832Q12.8906 6.68945 15.5029 8.3252Q18.1152 9.96094 21.582 9.96094ZM21.6309 6.29883Q18.1152 6.29883 15.9424 3.88184Q13.7695 1.46484 13.7695-1.70898Q13.7695-2.63672 13.9648-3.66211Q14.1602-4.6875 14.6973-5.76172L52.9785-73.3398Q54.1016-75.3418 55.9326-76.2939Q57.7637-77.2461 59.8633-77.2461Q61.8652-77.2461 63.6719-76.2939Q65.4785-75.3418 66.6016-73.3398L104.834-5.76172Q105.908-3.80859 105.908-1.70898Q105.908 1.46484 103.711 3.88184Q101.514 6.29883 98.0469 6.29883Z"/>
   <path class="hierarchical-1:primary SFSymbolsPreview212121" d="M59.8145-21.9727Q61.7676-21.9727 61.7676-24.2676L62.1582-50.8301Q62.1582-51.8555 61.5234-52.5146Q60.8887-53.1738 59.8145-53.1738Q58.7402-53.1738 58.0811-52.5146Q57.4219-51.8555 57.4219-50.8301L57.8125-24.2676Q57.8125-21.9727 59.8145-21.9727ZM59.8145-7.8125Q61.2793-7.8125 62.3291-8.8623Q63.3789-9.91211 63.3789-11.3281Q63.3789-12.793 62.3535-13.8184Q61.3281-14.8438 59.8145-14.8438Q58.3008-14.8438 57.2754-13.8184Q56.25-12.793 56.25-11.3281Q56.25-9.91211 57.2754-8.8623Q58.3008-7.8125 59.8145-7.8125Z"/>
  </g>
  <g id="Ultralight-M" transform="matrix(1 0 0 1 500.267 1126)">
   <path class="hierarchical-0:secondary SFSymbolsPreview4D4D4D" d="M21.0449 9.66797L97.9492 9.66797Q101.172 9.66797 103.638 8.08105Q106.104 6.49414 107.52 3.95508Q108.936 1.41602 108.936-1.46484Q108.936-2.83203 108.618-4.22363Q108.301-5.61523 107.52-6.98242L68.9941-75.1465Q67.4316-77.8809 64.8438-79.2725Q62.2559-80.6641 59.4727-80.6641Q56.7383-80.6641 54.1016-79.2725Q51.4648-77.8809 49.9023-75.1465L11.3281-6.88477Q9.96094-4.44336 9.96094-1.46484Q9.96094 1.41602 11.377 3.95508Q12.793 6.49414 15.2832 8.08105Q17.7734 9.66797 21.0449 9.66797ZM21.0938 7.17773Q17.2852 7.17773 14.917 4.56543Q12.5488 1.95312 12.5488-1.46484Q12.5488-2.44141 12.7686-3.54004Q12.9883-4.63867 13.5742-5.85938L52.0508-74.0234Q53.2715-76.123 55.2734-77.1729Q57.2754-78.2227 59.4727-78.2227Q61.6699-78.2227 63.623-77.1973Q65.5762-76.1719 66.8457-74.0234L105.225-5.81055Q106.445-3.75977 106.445-1.46484Q106.445 1.95312 104.053 4.56543Q101.66 7.17773 97.9004 7.17773Z"/>
   <path class="hierarchical-1:primary SFSymbolsPreview212121" d="M59.5215-21.9727Q60.9375-21.9727 60.9375-23.7793L61.2305-50.5371Q61.2305-51.3672 60.791-51.8555Q60.3516-52.3438 59.5215-52.3438Q58.6914-52.3438 58.2275-51.8555Q57.7637-51.3672 57.7637-50.5371L58.0566-23.7793Q58.0078-21.9727 59.5215-21.9727ZM59.5215-8.25195Q60.791-8.25195 61.6699-9.2041Q62.5488-10.1562 62.5488-11.377Q62.5488-12.6465 61.6699-13.5498Q60.791-14.4531 59.5215-14.4531Q58.2031-14.4531 57.2998-13.5498Q56.3965-12.6465 56.3965-11.377Q56.3965-10.1562 57.2998-9.2041Q58.2031-8.25195 59.5215-8.25195Z"/>
  </g>
  <g id="Black-S" transform="matrix(1 0 0 1 2883.47 696)">
   <path class="hierarchical-0:secondary SFSymbolsPreview4D4D4D" d="M20.752 4.15039L79.1504 4.15039Q82.9102 4.15039 85.8154 2.31934Q88.7207 0.488281 90.3809-2.46582Q92.041-5.41992 92.041-8.83789Q92.041-10.4492 91.6504-12.085Q91.2598-13.7207 90.3809-15.2344L61.1328-66.4551Q59.2285-69.7754 56.25-71.3623Q53.2715-72.9492 49.9512-72.9492Q46.6797-72.9492 43.6279-71.3135Q40.5762-69.6777 38.7207-66.4551L9.47266-15.1855Q7.8125-12.207 7.8125-8.83789Q7.8125-5.41992 9.47266-2.46582Q11.1328 0.488281 14.0625 2.31934Q16.9922 4.15039 20.752 4.15039ZM24.5117-9.0332Q23.7305-9.0332 23.2178-9.59473Q22.7051-10.1562 22.7051-10.9375Q22.7051-11.1328 22.7539-11.4258Q22.8027-11.7188 22.9004-11.9141L48.3887-57.1777Q48.6328-57.5684 49.0723-57.7393Q49.5117-57.9102 49.9512-57.9102Q50.3906-57.9102 50.8301-57.7148Q51.2695-57.5195 51.4648-57.1289L77.002-11.8164Q77.1973-11.4258 77.1973-10.9375Q77.1973-10.1562 76.709-9.59473Q76.2207-9.0332 75.3906-9.0332Z"/>
   <path class="hierarchical-1:primary SFSymbolsPreview212121" d="M50-25.6348Q55.0293-25.6348 55.3223-30.7129L56.0059-41.2598Q56.2012-43.9453 54.5166-45.5566Q52.832-47.168 49.9512-47.168Q47.1191-47.168 45.4102-45.5566Q43.7012-43.9453 43.8965-41.2598L44.5801-30.6152Q44.873-25.6348 50-25.6348ZM50-11.7676Q52.7344-11.7676 54.4434-13.1348Q56.1523-14.502 56.1523-17.041Q56.1523-19.5312 54.4434-20.9229Q52.7344-22.3145 50-22.3145Q47.3145-22.3145 45.5322-20.9473Q43.75-19.5801 43.75-17.041Q43.75-14.502 45.5322-13.1348Q47.3145-11.7676 50-11.7676Z"/>
  </g>
  <g id="Heavy-S" transform="matrix(1 0 0 1 2587.2 696)">
   <path class="hierarchical-0:secondary SFSymbolsPreview4D4D4D" d="M20.2637 3.41797L78.7109 3.41797Q82.4219 3.41797 85.2051 1.68457Q87.9883-0.0488281 89.5752-2.88086Q91.1621-5.71289 91.1621-9.08203Q91.1621-10.6445 90.7715-12.207Q90.3809-13.7695 89.5508-15.2344L60.2539-66.4062Q58.4473-69.5801 55.5664-71.1182Q52.6855-72.6562 49.5117-72.6562Q46.3379-72.6562 43.4082-71.0693Q40.4785-69.4824 38.7207-66.4062L9.42383-15.1855Q7.8125-12.3047 7.8125-9.08203Q7.8125-5.71289 9.39941-2.88086Q10.9863-0.0488281 13.7939 1.68457Q16.6016 3.41797 20.2637 3.41797ZM23.1445-8.25195Q22.168-8.25195 21.5088-8.98438Q20.8496-9.7168 20.8496-10.6934Q20.8496-10.9375 20.8984-11.2793Q20.9473-11.6211 21.0938-11.9141L47.5098-58.4961Q47.8027-59.0332 48.3643-59.2773Q48.9258-59.5215 49.5117-59.5215Q50.0977-59.5215 50.6348-59.2529Q51.1719-58.9844 51.4648-58.4961L77.8809-11.8164Q78.1738-11.2793 78.1738-10.6934Q78.1738-9.7168 77.5391-8.98438Q76.9043-8.25195 75.8301-8.25195Z"/>
   <path class="hierarchical-1:primary SFSymbolsPreview212121" d="M49.5605-25.4883Q54.1504-25.4883 54.3945-30.127L55.0781-42.9199Q55.2246-45.3613 53.6621-46.8506Q52.0996-48.3398 49.5117-48.3398Q46.9238-48.3398 45.3613-46.8506Q43.7988-45.3613 43.9453-42.9199L44.5801-30.0781Q44.8242-25.4883 49.5605-25.4883ZM49.5605-11.8652Q52.0508-11.8652 53.6621-13.208Q55.2734-14.5508 55.2734-16.8945Q55.2734-19.2383 53.6621-20.5811Q52.0508-21.9238 49.5605-21.9238Q47.0703-21.9238 45.3857-20.6055Q43.7012-19.2871 43.7012-16.8945Q43.7012-14.5508 45.3857-13.208Q47.0703-11.8652 49.5605-11.8652Z"/>
  </g>
  <g id="Bold-S" transform="matrix(1 0 0 1 2290.98 696)">
   <path class="hierarchical-0:secondary SFSymbolsPreview4D4D4D" d="M19.7754 2.63672L78.2715 2.63672Q81.8359 2.63672 84.5215 0.976562Q87.207-0.683594 88.6963-3.39355Q90.1855-6.10352 90.1855-9.375Q90.1855-10.8398 89.7949-12.3535Q89.4043-13.8672 88.623-15.2344L59.3262-66.3086Q57.5684-69.3359 54.8096-70.8496Q52.0508-72.3633 49.0234-72.3633Q45.9961-72.3633 43.1885-70.8252Q40.3809-69.2871 38.7207-66.3086L9.42383-15.2344Q7.8125-12.4512 7.8125-9.375Q7.8125-6.10352 9.30176-3.39355Q10.791-0.683594 13.501 0.976562Q16.2109 2.63672 19.7754 2.63672ZM21.6797-7.42188Q20.4102-7.42188 19.6045-8.3252Q18.7988-9.22852 18.7988-10.4004Q18.7988-10.7422 18.8721-11.1572Q18.9453-11.5723 19.1406-11.9141L46.5332-60.0098Q46.9238-60.6934 47.6074-61.0352Q48.291-61.377 49.0234-61.377Q49.7559-61.377 50.415-61.0352Q51.0742-60.6934 51.4648-60.0098L78.9062-11.8164Q79.248-11.1816 79.248-10.4004Q79.248-9.22852 78.4424-8.3252Q77.6367-7.42188 76.3184-7.42188Z"/>
   <path class="hierarchical-1:primary SFSymbolsPreview212121" d="M49.0723-25.293Q53.1738-25.293 53.3691-29.4922L54.0039-44.7754Q54.1504-46.9238 52.7344-48.291Q51.3184-49.6582 49.0234-49.6582Q46.7285-49.6582 45.3125-48.3154Q43.8965-46.9727 44.043-44.8242L44.6289-29.4434Q44.8242-25.293 49.0723-25.293ZM49.0723-11.9629Q51.3184-11.9629 52.832-13.2568Q54.3457-14.5508 54.3457-16.748Q54.3457-18.8965 52.832-20.2148Q51.3184-21.5332 49.0723-21.5332Q46.7773-21.5332 45.2393-20.2148Q43.7012-18.8965 43.7012-16.748Q43.7012-14.5996 45.2637-13.2812Q46.8262-11.9629 49.0723-11.9629Z"/>
  </g>
  <g id="Semibold-S" transform="matrix(1 0 0 1 1994.61 696)">
   <path class="hierarchical-0:secondary SFSymbolsPreview4D4D4D" d="M19.3848 2.09961L77.9297 2.09961Q81.4453 2.09961 84.0332 0.512695Q86.6211-1.07422 88.0615-3.68652Q89.502-6.29883 89.502-9.52148Q89.502-10.9375 89.1113-12.4023Q88.7207-13.8672 87.9395-15.2344L58.6426-66.2598Q56.9824-69.1895 54.2969-70.6543Q51.6113-72.1191 48.6328-72.1191Q45.7031-72.1191 43.0176-70.6299Q40.332-69.1406 38.6719-66.2598L9.375-15.2344Q7.8125-12.5 7.8125-9.52148Q7.8125-6.29883 9.22852-3.68652Q10.6445-1.07422 13.2568 0.512695Q15.8691 2.09961 19.3848 2.09961ZM20.6055-6.78711Q19.1895-6.78711 18.2617-7.8125Q17.334-8.83789 17.334-10.2051Q17.334-10.5469 17.4316-11.0107Q17.5293-11.4746 17.7246-11.8652L45.8008-61.0352Q46.2891-61.8164 47.0703-62.207Q47.8516-62.5977 48.6328-62.5977Q49.5117-62.5977 50.2686-62.207Q51.0254-61.8164 51.4648-61.0352L79.5898-11.8164Q79.9805-11.0352 79.9805-10.2051Q79.9805-8.83789 79.0771-7.8125Q78.1738-6.78711 76.6602-6.78711Z"/>
   <path class="hierarchical-1:primary SFSymbolsPreview212121" d="M48.6816-25.1465Q52.4902-25.1465 52.5879-29.0527L53.2715-46.0449Q53.3691-47.998 52.0508-49.2676Q50.7324-50.5371 48.6328-50.5371Q46.5332-50.5371 45.2393-49.292Q43.9453-48.0469 44.043-46.0938L44.6289-29.0039Q44.7754-25.1465 48.6816-25.1465ZM48.6816-12.0117Q50.7324-12.0117 52.1973-13.2812Q53.6621-14.5508 53.6621-16.6016Q53.6621-18.6523 52.2217-19.9219Q50.7812-21.1914 48.6816-21.1914Q46.582-21.1914 45.1172-19.9219Q43.6523-18.6523 43.6523-16.6016Q43.6523-14.5996 45.1172-13.3057Q46.582-12.0117 48.6816-12.0117Z"/>
  </g>
  <g id="Medium-S" transform="matrix(1 0 0 1 1698.15 696)">
   <path class="hierarchical-0:secondary SFSymbolsPreview4D4D4D" d="M19.0918 1.66016L77.6855 1.66016Q81.1523 1.66016 83.667 0.12207Q86.1816-1.41602 87.5977-3.95508Q89.0137-6.49414 89.0137-9.66797Q89.0137-11.0352 88.623-12.4756Q88.2324-13.916 87.4512-15.2344L58.1055-66.2109Q56.4941-69.043 53.8818-70.4834Q51.2695-71.9238 48.3887-71.9238Q45.5078-71.9238 42.8711-70.4834Q40.2344-69.043 38.6719-66.2109L9.375-15.2344Q7.8125-12.5488 7.8125-9.66797Q7.8125-6.49414 9.2041-3.95508Q10.5957-1.41602 13.1348 0.12207Q15.6738 1.66016 19.0918 1.66016ZM19.8242-6.34766Q18.2617-6.34766 17.2607-7.4707Q16.2598-8.59375 16.2598-10.0586Q16.2598-10.4492 16.3574-10.9375Q16.4551-11.4258 16.6992-11.8652L45.3125-61.8164Q45.8008-62.6953 46.6553-63.1348Q47.5098-63.5742 48.3887-63.5742Q49.3164-63.5742 50.1221-63.1348Q50.9277-62.6953 51.4648-61.8164L80.0781-11.8164Q80.5176-10.9863 80.5176-10.0586Q80.5176-8.59375 79.541-7.4707Q78.5645-6.34766 76.9043-6.34766Z"/>
   <path class="hierarchical-1:primary SFSymbolsPreview212121" d="M48.4375-25.0488Q52.002-25.0488 52.0996-28.7109L52.7344-47.0215Q52.832-48.8281 51.5869-50.0244Q50.3418-51.2207 48.3887-51.2207Q46.4355-51.2207 45.2393-50.0488Q44.043-48.877 44.0918-47.0703L44.6777-28.7109Q44.8242-25.0488 48.4375-25.0488ZM48.4375-12.0605Q50.3906-12.0605 51.8066-13.3301Q53.2227-14.5996 53.2227-16.5039Q53.2227-18.5059 51.8311-19.751Q50.4395-20.9961 48.4375-20.9961Q46.4355-20.9961 45.0439-19.7266Q43.6523-18.457 43.6523-16.5039Q43.6523-14.5996 45.0684-13.3301Q46.4844-12.0605 48.4375-12.0605Z"/>
  </g>
  <g id="Regular-S" transform="matrix(1 0 0 1 1401.77 696)">
   <path class="hierarchical-0:secondary SFSymbolsPreview4D4D4D" d="M18.75 1.12305L77.3438 1.12305Q80.7617 1.12305 83.2031-0.341797Q85.6445-1.80664 86.9873-4.27246Q88.3301-6.73828 88.3301-9.86328Q88.3301-11.1816 87.9395-12.5732Q87.5488-13.9648 86.8164-15.2344L57.4707-66.1621Q55.9082-68.8965 53.3691-70.3125Q50.8301-71.7285 48.0469-71.7285Q45.2637-71.7285 42.7246-70.3125Q40.1855-68.8965 38.6719-66.1621L9.32617-15.2344Q7.8125-12.6465 7.8125-9.86328Q7.8125-6.73828 9.13086-4.27246Q10.4492-1.80664 12.915-0.341797Q15.3809 1.12305 18.75 1.12305ZM18.7988-5.76172Q17.041-5.76172 15.9424-7.00684Q14.8438-8.25195 14.8438-9.86328Q14.8438-10.3027 14.9414-10.8398Q15.0391-11.377 15.332-11.8652L44.6289-62.8418Q45.166-63.8184 46.1182-64.3066Q47.0703-64.7949 48.0469-64.7949Q49.0723-64.7949 49.9756-64.3066Q50.8789-63.8184 51.4648-62.8418L80.7617-11.8164Q81.25-10.8887 81.25-9.86328Q81.25-8.25195 80.1514-7.00684Q79.0527-5.76172 77.2461-5.76172Z"/>
   <path class="hierarchical-1:primary SFSymbolsPreview212121" d="M48.0957-24.9023Q51.3184-24.9023 51.3672-28.2715L52.002-48.291Q52.0508-49.9023 50.9033-51.001Q49.7559-52.0996 48.0469-52.0996Q46.2891-52.0996 45.1904-51.0254Q44.0918-49.9512 44.1406-48.3398L44.6777-28.2715Q44.7754-24.9023 48.0957-24.9023ZM48.0957-12.1094Q49.8535-12.1094 51.1963-13.3545Q52.5391-14.5996 52.5391-16.4062Q52.5391-18.2617 51.2207-19.4824Q49.9023-20.7031 48.0957-20.7031Q46.2402-20.7031 44.9219-19.458Q43.6035-18.2129 43.6035-16.4062Q43.6035-14.6484 44.9463-13.3789Q46.2891-12.1094 48.0957-12.1094Z"/>
  </g>
  <g id="Light-S" transform="matrix(1 0 0 1 1105.52 696)">
   <path class="hierarchical-0:secondary SFSymbolsPreview4D4D4D" d="M18.0176 0.732422L77.1484 0.732422Q80.2734 0.732422 82.5684-0.65918Q84.8633-2.05078 86.1328-4.3457Q87.4023-6.64062 87.4023-9.52148Q87.4023-10.791 87.0605-12.085Q86.7188-13.3789 86.0352-14.5508L56.3965-66.2598Q54.9316-68.7988 52.5635-70.1172Q50.1953-71.4355 47.6074-71.4355Q45.0195-71.4355 42.627-70.1172Q40.2344-68.7988 38.8184-66.2598L9.17969-14.5508Q7.8125-12.1582 7.8125-9.52148Q7.8125-6.64062 9.05762-4.3457Q10.3027-2.05078 12.6221-0.65918Q14.9414 0.732422 18.0176 0.732422ZM18.0664-4.58984Q15.9668-4.58984 14.624-6.0791Q13.2812-7.56836 13.2812-9.52148Q13.2812-10.0586 13.4033-10.6934Q13.5254-11.3281 13.8672-11.9629L43.457-63.7207Q44.0918-64.8926 45.2393-65.4785Q46.3867-66.0645 47.6074-66.0645Q48.8281-66.0645 49.9268-65.4785Q51.0254-64.8926 51.7578-63.7207L81.2988-11.9141Q81.9336-10.791 81.9336-9.52148Q81.9336-7.56836 80.5908-6.0791Q79.248-4.58984 77.0996-4.58984Z"/>
   <path class="hierarchical-1:primary SFSymbolsPreview212121" d="M47.6562-24.9023Q50.1953-24.9023 50.2441-27.6855L50.7324-47.998Q50.7812-49.3164 49.8779-50.1953Q48.9746-51.0742 47.6074-51.0742Q46.1914-51.0742 45.3125-50.1953Q44.4336-49.3164 44.4824-47.998L44.9219-27.6855Q45.0195-24.9023 47.6562-24.9023ZM47.6562-12.7441Q49.1699-12.7441 50.3174-13.8428Q51.4648-14.9414 51.4648-16.4551Q51.4648-18.0664 50.3418-19.1162Q49.2188-20.166 47.6562-20.166Q46.0449-20.166 44.9219-19.0918Q43.7988-18.0176 43.7988-16.4551Q43.7988-14.9414 44.9463-13.8428Q46.0938-12.7441 47.6562-12.7441Z"/>
  </g>
  <g id="Thin-S" transform="matrix(1 0 0 1 809.423 696)">
   <path class="hierarchical-0:secondary SFSymbolsPreview4D4D4D" d="M17.0898 0.244141L76.9043 0.244141Q79.6875 0.244141 81.7627-1.0498Q83.8379-2.34375 85.0098-4.44336Q86.1816-6.54297 86.1816-9.08203Q86.1816-10.2539 85.8887-11.4014Q85.5957-12.5488 84.9609-13.6719L54.9805-66.4062Q53.7109-68.7012 51.5381-69.8975Q49.3652-71.0938 46.9727-71.0938Q44.6777-71.0938 42.4805-69.8975Q40.2832-68.7012 38.9648-66.4062L9.0332-13.623Q7.8125-11.5234 7.8125-9.08203Q7.8125-6.54297 8.98438-4.44336Q10.1562-2.34375 12.2314-1.0498Q14.3066 0.244141 17.0898 0.244141ZM17.1387-3.02734Q14.502-3.02734 12.8662-4.8584Q11.2305-6.68945 11.2305-9.08203Q11.2305-9.7168 11.377-10.498Q11.5234-11.2793 11.9141-12.1094L41.8457-64.8438Q42.6758-66.3086 44.0918-67.041Q45.5078-67.7734 46.9727-67.7734Q48.5352-67.7734 49.9023-67.0654Q51.2695-66.3574 52.0996-64.8438L81.9824-12.1094Q82.8125-10.6445 82.8125-9.08203Q82.8125-6.68945 81.1523-4.8584Q79.4922-3.02734 76.8555-3.02734Z"/>
   <path class="hierarchical-1:primary SFSymbolsPreview212121" d="M47.0215-24.8535Q48.7305-24.8535 48.7305-26.8066L49.0723-47.5586Q49.1211-48.4375 48.5352-49.0234Q47.9492-49.6094 46.9727-49.6094Q46.0449-49.6094 45.4834-49.0479Q44.9219-48.4863 44.9219-47.5586L45.2637-26.8066Q45.2637-24.8535 47.0215-24.8535ZM47.0215-13.5742Q48.2422-13.5742 49.0967-14.4531Q49.9512-15.332 49.9512-16.5039Q49.9512-17.7246 49.0967-18.5791Q48.2422-19.4336 47.0215-19.4336Q45.752-19.4336 44.8975-18.5791Q44.043-17.7246 44.043-16.5039Q44.043-15.332 44.8975-14.4531Q45.752-13.5742 47.0215-13.5742Z"/>
  </g>
  <g id="Ultralight-S" transform="matrix(1 0 0 1 513.025 696)">
   <path class="hierarchical-0:secondary SFSymbolsPreview4D4D4D" d="M16.6016 0L76.8066 0Q79.3457 0 81.3477-1.24512Q83.3496-2.49023 84.4482-4.49219Q85.5469-6.49414 85.5469-8.88672Q85.5469-9.96094 85.3027-11.0596Q85.0586-12.1582 84.4238-13.2324L54.248-66.5039Q53.0273-68.6523 50.9766-69.7754Q48.9258-70.8984 46.6797-70.8984Q44.4824-70.8984 42.4072-69.7754Q40.332-68.6523 39.0625-66.5039L8.93555-13.1348Q7.8125-11.1816 7.8125-8.88672Q7.8125-6.49414 8.93555-4.49219Q10.0586-2.49023 12.0361-1.24512Q14.0137 0 16.6016 0ZM16.6504-2.19727Q13.7695-2.19727 11.9629-4.19922Q10.1562-6.20117 10.1562-8.88672Q10.1562-9.57031 10.3271-10.4004Q10.498-11.2305 10.9375-12.207L41.0645-65.4297Q41.9434-67.041 43.4814-67.8467Q45.0195-68.6523 46.6797-68.6523Q48.3887-68.6523 49.8779-67.8711Q51.3672-67.0898 52.2949-65.4297L82.373-12.1582Q83.252-10.5469 83.252-8.88672Q83.252-6.20117 81.4209-4.19922Q79.5898-2.19727 76.7578-2.19727Z"/>
   <path class="hierarchical-1:primary SFSymbolsPreview212121" d="M46.6797-24.8535Q47.9492-24.8535 47.9492-26.416L48.1934-47.3145Q48.1934-48.0469 47.7783-48.4863Q47.3633-48.9258 46.6797-48.9258Q45.9473-48.9258 45.5322-48.4863Q45.1172-48.0469 45.1172-47.3145L45.3613-26.416Q45.4102-24.8535 46.6797-24.8535ZM46.6797-14.0137Q47.7539-14.0137 48.4863-14.7705Q49.2188-15.5273 49.2188-16.5527Q49.2188-17.5781 48.4863-18.3105Q47.7539-19.043 46.6797-19.043Q45.5566-19.043 44.8486-18.3105Q44.1406-17.5781 44.1406-16.5527Q44.1406-15.5273 44.873-14.7705Q45.6055-14.0137 46.6797-14.0137Z"/>
  </g>
 </g>
</svg>
