<svg xmlns="http://www.w3.org/2000/svg" viewBox="0 0 72 72">  
  <g>
    <path d="M12.92,72C4.35,72,0,67.69,0,59.22V12.77C0,4.3,4.35,0,12.92,0H59.08C67.65,0,72,4.3,72,12.77V59.23C72,67.7,67.65,72,59.08,72Z" fill="#4c2063"/>
    <g>
      <path d="M12.6,72H59.4C67.85,72,72,67.85,72,59.56V12.44C72,4.15,67.85,0,59.4,0H12.6Q0,0,0,12.44V59.55Q0,72,12.6,72Zm.1-7.16c-3.56,0-5.59-1.88-5.59-5.63V12.78c0-3.7,2-5.63,5.59-5.63H59.3c3.56,0,5.59,1.92,5.59,5.63V59.21c0,3.75-2,5.63-5.59,5.63Z" fill="#bc59ee"/>
      <path d="M23.28,54.22c1.58,0,2.72-.74,3.36-2.81l2.62-7.76H42.8l2.57,7.76c.69,2.07,1.83,2.81,3.41,2.81A3,3,0,0,0,52,51.16a6.69,6.69,0,0,0-.49-2.28L41,20.24a5,5,0,0,0-5-3.46,4.87,4.87,0,0,0-4.89,3.46L20.52,48.88a6.46,6.46,0,0,0-.5,2.28A3,3,0,0,0,23.28,54.22ZM31,38.47l4.8-14.32h.44l4.85,14.32Z" fill="#fff"/>
    </g>
  </g>
</svg>
