<svg xmlns="http://www.w3.org/2000/svg" viewBox="0 0 72 72">  
  <g>
    <path d="M12.92,72C4.34,72,0,67.66,0,59.18V12.72C0,4.34,4.34,0,12.92,0H59.08C67.66,0,72,4.34,72,12.72V59.18c0,8.48-4.34,12.72-12.92,12.72L12.92,72Z" fill="#4c2063"/>
    <path d="M12.62,72H59.38C67.86,72,72,67.86,72,59.57V12.43C71.9,4.14,67.76,0,59.38,0H12.62C4.24,0,0,4.14,0,12.43V59.57C0,67.86,4.24,72,12.62,72Zm.1-7.2c-3.55,0-5.62-1.87-5.62-5.62V12.82c0-3.75,2.07-5.62,5.62-5.62H59.28c3.55,0,5.62,2,5.62,5.62V59.18c0,3.75-2.07,5.62-5.62,5.62Z" fill="#bc59ee"/>
    <path d="M35.9,54c6.91,0,12.13-3.06,14.2-8.19a4.21,4.21,0,0,0,.4-1.87,2.8,2.8,0,0,0-3-3c-1.28,0-2.07.59-2.86,2.07C43,46.55,40,48.23,36,48.23c-5.82,0-9.57-5-9.57-12.72S30.28,22.68,36,22.68a9.07,9.07,0,0,1,8.68,5.23c.79,1.38,1.58,2.07,2.86,2.07a2.74,2.74,0,0,0,3-3,4.21,4.21,0,0,0-.4-1.87C48,20,42.71,17,35.9,17c-10.16,0-16.57,7.2-16.57,18.55S25.74,54,35.9,54Z" fill="#fff"/>
  </g>
</svg>
