<svg xmlns="http://www.w3.org/2000/svg" viewBox="0 0 72 72">  
  <g>
    <path d="M12.94,72C4.35,72,0,67.65,0,59.26V12.74C0,4.25,4.35,0,12.94,0H59.06C67.65,0,72,4.25,72,12.74V59.16c0,8.49-4.35,12.74-12.94,12.74L12.94,72Z" fill="#0b4815"/>
    <g>
      <path d="M12.64,72H59.36C67.75,72,72,67.85,72,59.56V12.44C71.9,4.15,67.75,0,59.36,0H12.64C4.25,0,0,4.15,0,12.44V59.56C0,67.85,4.25,72,12.64,72Zm0-7.18c-3.54,0-5.56-1.82-5.56-5.66V12.74c0-3.74,2-5.66,5.56-5.66H59.16c3.54,0,5.56,1.92,5.56,5.66V59.16c0,3.74-2,5.66-5.56,5.66Z" fill="#28b13d"/>
      <path d="M26.6,55.21c6.16,0,9.6-3.23,10.61-9.81l1.22-7.78h7.88a2.1,2.1,0,0,0,2.33-2.23,2.18,2.18,0,0,0-2.33-2.32H39.13L40,27.2c.61-3.64,2.13-5.16,5.47-5.16a10.24,10.24,0,0,1,2.22.21c.3,0,.61.1,1.11.1A2.29,2.29,0,0,0,51.37,20a2.75,2.75,0,0,0-2.12-2.63,13,13,0,0,0-4-.5c-6.17,0-9.6,3.23-10.61,9.81l-1,6.37H26.09a2.18,2.18,0,0,0-2.33,2.32,2.15,2.15,0,0,0,2.33,2.23H33L31.85,44.7c-.6,3.74-2.12,5.36-5.56,5.36a9.56,9.56,0,0,1-2.22-.21,3.52,3.52,0,0,0-1.11-.1,2.21,2.21,0,0,0-2.43,2.33,2.63,2.63,0,0,0,2.12,2.63A13,13,0,0,0,26.6,55.21Z" fill="#fff"/>
    </g>
  </g>
</svg>
