<svg xmlns="http://www.w3.org/2000/svg" viewBox="0 0 72 72">  
  <g>
    <path d="M12.92,72C4.35,72,0,67.69,0,59.22V12.77C0,4.3,4.35,0,12.92,0H59.08C67.65,0,72,4.3,72,12.77V59.23C72,67.7,67.65,72,59.08,72Z" fill="#0b4815"/>
    <g>
      <path d="M12.6,72H59.4C67.85,72,72,67.84,72,59.55V12.44C72,4.15,67.85,0,59.4,0H12.6Q0,0,0,12.44v47.1Q0,72,12.6,72Zm.1-7.16c-3.56,0-5.59-1.88-5.59-5.63V12.78c0-3.7,2-5.63,5.59-5.63H59.3c3.56,0,5.59,1.92,5.59,5.63V59.2c0,3.75-2,5.63-5.59,5.63Z" fill="#28b13d"/>
      <path d="M29,53.28H46.7a2.86,2.86,0,1,0,0-5.72H32.57V21.24c0-2.47-1.24-4-3.56-4s-3.46,1.58-3.46,4v28C25.55,51.64,26.74,53.28,29,53.28Z" fill="#fff"/>
    </g>
  </g>
</svg>
