<svg xmlns="http://www.w3.org/2000/svg" viewBox="0 0 72 72">  
  <g>
    <path d="M12.94,72C4.35,72,0,67.65,0,59.26V12.74C0,4.25,4.35,0,12.94,0H59.06C67.65,0,72,4.25,72,12.74V59.16c0,8.49-4.35,12.74-12.94,12.74L12.94,72Z" fill="#043369"/>
    <g>
      <path d="M12.64,72H59.36C67.75,72,72,67.85,72,59.56V12.44C72,4.15,67.85,0,59.36,0H12.64C4.25,0,0,4.15,0,12.44V59.56C0,67.85,4.25,72,12.64,72Zm0-7.18c-3.54,0-5.56-1.92-5.56-5.66V12.74c0-3.74,2-5.66,5.56-5.66H59.16c3.54,0,5.56,1.92,5.56,5.66V59.16c0,3.74-2,5.66-5.56,5.66Z" fill="#0b82fb"/>
      <path d="M20.83,54c2.13,0,3.24-1.31,3.24-3.64V29.73h.3l8.29,20.63a3.16,3.16,0,0,0,3.24,2.22,3.14,3.14,0,0,0,3.23-2.22l8.4-20.63h.3V50.36C47.83,52.58,49,54,51,54s3.23-1.31,3.23-3.64V21.24a3.88,3.88,0,0,0-4.14-3.95,4.13,4.13,0,0,0-4.15,2.63L36,44.7h-.2l-10-24.78a4,4,0,0,0-4.15-2.63,3.85,3.85,0,0,0-4,3.95V50.46C17.7,52.69,18.91,54,20.83,54Z" fill="#fff"/>
    </g>
  </g>
</svg>
