<svg xmlns="http://www.w3.org/2000/svg" viewBox="0 0 72 72">  
  <g>
    <path d="M12.94,72C4.35,72,0,67.65,0,59.26V12.74C0,4.25,4.35,0,12.94,0H59.06C67.65,0,72,4.25,72,12.74V59.16c0,8.49-4.35,12.74-12.94,12.74H12.94Z" fill="#4c2063"/>
    <g>
      <path d="M12.64,72H59.36C67.75,72,72,67.85,72,59.56V12.44C71.9,4.15,67.75,0,59.36,0H12.64C4.25,0,0,4.15,0,12.44V59.56C0,67.85,4.25,72,12.64,72Zm0-7.18c-3.54,0-5.56-1.82-5.56-5.66V12.74c0-3.74,2-5.66,5.56-5.66H59.16c3.54,0,5.56,1.92,5.56,5.66V59.16c0,3.74-2,5.66-5.56,5.66Z" fill="#bc59ee"/>
      <path d="M27.71,53.7c2.32,0,3.54-1.52,3.54-4V42.17h7.18c7.88,0,13-4.75,13-12.24,0-7.28-5.26-12.23-13-12.23H27.61c-2.23,0-3.44,1.61-3.44,4v28C24.17,52.18,25.38,53.7,27.71,53.7Zm3.54-16.79V23.06h6.17c4.45,0,7.18,2.52,7.18,6.87S42,36.81,37.42,36.81C37.42,36.91,31.25,36.91,31.25,36.91Z" fill="#fff"/>
    </g>
  </g>
</svg>
