<svg xmlns="http://www.w3.org/2000/svg" width="72" height="72" viewBox="0 0 72 72">
  <g>
    <path d="M12.944,72C4.348,72,0,67.652,0,59.258V12.742C0,4.247,4.348,0,12.944,0H59.056C67.652,0,72,4.247,72,12.742V59.157c0,8.5-4.348,12.742-12.944,12.742L12.944,72Z" fill="#4c2063"/>
    <g>
      <path d="M12.64,72H59.36C67.753,72,72,67.854,72,59.562V12.438C71.9,4.146,67.753,0,59.36,0H12.64C4.247,0,0,4.146,0,12.438V59.562C0,67.854,4.247,72,12.64,72Zm0-7.18C9.1,64.82,7.079,63,7.079,59.157V12.742C7.079,9,9.1,7.079,12.64,7.079H59.157c3.54,0,5.562,1.921,5.562,5.663V59.157c0,3.742-2.022,5.663-5.562,5.663Z" fill="#bc59ee"/>
      <path d="M35.6,54.2c8.9,0,14.764-4.247,14.764-11.123,0-5.259-3.944-8.191-10.72-10.012l-5.258-1.415c-3.438-.91-4.854-2.225-4.854-4.45,0-3.033,2.225-4.854,6.169-4.854,3.741,0,5.865,1.315,7.382,4.349a3.118,3.118,0,0,0,3.236,2.123,2.841,2.841,0,0,0,3.134-3.033,5.911,5.911,0,0,0-.4-2.023c-1.517-4.045-6.27-7.079-12.944-7.079-8.191,0-13.854,4.45-13.854,10.821,0,4.955,3.337,7.887,9.405,9.606l5.663,1.618c4.247,1.315,5.764,2.225,5.764,4.854,0,3.337-3.034,4.854-6.978,4.854-3.843,0-6.27-1.314-7.786-4.247-.809-1.517-1.72-2.225-3.236-2.225A2.894,2.894,0,0,0,21.944,45a4.112,4.112,0,0,0,.505,2.124C23.663,50.764,28.315,54.2,35.6,54.2Z" fill="#fff"/>
    </g>
  </g>
</svg>
