<svg xmlns="http://www.w3.org/2000/svg" viewBox="0 0 72 72">  
  <g>
    <path d="M12.94,72C4.35,72,0,67.65,0,59.26V12.74C0,4.25,4.35,0,12.94,0H59.06C67.65,0,72,4.25,72,12.74V59.16c0,8.49-4.35,12.74-12.94,12.74L12.94,72Z" fill="#603904"/>
    <g>
      <path d="M12.64,72H59.36C67.75,72,72,67.85,72,59.56V12.44C71.9,4.15,67.75,0,59.36,0H12.64C4.25,0,0,4.15,0,12.44V59.56C0,67.85,4.25,72,12.64,72Zm0-7.18c-3.54,0-5.56-1.82-5.56-5.66V12.74c0-3.74,2-5.66,5.56-5.66H59.16c3.54,0,5.56,1.92,5.56,5.66V59.16c0,3.74-2,5.66-5.56,5.66Z" fill="#e79009"/>
      <path d="M35.9,56.12c2.32,0,3.64-1.51,3.64-3.94V25.89h9.3a2.74,2.74,0,0,0,2.94-2.83,2.69,2.69,0,0,0-2.94-2.84H23.16a2.66,2.66,0,0,0-2.83,2.84,2.65,2.65,0,0,0,2.83,2.83h9.3V52.18C32.46,54.61,33.67,56.12,35.9,56.12Z" fill="#fff"/>
    </g>
  </g>
</svg>
