<svg xmlns="http://www.w3.org/2000/svg" viewBox="0 0 72 72">  
  <g>
    <path d="M12.94,72C4.35,72,0,67.65,0,59.26V12.74C0,4.25,4.35,0,12.94,0H59.06C67.65,0,72,4.25,72,12.74V59.16c0,8.49-4.35,12.74-12.94,12.74L12.94,72Z" fill="#0b4815"/>
    <path d="M34.58,56.83c2.43,0,4.05-1.31,5.16-4.14L50.26,25.18a6.41,6.41,0,0,0,.3-1.92A3.3,3.3,0,0,0,47,19.92c-1.92,0-3,.91-3.74,2.93L34.69,48.34h-.31L25.79,22.85C25.08,20.73,24,19.92,22,19.92a3.29,3.29,0,0,0-3.53,3.34,7.52,7.52,0,0,0,.3,1.92L29.33,52.69C30.44,55.72,31.85,56.83,34.58,56.83Z" fill="#fff"/>
    <path d="M12.54,72H59.26c8.49,0,12.64-4.15,12.64-12.44V12.44C71.9,4.15,67.75,0,59.26,0H12.54C4.15,0,0,4.15,0,12.44V59.56C0,67.85,4.25,72,12.54,72Zm.2-7.18c-3.54,0-5.56-1.92-5.56-5.66V12.74c0-3.74,2-5.66,5.56-5.66H59.26c3.54,0,5.56,1.92,5.56,5.66V59.16c0,3.74-2,5.66-5.56,5.66Z" fill="#28b13d"/>
  </g>
</svg>
