<svg width="91" height="77" viewBox="0 0 91 77" fill="none" xmlns="http://www.w3.org/2000/svg">
<path d="M9.41062 63.4531H33.4341L32.3598 70.9727H27.1352C25.5727 70.9727 24.3032 72.291 24.3032 73.8535C24.3032 75.4649 25.5727 76.7344 27.1352 76.7344H63.1216C64.6841 76.7344 65.9536 75.4649 65.9536 73.8535C65.9536 72.291 64.6841 70.9727 63.1216 70.9727H57.897L56.8227 63.4531H80.8462C87.0962 63.4531 90.2212 60.4258 90.2212 54.0781V10.1328C90.2212 3.73632 87.0962 0.757812 80.8462 0.757812H9.41062C3.16062 0.757812 0.0356445 3.73632 0.0356445 10.1328V54.0781C0.0356445 60.4258 3.16062 63.4531 9.41062 63.4531ZM7.21342 47.0957C5.99272 47.0957 5.45552 46.6074 5.45552 45.3379V10.2305C5.45552 7.34961 6.72512 6.17771 9.50832 6.17771H80.7485C83.5317 6.17771 84.8012 7.34961 84.8012 10.2305V45.3379C84.8012 46.6074 84.2641 47.0957 83.0434 47.0957H7.21342ZM45.1528 59.6445C43.2485 59.6445 41.7348 58.1309 41.7348 56.2754C41.7348 54.4688 43.2485 52.9062 45.1528 52.9062C46.9595 52.9062 48.522 54.4688 48.522 56.2754C48.522 58.1309 46.9595 59.6445 45.1528 59.6445Z" fill="white"/>
</svg>
