<svg width="90" height="69" viewBox="0 0 90 69" fill="none" xmlns="http://www.w3.org/2000/svg">
<path d="M11.4866 68.877H79.3577C86.2913 68.877 89.9046 65.2149 89.9046 58.3789V11.3086C89.9046 4.42382 86.2913 0.761719 79.3577 0.761719H11.4866C4.55298 0.761719 0.939697 4.37502 0.939697 11.3086V58.3789C0.939697 65.3125 4.55298 68.877 11.4866 68.877ZM11.5843 65.5567C6.79908 65.5567 4.25998 63.0664 4.25998 58.1836V11.4551C4.25998 6.62112 6.79908 4.08202 11.5843 4.08202H28.7229V65.5567H11.5843ZM79.26 4.08202C83.8987 4.08202 86.5843 6.62112 86.5843 11.4551V58.1836C86.5843 63.0664 83.8987 65.5567 79.26 65.5567H31.9944V4.08202H79.26ZM21.4475 18.3887C22.18 18.3887 22.8147 17.7539 22.8147 17.0215C22.8147 16.2891 22.18 15.7031 21.4475 15.7031H11.5843C10.803 15.7031 10.1682 16.2891 10.1682 17.0215C10.1682 17.7539 10.803 18.3887 11.5843 18.3887H21.4475ZM21.4475 28.7402C22.18 28.7402 22.8147 28.1055 22.8147 27.373C22.8147 26.6406 22.18 26.0059 21.4475 26.0059H11.5843C10.803 26.0059 10.1682 26.6406 10.1682 27.373C10.1682 28.1055 10.803 28.7402 11.5843 28.7402H21.4475ZM21.4475 39.043C22.18 39.043 22.8147 38.4082 22.8147 37.6758C22.8147 36.9434 22.18 36.3574 21.4475 36.3574H11.5843C10.803 36.3574 10.1682 36.9434 10.1682 37.6758C10.1682 38.4082 10.803 39.043 11.5843 39.043H21.4475Z" fill="black"/>
</svg>
